%TF.GenerationSoftware,KiCad,Pcbnew,8.0.6*%
%TF.CreationDate,2025-10-28T17:51:58+09:00*%
%TF.ProjectId,Drone_hacking_PCB,44726f6e-655f-4686-9163-6b696e675f50,rev?*%
%TF.SameCoordinates,Original*%
%TF.FileFunction,Legend,Top*%
%TF.FilePolarity,Positive*%
%FSLAX46Y46*%
G04 Gerber Fmt 4.6, Leading zero omitted, Abs format (unit mm)*
G04 Created by KiCad (PCBNEW 8.0.6) date 2025-10-28 17:51:58*
%MOMM*%
%LPD*%
G01*
G04 APERTURE LIST*
%ADD10C,0.150000*%
%ADD11C,0.100000*%
%ADD12C,0.254000*%
%ADD13C,0.120000*%
%ADD14C,0.300000*%
%ADD15C,0.000000*%
G04 APERTURE END LIST*
D10*
X99396779Y-105533866D02*
X100158684Y-105533866D01*
X99777731Y-105914819D02*
X99777731Y-105152914D01*
X112141541Y-68613236D02*
X113332017Y-68613236D01*
X112474874Y-68946569D02*
X113236779Y-68946569D01*
X112332017Y-69470379D02*
X113332017Y-69470379D01*
X112855826Y-68946569D02*
X112855826Y-69470379D01*
X112570112Y-68375140D02*
X112474874Y-68898950D01*
X112474874Y-68898950D02*
X112284398Y-69232283D01*
X112284398Y-69232283D02*
X112093922Y-69422760D01*
X114141540Y-68803712D02*
X114712969Y-68803712D01*
X113570112Y-69470379D02*
X114808207Y-69470379D01*
X114141540Y-68375140D02*
X114141540Y-69470379D01*
X115046302Y-68422760D02*
X116284397Y-68422760D01*
X115617730Y-68422760D02*
X115617730Y-69470379D01*
X115617730Y-68708474D02*
X116189159Y-68994188D01*
X116665349Y-69089426D02*
X117427254Y-69089426D01*
X117903444Y-68803712D02*
X118665349Y-69089426D01*
X118665349Y-69089426D02*
X117903444Y-69375140D01*
X119665348Y-68517998D02*
X119570110Y-68470379D01*
X119570110Y-68470379D02*
X119427253Y-68470379D01*
X119427253Y-68470379D02*
X119284396Y-68517998D01*
X119284396Y-68517998D02*
X119189158Y-68613236D01*
X119189158Y-68613236D02*
X119141539Y-68708474D01*
X119141539Y-68708474D02*
X119093920Y-68898950D01*
X119093920Y-68898950D02*
X119093920Y-69041807D01*
X119093920Y-69041807D02*
X119141539Y-69232283D01*
X119141539Y-69232283D02*
X119189158Y-69327521D01*
X119189158Y-69327521D02*
X119284396Y-69422760D01*
X119284396Y-69422760D02*
X119427253Y-69470379D01*
X119427253Y-69470379D02*
X119522491Y-69470379D01*
X119522491Y-69470379D02*
X119665348Y-69422760D01*
X119665348Y-69422760D02*
X119712967Y-69375140D01*
X119712967Y-69375140D02*
X119712967Y-69041807D01*
X119712967Y-69041807D02*
X119522491Y-69041807D01*
X120141539Y-69470379D02*
X120141539Y-68470379D01*
X120141539Y-68470379D02*
X120522491Y-68470379D01*
X120522491Y-68470379D02*
X120617729Y-68517998D01*
X120617729Y-68517998D02*
X120665348Y-68565617D01*
X120665348Y-68565617D02*
X120712967Y-68660855D01*
X120712967Y-68660855D02*
X120712967Y-68803712D01*
X120712967Y-68803712D02*
X120665348Y-68898950D01*
X120665348Y-68898950D02*
X120617729Y-68946569D01*
X120617729Y-68946569D02*
X120522491Y-68994188D01*
X120522491Y-68994188D02*
X120141539Y-68994188D01*
X121141539Y-69470379D02*
X121141539Y-68470379D01*
X121808205Y-68470379D02*
X121998681Y-68470379D01*
X121998681Y-68470379D02*
X122093919Y-68517998D01*
X122093919Y-68517998D02*
X122189157Y-68613236D01*
X122189157Y-68613236D02*
X122236776Y-68803712D01*
X122236776Y-68803712D02*
X122236776Y-69137045D01*
X122236776Y-69137045D02*
X122189157Y-69327521D01*
X122189157Y-69327521D02*
X122093919Y-69422760D01*
X122093919Y-69422760D02*
X121998681Y-69470379D01*
X121998681Y-69470379D02*
X121808205Y-69470379D01*
X121808205Y-69470379D02*
X121712967Y-69422760D01*
X121712967Y-69422760D02*
X121617729Y-69327521D01*
X121617729Y-69327521D02*
X121570110Y-69137045D01*
X121570110Y-69137045D02*
X121570110Y-68803712D01*
X121570110Y-68803712D02*
X121617729Y-68613236D01*
X121617729Y-68613236D02*
X121712967Y-68517998D01*
X121712967Y-68517998D02*
X121808205Y-68470379D01*
X122570110Y-68470379D02*
X123189157Y-68470379D01*
X123189157Y-68470379D02*
X122855824Y-68851331D01*
X122855824Y-68851331D02*
X122998681Y-68851331D01*
X122998681Y-68851331D02*
X123093919Y-68898950D01*
X123093919Y-68898950D02*
X123141538Y-68946569D01*
X123141538Y-68946569D02*
X123189157Y-69041807D01*
X123189157Y-69041807D02*
X123189157Y-69279902D01*
X123189157Y-69279902D02*
X123141538Y-69375140D01*
X123141538Y-69375140D02*
X123093919Y-69422760D01*
X123093919Y-69422760D02*
X122998681Y-69470379D01*
X122998681Y-69470379D02*
X122712967Y-69470379D01*
X122712967Y-69470379D02*
X122617729Y-69422760D01*
X122617729Y-69422760D02*
X122570110Y-69375140D01*
X124093919Y-68470379D02*
X123617729Y-68470379D01*
X123617729Y-68470379D02*
X123570110Y-68946569D01*
X123570110Y-68946569D02*
X123617729Y-68898950D01*
X123617729Y-68898950D02*
X123712967Y-68851331D01*
X123712967Y-68851331D02*
X123951062Y-68851331D01*
X123951062Y-68851331D02*
X124046300Y-68898950D01*
X124046300Y-68898950D02*
X124093919Y-68946569D01*
X124093919Y-68946569D02*
X124141538Y-69041807D01*
X124141538Y-69041807D02*
X124141538Y-69279902D01*
X124141538Y-69279902D02*
X124093919Y-69375140D01*
X124093919Y-69375140D02*
X124046300Y-69422760D01*
X124046300Y-69422760D02*
X123951062Y-69470379D01*
X123951062Y-69470379D02*
X123712967Y-69470379D01*
X123712967Y-69470379D02*
X123617729Y-69422760D01*
X123617729Y-69422760D02*
X123570110Y-69375140D01*
X112141541Y-70223180D02*
X113332017Y-70223180D01*
X112474874Y-70556513D02*
X113236779Y-70556513D01*
X112332017Y-71080323D02*
X113332017Y-71080323D01*
X112855826Y-70556513D02*
X112855826Y-71080323D01*
X112570112Y-69985084D02*
X112474874Y-70508894D01*
X112474874Y-70508894D02*
X112284398Y-70842227D01*
X112284398Y-70842227D02*
X112093922Y-71032704D01*
X113617731Y-70223180D02*
X114808207Y-70223180D01*
X113951064Y-70556513D02*
X114712969Y-70556513D01*
X113808207Y-71080323D02*
X114808207Y-71080323D01*
X114332016Y-70556513D02*
X114332016Y-71080323D01*
X114046302Y-69985084D02*
X113951064Y-70508894D01*
X113951064Y-70508894D02*
X113760588Y-70842227D01*
X113760588Y-70842227D02*
X113570112Y-71032704D01*
X115093921Y-70223180D02*
X116284397Y-70223180D01*
X115379635Y-71032704D02*
X116189159Y-71032704D01*
X115379635Y-70508894D02*
X115379635Y-71080323D01*
X115332016Y-70556513D02*
X116189159Y-70556513D01*
X116189159Y-70556513D02*
X116189159Y-71080323D01*
X115379635Y-70461275D02*
X115046302Y-70794608D01*
X115617730Y-70032704D02*
X115332016Y-70556513D01*
X116665349Y-70699370D02*
X117427254Y-70699370D01*
X117903444Y-70413656D02*
X118665349Y-70699370D01*
X118665349Y-70699370D02*
X117903444Y-70985084D01*
X119665348Y-70127942D02*
X119570110Y-70080323D01*
X119570110Y-70080323D02*
X119427253Y-70080323D01*
X119427253Y-70080323D02*
X119284396Y-70127942D01*
X119284396Y-70127942D02*
X119189158Y-70223180D01*
X119189158Y-70223180D02*
X119141539Y-70318418D01*
X119141539Y-70318418D02*
X119093920Y-70508894D01*
X119093920Y-70508894D02*
X119093920Y-70651751D01*
X119093920Y-70651751D02*
X119141539Y-70842227D01*
X119141539Y-70842227D02*
X119189158Y-70937465D01*
X119189158Y-70937465D02*
X119284396Y-71032704D01*
X119284396Y-71032704D02*
X119427253Y-71080323D01*
X119427253Y-71080323D02*
X119522491Y-71080323D01*
X119522491Y-71080323D02*
X119665348Y-71032704D01*
X119665348Y-71032704D02*
X119712967Y-70985084D01*
X119712967Y-70985084D02*
X119712967Y-70651751D01*
X119712967Y-70651751D02*
X119522491Y-70651751D01*
X120141539Y-71080323D02*
X120141539Y-70080323D01*
X120141539Y-70080323D02*
X120522491Y-70080323D01*
X120522491Y-70080323D02*
X120617729Y-70127942D01*
X120617729Y-70127942D02*
X120665348Y-70175561D01*
X120665348Y-70175561D02*
X120712967Y-70270799D01*
X120712967Y-70270799D02*
X120712967Y-70413656D01*
X120712967Y-70413656D02*
X120665348Y-70508894D01*
X120665348Y-70508894D02*
X120617729Y-70556513D01*
X120617729Y-70556513D02*
X120522491Y-70604132D01*
X120522491Y-70604132D02*
X120141539Y-70604132D01*
X121141539Y-71080323D02*
X121141539Y-70080323D01*
X121808205Y-70080323D02*
X121998681Y-70080323D01*
X121998681Y-70080323D02*
X122093919Y-70127942D01*
X122093919Y-70127942D02*
X122189157Y-70223180D01*
X122189157Y-70223180D02*
X122236776Y-70413656D01*
X122236776Y-70413656D02*
X122236776Y-70746989D01*
X122236776Y-70746989D02*
X122189157Y-70937465D01*
X122189157Y-70937465D02*
X122093919Y-71032704D01*
X122093919Y-71032704D02*
X121998681Y-71080323D01*
X121998681Y-71080323D02*
X121808205Y-71080323D01*
X121808205Y-71080323D02*
X121712967Y-71032704D01*
X121712967Y-71032704D02*
X121617729Y-70937465D01*
X121617729Y-70937465D02*
X121570110Y-70746989D01*
X121570110Y-70746989D02*
X121570110Y-70413656D01*
X121570110Y-70413656D02*
X121617729Y-70223180D01*
X121617729Y-70223180D02*
X121712967Y-70127942D01*
X121712967Y-70127942D02*
X121808205Y-70080323D01*
X122570110Y-70080323D02*
X123189157Y-70080323D01*
X123189157Y-70080323D02*
X122855824Y-70461275D01*
X122855824Y-70461275D02*
X122998681Y-70461275D01*
X122998681Y-70461275D02*
X123093919Y-70508894D01*
X123093919Y-70508894D02*
X123141538Y-70556513D01*
X123141538Y-70556513D02*
X123189157Y-70651751D01*
X123189157Y-70651751D02*
X123189157Y-70889846D01*
X123189157Y-70889846D02*
X123141538Y-70985084D01*
X123141538Y-70985084D02*
X123093919Y-71032704D01*
X123093919Y-71032704D02*
X122998681Y-71080323D01*
X122998681Y-71080323D02*
X122712967Y-71080323D01*
X122712967Y-71080323D02*
X122617729Y-71032704D01*
X122617729Y-71032704D02*
X122570110Y-70985084D01*
X124046300Y-70413656D02*
X124046300Y-71080323D01*
X123808205Y-70032704D02*
X123570110Y-70746989D01*
X123570110Y-70746989D02*
X124189157Y-70746989D01*
X112141541Y-71833124D02*
X113332017Y-71833124D01*
X112427255Y-72642648D02*
X113236779Y-72642648D01*
X112427255Y-72118838D02*
X112427255Y-72690267D01*
X112379636Y-72166457D02*
X113236779Y-72166457D01*
X113236779Y-72166457D02*
X113236779Y-72690267D01*
X112427255Y-72071219D02*
X112093922Y-72404552D01*
X112665350Y-71642648D02*
X112379636Y-72166457D01*
X114141540Y-72023600D02*
X114712969Y-72023600D01*
X113570112Y-72690267D02*
X114808207Y-72690267D01*
X114141540Y-71595028D02*
X114141540Y-72690267D01*
X115046302Y-71642648D02*
X116284397Y-71642648D01*
X115617730Y-71642648D02*
X115617730Y-72690267D01*
X115617730Y-71928362D02*
X116189159Y-72214076D01*
X116665349Y-72309314D02*
X117427254Y-72309314D01*
X117903444Y-72023600D02*
X118665349Y-72309314D01*
X118665349Y-72309314D02*
X117903444Y-72595028D01*
X119665348Y-71737886D02*
X119570110Y-71690267D01*
X119570110Y-71690267D02*
X119427253Y-71690267D01*
X119427253Y-71690267D02*
X119284396Y-71737886D01*
X119284396Y-71737886D02*
X119189158Y-71833124D01*
X119189158Y-71833124D02*
X119141539Y-71928362D01*
X119141539Y-71928362D02*
X119093920Y-72118838D01*
X119093920Y-72118838D02*
X119093920Y-72261695D01*
X119093920Y-72261695D02*
X119141539Y-72452171D01*
X119141539Y-72452171D02*
X119189158Y-72547409D01*
X119189158Y-72547409D02*
X119284396Y-72642648D01*
X119284396Y-72642648D02*
X119427253Y-72690267D01*
X119427253Y-72690267D02*
X119522491Y-72690267D01*
X119522491Y-72690267D02*
X119665348Y-72642648D01*
X119665348Y-72642648D02*
X119712967Y-72595028D01*
X119712967Y-72595028D02*
X119712967Y-72261695D01*
X119712967Y-72261695D02*
X119522491Y-72261695D01*
X120141539Y-72690267D02*
X120141539Y-71690267D01*
X120141539Y-71690267D02*
X120522491Y-71690267D01*
X120522491Y-71690267D02*
X120617729Y-71737886D01*
X120617729Y-71737886D02*
X120665348Y-71785505D01*
X120665348Y-71785505D02*
X120712967Y-71880743D01*
X120712967Y-71880743D02*
X120712967Y-72023600D01*
X120712967Y-72023600D02*
X120665348Y-72118838D01*
X120665348Y-72118838D02*
X120617729Y-72166457D01*
X120617729Y-72166457D02*
X120522491Y-72214076D01*
X120522491Y-72214076D02*
X120141539Y-72214076D01*
X121141539Y-72690267D02*
X121141539Y-71690267D01*
X121808205Y-71690267D02*
X121998681Y-71690267D01*
X121998681Y-71690267D02*
X122093919Y-71737886D01*
X122093919Y-71737886D02*
X122189157Y-71833124D01*
X122189157Y-71833124D02*
X122236776Y-72023600D01*
X122236776Y-72023600D02*
X122236776Y-72356933D01*
X122236776Y-72356933D02*
X122189157Y-72547409D01*
X122189157Y-72547409D02*
X122093919Y-72642648D01*
X122093919Y-72642648D02*
X121998681Y-72690267D01*
X121998681Y-72690267D02*
X121808205Y-72690267D01*
X121808205Y-72690267D02*
X121712967Y-72642648D01*
X121712967Y-72642648D02*
X121617729Y-72547409D01*
X121617729Y-72547409D02*
X121570110Y-72356933D01*
X121570110Y-72356933D02*
X121570110Y-72023600D01*
X121570110Y-72023600D02*
X121617729Y-71833124D01*
X121617729Y-71833124D02*
X121712967Y-71737886D01*
X121712967Y-71737886D02*
X121808205Y-71690267D01*
X122570110Y-71690267D02*
X123189157Y-71690267D01*
X123189157Y-71690267D02*
X122855824Y-72071219D01*
X122855824Y-72071219D02*
X122998681Y-72071219D01*
X122998681Y-72071219D02*
X123093919Y-72118838D01*
X123093919Y-72118838D02*
X123141538Y-72166457D01*
X123141538Y-72166457D02*
X123189157Y-72261695D01*
X123189157Y-72261695D02*
X123189157Y-72499790D01*
X123189157Y-72499790D02*
X123141538Y-72595028D01*
X123141538Y-72595028D02*
X123093919Y-72642648D01*
X123093919Y-72642648D02*
X122998681Y-72690267D01*
X122998681Y-72690267D02*
X122712967Y-72690267D01*
X122712967Y-72690267D02*
X122617729Y-72642648D01*
X122617729Y-72642648D02*
X122570110Y-72595028D01*
X123522491Y-71690267D02*
X124141538Y-71690267D01*
X124141538Y-71690267D02*
X123808205Y-72071219D01*
X123808205Y-72071219D02*
X123951062Y-72071219D01*
X123951062Y-72071219D02*
X124046300Y-72118838D01*
X124046300Y-72118838D02*
X124093919Y-72166457D01*
X124093919Y-72166457D02*
X124141538Y-72261695D01*
X124141538Y-72261695D02*
X124141538Y-72499790D01*
X124141538Y-72499790D02*
X124093919Y-72595028D01*
X124093919Y-72595028D02*
X124046300Y-72642648D01*
X124046300Y-72642648D02*
X123951062Y-72690267D01*
X123951062Y-72690267D02*
X123665348Y-72690267D01*
X123665348Y-72690267D02*
X123570110Y-72642648D01*
X123570110Y-72642648D02*
X123522491Y-72595028D01*
X112141541Y-73443068D02*
X113332017Y-73443068D01*
X112427255Y-74252592D02*
X113236779Y-74252592D01*
X112427255Y-73728782D02*
X112427255Y-74300211D01*
X112379636Y-73776401D02*
X113236779Y-73776401D01*
X113236779Y-73776401D02*
X113236779Y-74300211D01*
X112427255Y-73681163D02*
X112093922Y-74014496D01*
X112665350Y-73252592D02*
X112379636Y-73776401D01*
X113617731Y-73443068D02*
X114808207Y-73443068D01*
X113951064Y-73776401D02*
X114712969Y-73776401D01*
X113808207Y-74300211D02*
X114808207Y-74300211D01*
X114332016Y-73776401D02*
X114332016Y-74300211D01*
X114046302Y-73204972D02*
X113951064Y-73728782D01*
X113951064Y-73728782D02*
X113760588Y-74062115D01*
X113760588Y-74062115D02*
X113570112Y-74252592D01*
X115093921Y-73443068D02*
X116284397Y-73443068D01*
X115379635Y-74252592D02*
X116189159Y-74252592D01*
X115379635Y-73728782D02*
X115379635Y-74300211D01*
X115332016Y-73776401D02*
X116189159Y-73776401D01*
X116189159Y-73776401D02*
X116189159Y-74300211D01*
X115379635Y-73681163D02*
X115046302Y-74014496D01*
X115617730Y-73252592D02*
X115332016Y-73776401D01*
X116665349Y-73919258D02*
X117427254Y-73919258D01*
X117903444Y-73633544D02*
X118665349Y-73919258D01*
X118665349Y-73919258D02*
X117903444Y-74204972D01*
X119665348Y-73347830D02*
X119570110Y-73300211D01*
X119570110Y-73300211D02*
X119427253Y-73300211D01*
X119427253Y-73300211D02*
X119284396Y-73347830D01*
X119284396Y-73347830D02*
X119189158Y-73443068D01*
X119189158Y-73443068D02*
X119141539Y-73538306D01*
X119141539Y-73538306D02*
X119093920Y-73728782D01*
X119093920Y-73728782D02*
X119093920Y-73871639D01*
X119093920Y-73871639D02*
X119141539Y-74062115D01*
X119141539Y-74062115D02*
X119189158Y-74157353D01*
X119189158Y-74157353D02*
X119284396Y-74252592D01*
X119284396Y-74252592D02*
X119427253Y-74300211D01*
X119427253Y-74300211D02*
X119522491Y-74300211D01*
X119522491Y-74300211D02*
X119665348Y-74252592D01*
X119665348Y-74252592D02*
X119712967Y-74204972D01*
X119712967Y-74204972D02*
X119712967Y-73871639D01*
X119712967Y-73871639D02*
X119522491Y-73871639D01*
X120141539Y-74300211D02*
X120141539Y-73300211D01*
X120141539Y-73300211D02*
X120522491Y-73300211D01*
X120522491Y-73300211D02*
X120617729Y-73347830D01*
X120617729Y-73347830D02*
X120665348Y-73395449D01*
X120665348Y-73395449D02*
X120712967Y-73490687D01*
X120712967Y-73490687D02*
X120712967Y-73633544D01*
X120712967Y-73633544D02*
X120665348Y-73728782D01*
X120665348Y-73728782D02*
X120617729Y-73776401D01*
X120617729Y-73776401D02*
X120522491Y-73824020D01*
X120522491Y-73824020D02*
X120141539Y-73824020D01*
X121141539Y-74300211D02*
X121141539Y-73300211D01*
X121808205Y-73300211D02*
X121998681Y-73300211D01*
X121998681Y-73300211D02*
X122093919Y-73347830D01*
X122093919Y-73347830D02*
X122189157Y-73443068D01*
X122189157Y-73443068D02*
X122236776Y-73633544D01*
X122236776Y-73633544D02*
X122236776Y-73966877D01*
X122236776Y-73966877D02*
X122189157Y-74157353D01*
X122189157Y-74157353D02*
X122093919Y-74252592D01*
X122093919Y-74252592D02*
X121998681Y-74300211D01*
X121998681Y-74300211D02*
X121808205Y-74300211D01*
X121808205Y-74300211D02*
X121712967Y-74252592D01*
X121712967Y-74252592D02*
X121617729Y-74157353D01*
X121617729Y-74157353D02*
X121570110Y-73966877D01*
X121570110Y-73966877D02*
X121570110Y-73633544D01*
X121570110Y-73633544D02*
X121617729Y-73443068D01*
X121617729Y-73443068D02*
X121712967Y-73347830D01*
X121712967Y-73347830D02*
X121808205Y-73300211D01*
X122570110Y-73300211D02*
X123189157Y-73300211D01*
X123189157Y-73300211D02*
X122855824Y-73681163D01*
X122855824Y-73681163D02*
X122998681Y-73681163D01*
X122998681Y-73681163D02*
X123093919Y-73728782D01*
X123093919Y-73728782D02*
X123141538Y-73776401D01*
X123141538Y-73776401D02*
X123189157Y-73871639D01*
X123189157Y-73871639D02*
X123189157Y-74109734D01*
X123189157Y-74109734D02*
X123141538Y-74204972D01*
X123141538Y-74204972D02*
X123093919Y-74252592D01*
X123093919Y-74252592D02*
X122998681Y-74300211D01*
X122998681Y-74300211D02*
X122712967Y-74300211D01*
X122712967Y-74300211D02*
X122617729Y-74252592D01*
X122617729Y-74252592D02*
X122570110Y-74204972D01*
X123570110Y-73395449D02*
X123617729Y-73347830D01*
X123617729Y-73347830D02*
X123712967Y-73300211D01*
X123712967Y-73300211D02*
X123951062Y-73300211D01*
X123951062Y-73300211D02*
X124046300Y-73347830D01*
X124046300Y-73347830D02*
X124093919Y-73395449D01*
X124093919Y-73395449D02*
X124141538Y-73490687D01*
X124141538Y-73490687D02*
X124141538Y-73585925D01*
X124141538Y-73585925D02*
X124093919Y-73728782D01*
X124093919Y-73728782D02*
X123522491Y-74300211D01*
X123522491Y-74300211D02*
X124141538Y-74300211D01*
X112189160Y-75862536D02*
X112332017Y-75910155D01*
X112332017Y-75910155D02*
X112570112Y-75910155D01*
X112570112Y-75910155D02*
X112665350Y-75862536D01*
X112665350Y-75862536D02*
X112712969Y-75814916D01*
X112712969Y-75814916D02*
X112760588Y-75719678D01*
X112760588Y-75719678D02*
X112760588Y-75624440D01*
X112760588Y-75624440D02*
X112712969Y-75529202D01*
X112712969Y-75529202D02*
X112665350Y-75481583D01*
X112665350Y-75481583D02*
X112570112Y-75433964D01*
X112570112Y-75433964D02*
X112379636Y-75386345D01*
X112379636Y-75386345D02*
X112284398Y-75338726D01*
X112284398Y-75338726D02*
X112236779Y-75291107D01*
X112236779Y-75291107D02*
X112189160Y-75195869D01*
X112189160Y-75195869D02*
X112189160Y-75100631D01*
X112189160Y-75100631D02*
X112236779Y-75005393D01*
X112236779Y-75005393D02*
X112284398Y-74957774D01*
X112284398Y-74957774D02*
X112379636Y-74910155D01*
X112379636Y-74910155D02*
X112617731Y-74910155D01*
X112617731Y-74910155D02*
X112760588Y-74957774D01*
X113141541Y-75862536D02*
X113284398Y-75910155D01*
X113284398Y-75910155D02*
X113522493Y-75910155D01*
X113522493Y-75910155D02*
X113617731Y-75862536D01*
X113617731Y-75862536D02*
X113665350Y-75814916D01*
X113665350Y-75814916D02*
X113712969Y-75719678D01*
X113712969Y-75719678D02*
X113712969Y-75624440D01*
X113712969Y-75624440D02*
X113665350Y-75529202D01*
X113665350Y-75529202D02*
X113617731Y-75481583D01*
X113617731Y-75481583D02*
X113522493Y-75433964D01*
X113522493Y-75433964D02*
X113332017Y-75386345D01*
X113332017Y-75386345D02*
X113236779Y-75338726D01*
X113236779Y-75338726D02*
X113189160Y-75291107D01*
X113189160Y-75291107D02*
X113141541Y-75195869D01*
X113141541Y-75195869D02*
X113141541Y-75100631D01*
X113141541Y-75100631D02*
X113189160Y-75005393D01*
X113189160Y-75005393D02*
X113236779Y-74957774D01*
X113236779Y-74957774D02*
X113332017Y-74910155D01*
X113332017Y-74910155D02*
X113570112Y-74910155D01*
X113570112Y-74910155D02*
X113712969Y-74957774D01*
X114141541Y-75910155D02*
X114141541Y-74910155D01*
X114141541Y-74910155D02*
X114379636Y-74910155D01*
X114379636Y-74910155D02*
X114522493Y-74957774D01*
X114522493Y-74957774D02*
X114617731Y-75053012D01*
X114617731Y-75053012D02*
X114665350Y-75148250D01*
X114665350Y-75148250D02*
X114712969Y-75338726D01*
X114712969Y-75338726D02*
X114712969Y-75481583D01*
X114712969Y-75481583D02*
X114665350Y-75672059D01*
X114665350Y-75672059D02*
X114617731Y-75767297D01*
X114617731Y-75767297D02*
X114522493Y-75862536D01*
X114522493Y-75862536D02*
X114379636Y-75910155D01*
X114379636Y-75910155D02*
X114141541Y-75910155D01*
X114903446Y-76005393D02*
X115665350Y-76005393D01*
X115855827Y-75862536D02*
X115998684Y-75910155D01*
X115998684Y-75910155D02*
X116236779Y-75910155D01*
X116236779Y-75910155D02*
X116332017Y-75862536D01*
X116332017Y-75862536D02*
X116379636Y-75814916D01*
X116379636Y-75814916D02*
X116427255Y-75719678D01*
X116427255Y-75719678D02*
X116427255Y-75624440D01*
X116427255Y-75624440D02*
X116379636Y-75529202D01*
X116379636Y-75529202D02*
X116332017Y-75481583D01*
X116332017Y-75481583D02*
X116236779Y-75433964D01*
X116236779Y-75433964D02*
X116046303Y-75386345D01*
X116046303Y-75386345D02*
X115951065Y-75338726D01*
X115951065Y-75338726D02*
X115903446Y-75291107D01*
X115903446Y-75291107D02*
X115855827Y-75195869D01*
X115855827Y-75195869D02*
X115855827Y-75100631D01*
X115855827Y-75100631D02*
X115903446Y-75005393D01*
X115903446Y-75005393D02*
X115951065Y-74957774D01*
X115951065Y-74957774D02*
X116046303Y-74910155D01*
X116046303Y-74910155D02*
X116284398Y-74910155D01*
X116284398Y-74910155D02*
X116427255Y-74957774D01*
X116855827Y-75910155D02*
X116855827Y-74910155D01*
X116855827Y-74910155D02*
X117093922Y-74910155D01*
X117093922Y-74910155D02*
X117236779Y-74957774D01*
X117236779Y-74957774D02*
X117332017Y-75053012D01*
X117332017Y-75053012D02*
X117379636Y-75148250D01*
X117379636Y-75148250D02*
X117427255Y-75338726D01*
X117427255Y-75338726D02*
X117427255Y-75481583D01*
X117427255Y-75481583D02*
X117379636Y-75672059D01*
X117379636Y-75672059D02*
X117332017Y-75767297D01*
X117332017Y-75767297D02*
X117236779Y-75862536D01*
X117236779Y-75862536D02*
X117093922Y-75910155D01*
X117093922Y-75910155D02*
X116855827Y-75910155D01*
X117808208Y-75624440D02*
X118284398Y-75624440D01*
X117712970Y-75910155D02*
X118046303Y-74910155D01*
X118046303Y-74910155D02*
X118379636Y-75910155D01*
X118712970Y-75529202D02*
X119474875Y-75529202D01*
X119951065Y-75243488D02*
X120712970Y-75529202D01*
X120712970Y-75529202D02*
X119951065Y-75814916D01*
X121712969Y-74957774D02*
X121617731Y-74910155D01*
X121617731Y-74910155D02*
X121474874Y-74910155D01*
X121474874Y-74910155D02*
X121332017Y-74957774D01*
X121332017Y-74957774D02*
X121236779Y-75053012D01*
X121236779Y-75053012D02*
X121189160Y-75148250D01*
X121189160Y-75148250D02*
X121141541Y-75338726D01*
X121141541Y-75338726D02*
X121141541Y-75481583D01*
X121141541Y-75481583D02*
X121189160Y-75672059D01*
X121189160Y-75672059D02*
X121236779Y-75767297D01*
X121236779Y-75767297D02*
X121332017Y-75862536D01*
X121332017Y-75862536D02*
X121474874Y-75910155D01*
X121474874Y-75910155D02*
X121570112Y-75910155D01*
X121570112Y-75910155D02*
X121712969Y-75862536D01*
X121712969Y-75862536D02*
X121760588Y-75814916D01*
X121760588Y-75814916D02*
X121760588Y-75481583D01*
X121760588Y-75481583D02*
X121570112Y-75481583D01*
X122189160Y-75910155D02*
X122189160Y-74910155D01*
X122189160Y-74910155D02*
X122570112Y-74910155D01*
X122570112Y-74910155D02*
X122665350Y-74957774D01*
X122665350Y-74957774D02*
X122712969Y-75005393D01*
X122712969Y-75005393D02*
X122760588Y-75100631D01*
X122760588Y-75100631D02*
X122760588Y-75243488D01*
X122760588Y-75243488D02*
X122712969Y-75338726D01*
X122712969Y-75338726D02*
X122665350Y-75386345D01*
X122665350Y-75386345D02*
X122570112Y-75433964D01*
X122570112Y-75433964D02*
X122189160Y-75433964D01*
X123189160Y-75910155D02*
X123189160Y-74910155D01*
X123855826Y-74910155D02*
X124046302Y-74910155D01*
X124046302Y-74910155D02*
X124141540Y-74957774D01*
X124141540Y-74957774D02*
X124236778Y-75053012D01*
X124236778Y-75053012D02*
X124284397Y-75243488D01*
X124284397Y-75243488D02*
X124284397Y-75576821D01*
X124284397Y-75576821D02*
X124236778Y-75767297D01*
X124236778Y-75767297D02*
X124141540Y-75862536D01*
X124141540Y-75862536D02*
X124046302Y-75910155D01*
X124046302Y-75910155D02*
X123855826Y-75910155D01*
X123855826Y-75910155D02*
X123760588Y-75862536D01*
X123760588Y-75862536D02*
X123665350Y-75767297D01*
X123665350Y-75767297D02*
X123617731Y-75576821D01*
X123617731Y-75576821D02*
X123617731Y-75243488D01*
X123617731Y-75243488D02*
X123665350Y-75053012D01*
X123665350Y-75053012D02*
X123760588Y-74957774D01*
X123760588Y-74957774D02*
X123855826Y-74910155D01*
X124665350Y-75005393D02*
X124712969Y-74957774D01*
X124712969Y-74957774D02*
X124808207Y-74910155D01*
X124808207Y-74910155D02*
X125046302Y-74910155D01*
X125046302Y-74910155D02*
X125141540Y-74957774D01*
X125141540Y-74957774D02*
X125189159Y-75005393D01*
X125189159Y-75005393D02*
X125236778Y-75100631D01*
X125236778Y-75100631D02*
X125236778Y-75195869D01*
X125236778Y-75195869D02*
X125189159Y-75338726D01*
X125189159Y-75338726D02*
X124617731Y-75910155D01*
X124617731Y-75910155D02*
X125236778Y-75910155D01*
X126141540Y-74910155D02*
X125665350Y-74910155D01*
X125665350Y-74910155D02*
X125617731Y-75386345D01*
X125617731Y-75386345D02*
X125665350Y-75338726D01*
X125665350Y-75338726D02*
X125760588Y-75291107D01*
X125760588Y-75291107D02*
X125998683Y-75291107D01*
X125998683Y-75291107D02*
X126093921Y-75338726D01*
X126093921Y-75338726D02*
X126141540Y-75386345D01*
X126141540Y-75386345D02*
X126189159Y-75481583D01*
X126189159Y-75481583D02*
X126189159Y-75719678D01*
X126189159Y-75719678D02*
X126141540Y-75814916D01*
X126141540Y-75814916D02*
X126093921Y-75862536D01*
X126093921Y-75862536D02*
X125998683Y-75910155D01*
X125998683Y-75910155D02*
X125760588Y-75910155D01*
X125760588Y-75910155D02*
X125665350Y-75862536D01*
X125665350Y-75862536D02*
X125617731Y-75814916D01*
X112189160Y-77472480D02*
X112332017Y-77520099D01*
X112332017Y-77520099D02*
X112570112Y-77520099D01*
X112570112Y-77520099D02*
X112665350Y-77472480D01*
X112665350Y-77472480D02*
X112712969Y-77424860D01*
X112712969Y-77424860D02*
X112760588Y-77329622D01*
X112760588Y-77329622D02*
X112760588Y-77234384D01*
X112760588Y-77234384D02*
X112712969Y-77139146D01*
X112712969Y-77139146D02*
X112665350Y-77091527D01*
X112665350Y-77091527D02*
X112570112Y-77043908D01*
X112570112Y-77043908D02*
X112379636Y-76996289D01*
X112379636Y-76996289D02*
X112284398Y-76948670D01*
X112284398Y-76948670D02*
X112236779Y-76901051D01*
X112236779Y-76901051D02*
X112189160Y-76805813D01*
X112189160Y-76805813D02*
X112189160Y-76710575D01*
X112189160Y-76710575D02*
X112236779Y-76615337D01*
X112236779Y-76615337D02*
X112284398Y-76567718D01*
X112284398Y-76567718D02*
X112379636Y-76520099D01*
X112379636Y-76520099D02*
X112617731Y-76520099D01*
X112617731Y-76520099D02*
X112760588Y-76567718D01*
X113141541Y-77472480D02*
X113284398Y-77520099D01*
X113284398Y-77520099D02*
X113522493Y-77520099D01*
X113522493Y-77520099D02*
X113617731Y-77472480D01*
X113617731Y-77472480D02*
X113665350Y-77424860D01*
X113665350Y-77424860D02*
X113712969Y-77329622D01*
X113712969Y-77329622D02*
X113712969Y-77234384D01*
X113712969Y-77234384D02*
X113665350Y-77139146D01*
X113665350Y-77139146D02*
X113617731Y-77091527D01*
X113617731Y-77091527D02*
X113522493Y-77043908D01*
X113522493Y-77043908D02*
X113332017Y-76996289D01*
X113332017Y-76996289D02*
X113236779Y-76948670D01*
X113236779Y-76948670D02*
X113189160Y-76901051D01*
X113189160Y-76901051D02*
X113141541Y-76805813D01*
X113141541Y-76805813D02*
X113141541Y-76710575D01*
X113141541Y-76710575D02*
X113189160Y-76615337D01*
X113189160Y-76615337D02*
X113236779Y-76567718D01*
X113236779Y-76567718D02*
X113332017Y-76520099D01*
X113332017Y-76520099D02*
X113570112Y-76520099D01*
X113570112Y-76520099D02*
X113712969Y-76567718D01*
X114141541Y-77520099D02*
X114141541Y-76520099D01*
X114141541Y-76520099D02*
X114379636Y-76520099D01*
X114379636Y-76520099D02*
X114522493Y-76567718D01*
X114522493Y-76567718D02*
X114617731Y-76662956D01*
X114617731Y-76662956D02*
X114665350Y-76758194D01*
X114665350Y-76758194D02*
X114712969Y-76948670D01*
X114712969Y-76948670D02*
X114712969Y-77091527D01*
X114712969Y-77091527D02*
X114665350Y-77282003D01*
X114665350Y-77282003D02*
X114617731Y-77377241D01*
X114617731Y-77377241D02*
X114522493Y-77472480D01*
X114522493Y-77472480D02*
X114379636Y-77520099D01*
X114379636Y-77520099D02*
X114141541Y-77520099D01*
X114903446Y-77615337D02*
X115665350Y-77615337D01*
X115855827Y-77472480D02*
X115998684Y-77520099D01*
X115998684Y-77520099D02*
X116236779Y-77520099D01*
X116236779Y-77520099D02*
X116332017Y-77472480D01*
X116332017Y-77472480D02*
X116379636Y-77424860D01*
X116379636Y-77424860D02*
X116427255Y-77329622D01*
X116427255Y-77329622D02*
X116427255Y-77234384D01*
X116427255Y-77234384D02*
X116379636Y-77139146D01*
X116379636Y-77139146D02*
X116332017Y-77091527D01*
X116332017Y-77091527D02*
X116236779Y-77043908D01*
X116236779Y-77043908D02*
X116046303Y-76996289D01*
X116046303Y-76996289D02*
X115951065Y-76948670D01*
X115951065Y-76948670D02*
X115903446Y-76901051D01*
X115903446Y-76901051D02*
X115855827Y-76805813D01*
X115855827Y-76805813D02*
X115855827Y-76710575D01*
X115855827Y-76710575D02*
X115903446Y-76615337D01*
X115903446Y-76615337D02*
X115951065Y-76567718D01*
X115951065Y-76567718D02*
X116046303Y-76520099D01*
X116046303Y-76520099D02*
X116284398Y-76520099D01*
X116284398Y-76520099D02*
X116427255Y-76567718D01*
X117427255Y-77424860D02*
X117379636Y-77472480D01*
X117379636Y-77472480D02*
X117236779Y-77520099D01*
X117236779Y-77520099D02*
X117141541Y-77520099D01*
X117141541Y-77520099D02*
X116998684Y-77472480D01*
X116998684Y-77472480D02*
X116903446Y-77377241D01*
X116903446Y-77377241D02*
X116855827Y-77282003D01*
X116855827Y-77282003D02*
X116808208Y-77091527D01*
X116808208Y-77091527D02*
X116808208Y-76948670D01*
X116808208Y-76948670D02*
X116855827Y-76758194D01*
X116855827Y-76758194D02*
X116903446Y-76662956D01*
X116903446Y-76662956D02*
X116998684Y-76567718D01*
X116998684Y-76567718D02*
X117141541Y-76520099D01*
X117141541Y-76520099D02*
X117236779Y-76520099D01*
X117236779Y-76520099D02*
X117379636Y-76567718D01*
X117379636Y-76567718D02*
X117427255Y-76615337D01*
X118332017Y-77520099D02*
X117855827Y-77520099D01*
X117855827Y-77520099D02*
X117855827Y-76520099D01*
X118665351Y-77139146D02*
X119427256Y-77139146D01*
X119903446Y-76853432D02*
X120665351Y-77139146D01*
X120665351Y-77139146D02*
X119903446Y-77424860D01*
X121665350Y-76567718D02*
X121570112Y-76520099D01*
X121570112Y-76520099D02*
X121427255Y-76520099D01*
X121427255Y-76520099D02*
X121284398Y-76567718D01*
X121284398Y-76567718D02*
X121189160Y-76662956D01*
X121189160Y-76662956D02*
X121141541Y-76758194D01*
X121141541Y-76758194D02*
X121093922Y-76948670D01*
X121093922Y-76948670D02*
X121093922Y-77091527D01*
X121093922Y-77091527D02*
X121141541Y-77282003D01*
X121141541Y-77282003D02*
X121189160Y-77377241D01*
X121189160Y-77377241D02*
X121284398Y-77472480D01*
X121284398Y-77472480D02*
X121427255Y-77520099D01*
X121427255Y-77520099D02*
X121522493Y-77520099D01*
X121522493Y-77520099D02*
X121665350Y-77472480D01*
X121665350Y-77472480D02*
X121712969Y-77424860D01*
X121712969Y-77424860D02*
X121712969Y-77091527D01*
X121712969Y-77091527D02*
X121522493Y-77091527D01*
X122141541Y-77520099D02*
X122141541Y-76520099D01*
X122141541Y-76520099D02*
X122522493Y-76520099D01*
X122522493Y-76520099D02*
X122617731Y-76567718D01*
X122617731Y-76567718D02*
X122665350Y-76615337D01*
X122665350Y-76615337D02*
X122712969Y-76710575D01*
X122712969Y-76710575D02*
X122712969Y-76853432D01*
X122712969Y-76853432D02*
X122665350Y-76948670D01*
X122665350Y-76948670D02*
X122617731Y-76996289D01*
X122617731Y-76996289D02*
X122522493Y-77043908D01*
X122522493Y-77043908D02*
X122141541Y-77043908D01*
X123141541Y-77520099D02*
X123141541Y-76520099D01*
X123808207Y-76520099D02*
X123998683Y-76520099D01*
X123998683Y-76520099D02*
X124093921Y-76567718D01*
X124093921Y-76567718D02*
X124189159Y-76662956D01*
X124189159Y-76662956D02*
X124236778Y-76853432D01*
X124236778Y-76853432D02*
X124236778Y-77186765D01*
X124236778Y-77186765D02*
X124189159Y-77377241D01*
X124189159Y-77377241D02*
X124093921Y-77472480D01*
X124093921Y-77472480D02*
X123998683Y-77520099D01*
X123998683Y-77520099D02*
X123808207Y-77520099D01*
X123808207Y-77520099D02*
X123712969Y-77472480D01*
X123712969Y-77472480D02*
X123617731Y-77377241D01*
X123617731Y-77377241D02*
X123570112Y-77186765D01*
X123570112Y-77186765D02*
X123570112Y-76853432D01*
X123570112Y-76853432D02*
X123617731Y-76662956D01*
X123617731Y-76662956D02*
X123712969Y-76567718D01*
X123712969Y-76567718D02*
X123808207Y-76520099D01*
X124617731Y-76615337D02*
X124665350Y-76567718D01*
X124665350Y-76567718D02*
X124760588Y-76520099D01*
X124760588Y-76520099D02*
X124998683Y-76520099D01*
X124998683Y-76520099D02*
X125093921Y-76567718D01*
X125093921Y-76567718D02*
X125141540Y-76615337D01*
X125141540Y-76615337D02*
X125189159Y-76710575D01*
X125189159Y-76710575D02*
X125189159Y-76805813D01*
X125189159Y-76805813D02*
X125141540Y-76948670D01*
X125141540Y-76948670D02*
X124570112Y-77520099D01*
X124570112Y-77520099D02*
X125189159Y-77520099D01*
X126046302Y-76520099D02*
X125855826Y-76520099D01*
X125855826Y-76520099D02*
X125760588Y-76567718D01*
X125760588Y-76567718D02*
X125712969Y-76615337D01*
X125712969Y-76615337D02*
X125617731Y-76758194D01*
X125617731Y-76758194D02*
X125570112Y-76948670D01*
X125570112Y-76948670D02*
X125570112Y-77329622D01*
X125570112Y-77329622D02*
X125617731Y-77424860D01*
X125617731Y-77424860D02*
X125665350Y-77472480D01*
X125665350Y-77472480D02*
X125760588Y-77520099D01*
X125760588Y-77520099D02*
X125951064Y-77520099D01*
X125951064Y-77520099D02*
X126046302Y-77472480D01*
X126046302Y-77472480D02*
X126093921Y-77424860D01*
X126093921Y-77424860D02*
X126141540Y-77329622D01*
X126141540Y-77329622D02*
X126141540Y-77091527D01*
X126141540Y-77091527D02*
X126093921Y-76996289D01*
X126093921Y-76996289D02*
X126046302Y-76948670D01*
X126046302Y-76948670D02*
X125951064Y-76901051D01*
X125951064Y-76901051D02*
X125760588Y-76901051D01*
X125760588Y-76901051D02*
X125665350Y-76948670D01*
X125665350Y-76948670D02*
X125617731Y-76996289D01*
X125617731Y-76996289D02*
X125570112Y-77091527D01*
X112189160Y-79082424D02*
X112332017Y-79130043D01*
X112332017Y-79130043D02*
X112570112Y-79130043D01*
X112570112Y-79130043D02*
X112665350Y-79082424D01*
X112665350Y-79082424D02*
X112712969Y-79034804D01*
X112712969Y-79034804D02*
X112760588Y-78939566D01*
X112760588Y-78939566D02*
X112760588Y-78844328D01*
X112760588Y-78844328D02*
X112712969Y-78749090D01*
X112712969Y-78749090D02*
X112665350Y-78701471D01*
X112665350Y-78701471D02*
X112570112Y-78653852D01*
X112570112Y-78653852D02*
X112379636Y-78606233D01*
X112379636Y-78606233D02*
X112284398Y-78558614D01*
X112284398Y-78558614D02*
X112236779Y-78510995D01*
X112236779Y-78510995D02*
X112189160Y-78415757D01*
X112189160Y-78415757D02*
X112189160Y-78320519D01*
X112189160Y-78320519D02*
X112236779Y-78225281D01*
X112236779Y-78225281D02*
X112284398Y-78177662D01*
X112284398Y-78177662D02*
X112379636Y-78130043D01*
X112379636Y-78130043D02*
X112617731Y-78130043D01*
X112617731Y-78130043D02*
X112760588Y-78177662D01*
X113093922Y-78130043D02*
X113332017Y-79130043D01*
X113332017Y-79130043D02*
X113522493Y-78415757D01*
X113522493Y-78415757D02*
X113712969Y-79130043D01*
X113712969Y-79130043D02*
X113951065Y-78130043D01*
X114093922Y-79225281D02*
X114855826Y-79225281D01*
X115617731Y-79130043D02*
X115046303Y-79130043D01*
X115332017Y-79130043D02*
X115332017Y-78130043D01*
X115332017Y-78130043D02*
X115236779Y-78272900D01*
X115236779Y-78272900D02*
X115141541Y-78368138D01*
X115141541Y-78368138D02*
X115046303Y-78415757D01*
X116046303Y-78749090D02*
X116808208Y-78749090D01*
X117284398Y-78463376D02*
X118046303Y-78749090D01*
X118046303Y-78749090D02*
X117284398Y-79034804D01*
X119046302Y-78177662D02*
X118951064Y-78130043D01*
X118951064Y-78130043D02*
X118808207Y-78130043D01*
X118808207Y-78130043D02*
X118665350Y-78177662D01*
X118665350Y-78177662D02*
X118570112Y-78272900D01*
X118570112Y-78272900D02*
X118522493Y-78368138D01*
X118522493Y-78368138D02*
X118474874Y-78558614D01*
X118474874Y-78558614D02*
X118474874Y-78701471D01*
X118474874Y-78701471D02*
X118522493Y-78891947D01*
X118522493Y-78891947D02*
X118570112Y-78987185D01*
X118570112Y-78987185D02*
X118665350Y-79082424D01*
X118665350Y-79082424D02*
X118808207Y-79130043D01*
X118808207Y-79130043D02*
X118903445Y-79130043D01*
X118903445Y-79130043D02*
X119046302Y-79082424D01*
X119046302Y-79082424D02*
X119093921Y-79034804D01*
X119093921Y-79034804D02*
X119093921Y-78701471D01*
X119093921Y-78701471D02*
X118903445Y-78701471D01*
X119522493Y-79130043D02*
X119522493Y-78130043D01*
X119522493Y-78130043D02*
X119903445Y-78130043D01*
X119903445Y-78130043D02*
X119998683Y-78177662D01*
X119998683Y-78177662D02*
X120046302Y-78225281D01*
X120046302Y-78225281D02*
X120093921Y-78320519D01*
X120093921Y-78320519D02*
X120093921Y-78463376D01*
X120093921Y-78463376D02*
X120046302Y-78558614D01*
X120046302Y-78558614D02*
X119998683Y-78606233D01*
X119998683Y-78606233D02*
X119903445Y-78653852D01*
X119903445Y-78653852D02*
X119522493Y-78653852D01*
X120522493Y-79130043D02*
X120522493Y-78130043D01*
X121189159Y-78130043D02*
X121379635Y-78130043D01*
X121379635Y-78130043D02*
X121474873Y-78177662D01*
X121474873Y-78177662D02*
X121570111Y-78272900D01*
X121570111Y-78272900D02*
X121617730Y-78463376D01*
X121617730Y-78463376D02*
X121617730Y-78796709D01*
X121617730Y-78796709D02*
X121570111Y-78987185D01*
X121570111Y-78987185D02*
X121474873Y-79082424D01*
X121474873Y-79082424D02*
X121379635Y-79130043D01*
X121379635Y-79130043D02*
X121189159Y-79130043D01*
X121189159Y-79130043D02*
X121093921Y-79082424D01*
X121093921Y-79082424D02*
X120998683Y-78987185D01*
X120998683Y-78987185D02*
X120951064Y-78796709D01*
X120951064Y-78796709D02*
X120951064Y-78463376D01*
X120951064Y-78463376D02*
X120998683Y-78272900D01*
X120998683Y-78272900D02*
X121093921Y-78177662D01*
X121093921Y-78177662D02*
X121189159Y-78130043D01*
X121998683Y-78225281D02*
X122046302Y-78177662D01*
X122046302Y-78177662D02*
X122141540Y-78130043D01*
X122141540Y-78130043D02*
X122379635Y-78130043D01*
X122379635Y-78130043D02*
X122474873Y-78177662D01*
X122474873Y-78177662D02*
X122522492Y-78225281D01*
X122522492Y-78225281D02*
X122570111Y-78320519D01*
X122570111Y-78320519D02*
X122570111Y-78415757D01*
X122570111Y-78415757D02*
X122522492Y-78558614D01*
X122522492Y-78558614D02*
X121951064Y-79130043D01*
X121951064Y-79130043D02*
X122570111Y-79130043D01*
X122903445Y-78130043D02*
X123522492Y-78130043D01*
X123522492Y-78130043D02*
X123189159Y-78510995D01*
X123189159Y-78510995D02*
X123332016Y-78510995D01*
X123332016Y-78510995D02*
X123427254Y-78558614D01*
X123427254Y-78558614D02*
X123474873Y-78606233D01*
X123474873Y-78606233D02*
X123522492Y-78701471D01*
X123522492Y-78701471D02*
X123522492Y-78939566D01*
X123522492Y-78939566D02*
X123474873Y-79034804D01*
X123474873Y-79034804D02*
X123427254Y-79082424D01*
X123427254Y-79082424D02*
X123332016Y-79130043D01*
X123332016Y-79130043D02*
X123046302Y-79130043D01*
X123046302Y-79130043D02*
X122951064Y-79082424D01*
X122951064Y-79082424D02*
X122903445Y-79034804D01*
X112189160Y-80692368D02*
X112332017Y-80739987D01*
X112332017Y-80739987D02*
X112570112Y-80739987D01*
X112570112Y-80739987D02*
X112665350Y-80692368D01*
X112665350Y-80692368D02*
X112712969Y-80644748D01*
X112712969Y-80644748D02*
X112760588Y-80549510D01*
X112760588Y-80549510D02*
X112760588Y-80454272D01*
X112760588Y-80454272D02*
X112712969Y-80359034D01*
X112712969Y-80359034D02*
X112665350Y-80311415D01*
X112665350Y-80311415D02*
X112570112Y-80263796D01*
X112570112Y-80263796D02*
X112379636Y-80216177D01*
X112379636Y-80216177D02*
X112284398Y-80168558D01*
X112284398Y-80168558D02*
X112236779Y-80120939D01*
X112236779Y-80120939D02*
X112189160Y-80025701D01*
X112189160Y-80025701D02*
X112189160Y-79930463D01*
X112189160Y-79930463D02*
X112236779Y-79835225D01*
X112236779Y-79835225D02*
X112284398Y-79787606D01*
X112284398Y-79787606D02*
X112379636Y-79739987D01*
X112379636Y-79739987D02*
X112617731Y-79739987D01*
X112617731Y-79739987D02*
X112760588Y-79787606D01*
X113093922Y-79739987D02*
X113332017Y-80739987D01*
X113332017Y-80739987D02*
X113522493Y-80025701D01*
X113522493Y-80025701D02*
X113712969Y-80739987D01*
X113712969Y-80739987D02*
X113951065Y-79739987D01*
X114093922Y-80835225D02*
X114855826Y-80835225D01*
X115046303Y-79835225D02*
X115093922Y-79787606D01*
X115093922Y-79787606D02*
X115189160Y-79739987D01*
X115189160Y-79739987D02*
X115427255Y-79739987D01*
X115427255Y-79739987D02*
X115522493Y-79787606D01*
X115522493Y-79787606D02*
X115570112Y-79835225D01*
X115570112Y-79835225D02*
X115617731Y-79930463D01*
X115617731Y-79930463D02*
X115617731Y-80025701D01*
X115617731Y-80025701D02*
X115570112Y-80168558D01*
X115570112Y-80168558D02*
X114998684Y-80739987D01*
X114998684Y-80739987D02*
X115617731Y-80739987D01*
X116046303Y-80359034D02*
X116808208Y-80359034D01*
X117284398Y-80073320D02*
X118046303Y-80359034D01*
X118046303Y-80359034D02*
X117284398Y-80644748D01*
X119046302Y-79787606D02*
X118951064Y-79739987D01*
X118951064Y-79739987D02*
X118808207Y-79739987D01*
X118808207Y-79739987D02*
X118665350Y-79787606D01*
X118665350Y-79787606D02*
X118570112Y-79882844D01*
X118570112Y-79882844D02*
X118522493Y-79978082D01*
X118522493Y-79978082D02*
X118474874Y-80168558D01*
X118474874Y-80168558D02*
X118474874Y-80311415D01*
X118474874Y-80311415D02*
X118522493Y-80501891D01*
X118522493Y-80501891D02*
X118570112Y-80597129D01*
X118570112Y-80597129D02*
X118665350Y-80692368D01*
X118665350Y-80692368D02*
X118808207Y-80739987D01*
X118808207Y-80739987D02*
X118903445Y-80739987D01*
X118903445Y-80739987D02*
X119046302Y-80692368D01*
X119046302Y-80692368D02*
X119093921Y-80644748D01*
X119093921Y-80644748D02*
X119093921Y-80311415D01*
X119093921Y-80311415D02*
X118903445Y-80311415D01*
X119522493Y-80739987D02*
X119522493Y-79739987D01*
X119522493Y-79739987D02*
X119903445Y-79739987D01*
X119903445Y-79739987D02*
X119998683Y-79787606D01*
X119998683Y-79787606D02*
X120046302Y-79835225D01*
X120046302Y-79835225D02*
X120093921Y-79930463D01*
X120093921Y-79930463D02*
X120093921Y-80073320D01*
X120093921Y-80073320D02*
X120046302Y-80168558D01*
X120046302Y-80168558D02*
X119998683Y-80216177D01*
X119998683Y-80216177D02*
X119903445Y-80263796D01*
X119903445Y-80263796D02*
X119522493Y-80263796D01*
X120522493Y-80739987D02*
X120522493Y-79739987D01*
X121189159Y-79739987D02*
X121379635Y-79739987D01*
X121379635Y-79739987D02*
X121474873Y-79787606D01*
X121474873Y-79787606D02*
X121570111Y-79882844D01*
X121570111Y-79882844D02*
X121617730Y-80073320D01*
X121617730Y-80073320D02*
X121617730Y-80406653D01*
X121617730Y-80406653D02*
X121570111Y-80597129D01*
X121570111Y-80597129D02*
X121474873Y-80692368D01*
X121474873Y-80692368D02*
X121379635Y-80739987D01*
X121379635Y-80739987D02*
X121189159Y-80739987D01*
X121189159Y-80739987D02*
X121093921Y-80692368D01*
X121093921Y-80692368D02*
X120998683Y-80597129D01*
X120998683Y-80597129D02*
X120951064Y-80406653D01*
X120951064Y-80406653D02*
X120951064Y-80073320D01*
X120951064Y-80073320D02*
X120998683Y-79882844D01*
X120998683Y-79882844D02*
X121093921Y-79787606D01*
X121093921Y-79787606D02*
X121189159Y-79739987D01*
X121998683Y-79835225D02*
X122046302Y-79787606D01*
X122046302Y-79787606D02*
X122141540Y-79739987D01*
X122141540Y-79739987D02*
X122379635Y-79739987D01*
X122379635Y-79739987D02*
X122474873Y-79787606D01*
X122474873Y-79787606D02*
X122522492Y-79835225D01*
X122522492Y-79835225D02*
X122570111Y-79930463D01*
X122570111Y-79930463D02*
X122570111Y-80025701D01*
X122570111Y-80025701D02*
X122522492Y-80168558D01*
X122522492Y-80168558D02*
X121951064Y-80739987D01*
X121951064Y-80739987D02*
X122570111Y-80739987D01*
X122951064Y-79835225D02*
X122998683Y-79787606D01*
X122998683Y-79787606D02*
X123093921Y-79739987D01*
X123093921Y-79739987D02*
X123332016Y-79739987D01*
X123332016Y-79739987D02*
X123427254Y-79787606D01*
X123427254Y-79787606D02*
X123474873Y-79835225D01*
X123474873Y-79835225D02*
X123522492Y-79930463D01*
X123522492Y-79930463D02*
X123522492Y-80025701D01*
X123522492Y-80025701D02*
X123474873Y-80168558D01*
X123474873Y-80168558D02*
X122903445Y-80739987D01*
X122903445Y-80739987D02*
X123522492Y-80739987D01*
X112189160Y-82302312D02*
X112332017Y-82349931D01*
X112332017Y-82349931D02*
X112570112Y-82349931D01*
X112570112Y-82349931D02*
X112665350Y-82302312D01*
X112665350Y-82302312D02*
X112712969Y-82254692D01*
X112712969Y-82254692D02*
X112760588Y-82159454D01*
X112760588Y-82159454D02*
X112760588Y-82064216D01*
X112760588Y-82064216D02*
X112712969Y-81968978D01*
X112712969Y-81968978D02*
X112665350Y-81921359D01*
X112665350Y-81921359D02*
X112570112Y-81873740D01*
X112570112Y-81873740D02*
X112379636Y-81826121D01*
X112379636Y-81826121D02*
X112284398Y-81778502D01*
X112284398Y-81778502D02*
X112236779Y-81730883D01*
X112236779Y-81730883D02*
X112189160Y-81635645D01*
X112189160Y-81635645D02*
X112189160Y-81540407D01*
X112189160Y-81540407D02*
X112236779Y-81445169D01*
X112236779Y-81445169D02*
X112284398Y-81397550D01*
X112284398Y-81397550D02*
X112379636Y-81349931D01*
X112379636Y-81349931D02*
X112617731Y-81349931D01*
X112617731Y-81349931D02*
X112760588Y-81397550D01*
X113093922Y-81349931D02*
X113332017Y-82349931D01*
X113332017Y-82349931D02*
X113522493Y-81635645D01*
X113522493Y-81635645D02*
X113712969Y-82349931D01*
X113712969Y-82349931D02*
X113951065Y-81349931D01*
X114093922Y-82445169D02*
X114855826Y-82445169D01*
X114998684Y-81349931D02*
X115617731Y-81349931D01*
X115617731Y-81349931D02*
X115284398Y-81730883D01*
X115284398Y-81730883D02*
X115427255Y-81730883D01*
X115427255Y-81730883D02*
X115522493Y-81778502D01*
X115522493Y-81778502D02*
X115570112Y-81826121D01*
X115570112Y-81826121D02*
X115617731Y-81921359D01*
X115617731Y-81921359D02*
X115617731Y-82159454D01*
X115617731Y-82159454D02*
X115570112Y-82254692D01*
X115570112Y-82254692D02*
X115522493Y-82302312D01*
X115522493Y-82302312D02*
X115427255Y-82349931D01*
X115427255Y-82349931D02*
X115141541Y-82349931D01*
X115141541Y-82349931D02*
X115046303Y-82302312D01*
X115046303Y-82302312D02*
X114998684Y-82254692D01*
X116046303Y-81968978D02*
X116808208Y-81968978D01*
X117284398Y-81683264D02*
X118046303Y-81968978D01*
X118046303Y-81968978D02*
X117284398Y-82254692D01*
X119046302Y-81397550D02*
X118951064Y-81349931D01*
X118951064Y-81349931D02*
X118808207Y-81349931D01*
X118808207Y-81349931D02*
X118665350Y-81397550D01*
X118665350Y-81397550D02*
X118570112Y-81492788D01*
X118570112Y-81492788D02*
X118522493Y-81588026D01*
X118522493Y-81588026D02*
X118474874Y-81778502D01*
X118474874Y-81778502D02*
X118474874Y-81921359D01*
X118474874Y-81921359D02*
X118522493Y-82111835D01*
X118522493Y-82111835D02*
X118570112Y-82207073D01*
X118570112Y-82207073D02*
X118665350Y-82302312D01*
X118665350Y-82302312D02*
X118808207Y-82349931D01*
X118808207Y-82349931D02*
X118903445Y-82349931D01*
X118903445Y-82349931D02*
X119046302Y-82302312D01*
X119046302Y-82302312D02*
X119093921Y-82254692D01*
X119093921Y-82254692D02*
X119093921Y-81921359D01*
X119093921Y-81921359D02*
X118903445Y-81921359D01*
X119522493Y-82349931D02*
X119522493Y-81349931D01*
X119522493Y-81349931D02*
X119903445Y-81349931D01*
X119903445Y-81349931D02*
X119998683Y-81397550D01*
X119998683Y-81397550D02*
X120046302Y-81445169D01*
X120046302Y-81445169D02*
X120093921Y-81540407D01*
X120093921Y-81540407D02*
X120093921Y-81683264D01*
X120093921Y-81683264D02*
X120046302Y-81778502D01*
X120046302Y-81778502D02*
X119998683Y-81826121D01*
X119998683Y-81826121D02*
X119903445Y-81873740D01*
X119903445Y-81873740D02*
X119522493Y-81873740D01*
X120522493Y-82349931D02*
X120522493Y-81349931D01*
X121189159Y-81349931D02*
X121379635Y-81349931D01*
X121379635Y-81349931D02*
X121474873Y-81397550D01*
X121474873Y-81397550D02*
X121570111Y-81492788D01*
X121570111Y-81492788D02*
X121617730Y-81683264D01*
X121617730Y-81683264D02*
X121617730Y-82016597D01*
X121617730Y-82016597D02*
X121570111Y-82207073D01*
X121570111Y-82207073D02*
X121474873Y-82302312D01*
X121474873Y-82302312D02*
X121379635Y-82349931D01*
X121379635Y-82349931D02*
X121189159Y-82349931D01*
X121189159Y-82349931D02*
X121093921Y-82302312D01*
X121093921Y-82302312D02*
X120998683Y-82207073D01*
X120998683Y-82207073D02*
X120951064Y-82016597D01*
X120951064Y-82016597D02*
X120951064Y-81683264D01*
X120951064Y-81683264D02*
X120998683Y-81492788D01*
X120998683Y-81492788D02*
X121093921Y-81397550D01*
X121093921Y-81397550D02*
X121189159Y-81349931D01*
X122570111Y-82349931D02*
X121998683Y-82349931D01*
X122284397Y-82349931D02*
X122284397Y-81349931D01*
X122284397Y-81349931D02*
X122189159Y-81492788D01*
X122189159Y-81492788D02*
X122093921Y-81588026D01*
X122093921Y-81588026D02*
X121998683Y-81635645D01*
X123046302Y-82349931D02*
X123236778Y-82349931D01*
X123236778Y-82349931D02*
X123332016Y-82302312D01*
X123332016Y-82302312D02*
X123379635Y-82254692D01*
X123379635Y-82254692D02*
X123474873Y-82111835D01*
X123474873Y-82111835D02*
X123522492Y-81921359D01*
X123522492Y-81921359D02*
X123522492Y-81540407D01*
X123522492Y-81540407D02*
X123474873Y-81445169D01*
X123474873Y-81445169D02*
X123427254Y-81397550D01*
X123427254Y-81397550D02*
X123332016Y-81349931D01*
X123332016Y-81349931D02*
X123141540Y-81349931D01*
X123141540Y-81349931D02*
X123046302Y-81397550D01*
X123046302Y-81397550D02*
X122998683Y-81445169D01*
X122998683Y-81445169D02*
X122951064Y-81540407D01*
X122951064Y-81540407D02*
X122951064Y-81778502D01*
X122951064Y-81778502D02*
X122998683Y-81873740D01*
X122998683Y-81873740D02*
X123046302Y-81921359D01*
X123046302Y-81921359D02*
X123141540Y-81968978D01*
X123141540Y-81968978D02*
X123332016Y-81968978D01*
X123332016Y-81968978D02*
X123427254Y-81921359D01*
X123427254Y-81921359D02*
X123474873Y-81873740D01*
X123474873Y-81873740D02*
X123522492Y-81778502D01*
X112189160Y-83912256D02*
X112332017Y-83959875D01*
X112332017Y-83959875D02*
X112570112Y-83959875D01*
X112570112Y-83959875D02*
X112665350Y-83912256D01*
X112665350Y-83912256D02*
X112712969Y-83864636D01*
X112712969Y-83864636D02*
X112760588Y-83769398D01*
X112760588Y-83769398D02*
X112760588Y-83674160D01*
X112760588Y-83674160D02*
X112712969Y-83578922D01*
X112712969Y-83578922D02*
X112665350Y-83531303D01*
X112665350Y-83531303D02*
X112570112Y-83483684D01*
X112570112Y-83483684D02*
X112379636Y-83436065D01*
X112379636Y-83436065D02*
X112284398Y-83388446D01*
X112284398Y-83388446D02*
X112236779Y-83340827D01*
X112236779Y-83340827D02*
X112189160Y-83245589D01*
X112189160Y-83245589D02*
X112189160Y-83150351D01*
X112189160Y-83150351D02*
X112236779Y-83055113D01*
X112236779Y-83055113D02*
X112284398Y-83007494D01*
X112284398Y-83007494D02*
X112379636Y-82959875D01*
X112379636Y-82959875D02*
X112617731Y-82959875D01*
X112617731Y-82959875D02*
X112760588Y-83007494D01*
X113093922Y-82959875D02*
X113332017Y-83959875D01*
X113332017Y-83959875D02*
X113522493Y-83245589D01*
X113522493Y-83245589D02*
X113712969Y-83959875D01*
X113712969Y-83959875D02*
X113951065Y-82959875D01*
X114093922Y-84055113D02*
X114855826Y-84055113D01*
X115522493Y-83293208D02*
X115522493Y-83959875D01*
X115284398Y-82912256D02*
X115046303Y-83626541D01*
X115046303Y-83626541D02*
X115665350Y-83626541D01*
X116046303Y-83578922D02*
X116808208Y-83578922D01*
X117284398Y-83293208D02*
X118046303Y-83578922D01*
X118046303Y-83578922D02*
X117284398Y-83864636D01*
X119046302Y-83007494D02*
X118951064Y-82959875D01*
X118951064Y-82959875D02*
X118808207Y-82959875D01*
X118808207Y-82959875D02*
X118665350Y-83007494D01*
X118665350Y-83007494D02*
X118570112Y-83102732D01*
X118570112Y-83102732D02*
X118522493Y-83197970D01*
X118522493Y-83197970D02*
X118474874Y-83388446D01*
X118474874Y-83388446D02*
X118474874Y-83531303D01*
X118474874Y-83531303D02*
X118522493Y-83721779D01*
X118522493Y-83721779D02*
X118570112Y-83817017D01*
X118570112Y-83817017D02*
X118665350Y-83912256D01*
X118665350Y-83912256D02*
X118808207Y-83959875D01*
X118808207Y-83959875D02*
X118903445Y-83959875D01*
X118903445Y-83959875D02*
X119046302Y-83912256D01*
X119046302Y-83912256D02*
X119093921Y-83864636D01*
X119093921Y-83864636D02*
X119093921Y-83531303D01*
X119093921Y-83531303D02*
X118903445Y-83531303D01*
X119522493Y-83959875D02*
X119522493Y-82959875D01*
X119522493Y-82959875D02*
X119903445Y-82959875D01*
X119903445Y-82959875D02*
X119998683Y-83007494D01*
X119998683Y-83007494D02*
X120046302Y-83055113D01*
X120046302Y-83055113D02*
X120093921Y-83150351D01*
X120093921Y-83150351D02*
X120093921Y-83293208D01*
X120093921Y-83293208D02*
X120046302Y-83388446D01*
X120046302Y-83388446D02*
X119998683Y-83436065D01*
X119998683Y-83436065D02*
X119903445Y-83483684D01*
X119903445Y-83483684D02*
X119522493Y-83483684D01*
X120522493Y-83959875D02*
X120522493Y-82959875D01*
X121189159Y-82959875D02*
X121379635Y-82959875D01*
X121379635Y-82959875D02*
X121474873Y-83007494D01*
X121474873Y-83007494D02*
X121570111Y-83102732D01*
X121570111Y-83102732D02*
X121617730Y-83293208D01*
X121617730Y-83293208D02*
X121617730Y-83626541D01*
X121617730Y-83626541D02*
X121570111Y-83817017D01*
X121570111Y-83817017D02*
X121474873Y-83912256D01*
X121474873Y-83912256D02*
X121379635Y-83959875D01*
X121379635Y-83959875D02*
X121189159Y-83959875D01*
X121189159Y-83959875D02*
X121093921Y-83912256D01*
X121093921Y-83912256D02*
X120998683Y-83817017D01*
X120998683Y-83817017D02*
X120951064Y-83626541D01*
X120951064Y-83626541D02*
X120951064Y-83293208D01*
X120951064Y-83293208D02*
X120998683Y-83102732D01*
X120998683Y-83102732D02*
X121093921Y-83007494D01*
X121093921Y-83007494D02*
X121189159Y-82959875D01*
X121998683Y-83055113D02*
X122046302Y-83007494D01*
X122046302Y-83007494D02*
X122141540Y-82959875D01*
X122141540Y-82959875D02*
X122379635Y-82959875D01*
X122379635Y-82959875D02*
X122474873Y-83007494D01*
X122474873Y-83007494D02*
X122522492Y-83055113D01*
X122522492Y-83055113D02*
X122570111Y-83150351D01*
X122570111Y-83150351D02*
X122570111Y-83245589D01*
X122570111Y-83245589D02*
X122522492Y-83388446D01*
X122522492Y-83388446D02*
X121951064Y-83959875D01*
X121951064Y-83959875D02*
X122570111Y-83959875D01*
X122903445Y-82959875D02*
X123570111Y-82959875D01*
X123570111Y-82959875D02*
X123141540Y-83959875D01*
X112189160Y-85522200D02*
X112332017Y-85569819D01*
X112332017Y-85569819D02*
X112570112Y-85569819D01*
X112570112Y-85569819D02*
X112665350Y-85522200D01*
X112665350Y-85522200D02*
X112712969Y-85474580D01*
X112712969Y-85474580D02*
X112760588Y-85379342D01*
X112760588Y-85379342D02*
X112760588Y-85284104D01*
X112760588Y-85284104D02*
X112712969Y-85188866D01*
X112712969Y-85188866D02*
X112665350Y-85141247D01*
X112665350Y-85141247D02*
X112570112Y-85093628D01*
X112570112Y-85093628D02*
X112379636Y-85046009D01*
X112379636Y-85046009D02*
X112284398Y-84998390D01*
X112284398Y-84998390D02*
X112236779Y-84950771D01*
X112236779Y-84950771D02*
X112189160Y-84855533D01*
X112189160Y-84855533D02*
X112189160Y-84760295D01*
X112189160Y-84760295D02*
X112236779Y-84665057D01*
X112236779Y-84665057D02*
X112284398Y-84617438D01*
X112284398Y-84617438D02*
X112379636Y-84569819D01*
X112379636Y-84569819D02*
X112617731Y-84569819D01*
X112617731Y-84569819D02*
X112760588Y-84617438D01*
X113093922Y-84569819D02*
X113332017Y-85569819D01*
X113332017Y-85569819D02*
X113522493Y-84855533D01*
X113522493Y-84855533D02*
X113712969Y-85569819D01*
X113712969Y-85569819D02*
X113951065Y-84569819D01*
X114093922Y-85665057D02*
X114855826Y-85665057D01*
X115570112Y-84569819D02*
X115093922Y-84569819D01*
X115093922Y-84569819D02*
X115046303Y-85046009D01*
X115046303Y-85046009D02*
X115093922Y-84998390D01*
X115093922Y-84998390D02*
X115189160Y-84950771D01*
X115189160Y-84950771D02*
X115427255Y-84950771D01*
X115427255Y-84950771D02*
X115522493Y-84998390D01*
X115522493Y-84998390D02*
X115570112Y-85046009D01*
X115570112Y-85046009D02*
X115617731Y-85141247D01*
X115617731Y-85141247D02*
X115617731Y-85379342D01*
X115617731Y-85379342D02*
X115570112Y-85474580D01*
X115570112Y-85474580D02*
X115522493Y-85522200D01*
X115522493Y-85522200D02*
X115427255Y-85569819D01*
X115427255Y-85569819D02*
X115189160Y-85569819D01*
X115189160Y-85569819D02*
X115093922Y-85522200D01*
X115093922Y-85522200D02*
X115046303Y-85474580D01*
X116046303Y-85188866D02*
X116808208Y-85188866D01*
X117284398Y-84903152D02*
X118046303Y-85188866D01*
X118046303Y-85188866D02*
X117284398Y-85474580D01*
X119046302Y-84617438D02*
X118951064Y-84569819D01*
X118951064Y-84569819D02*
X118808207Y-84569819D01*
X118808207Y-84569819D02*
X118665350Y-84617438D01*
X118665350Y-84617438D02*
X118570112Y-84712676D01*
X118570112Y-84712676D02*
X118522493Y-84807914D01*
X118522493Y-84807914D02*
X118474874Y-84998390D01*
X118474874Y-84998390D02*
X118474874Y-85141247D01*
X118474874Y-85141247D02*
X118522493Y-85331723D01*
X118522493Y-85331723D02*
X118570112Y-85426961D01*
X118570112Y-85426961D02*
X118665350Y-85522200D01*
X118665350Y-85522200D02*
X118808207Y-85569819D01*
X118808207Y-85569819D02*
X118903445Y-85569819D01*
X118903445Y-85569819D02*
X119046302Y-85522200D01*
X119046302Y-85522200D02*
X119093921Y-85474580D01*
X119093921Y-85474580D02*
X119093921Y-85141247D01*
X119093921Y-85141247D02*
X118903445Y-85141247D01*
X119522493Y-85569819D02*
X119522493Y-84569819D01*
X119522493Y-84569819D02*
X119903445Y-84569819D01*
X119903445Y-84569819D02*
X119998683Y-84617438D01*
X119998683Y-84617438D02*
X120046302Y-84665057D01*
X120046302Y-84665057D02*
X120093921Y-84760295D01*
X120093921Y-84760295D02*
X120093921Y-84903152D01*
X120093921Y-84903152D02*
X120046302Y-84998390D01*
X120046302Y-84998390D02*
X119998683Y-85046009D01*
X119998683Y-85046009D02*
X119903445Y-85093628D01*
X119903445Y-85093628D02*
X119522493Y-85093628D01*
X120522493Y-85569819D02*
X120522493Y-84569819D01*
X121189159Y-84569819D02*
X121379635Y-84569819D01*
X121379635Y-84569819D02*
X121474873Y-84617438D01*
X121474873Y-84617438D02*
X121570111Y-84712676D01*
X121570111Y-84712676D02*
X121617730Y-84903152D01*
X121617730Y-84903152D02*
X121617730Y-85236485D01*
X121617730Y-85236485D02*
X121570111Y-85426961D01*
X121570111Y-85426961D02*
X121474873Y-85522200D01*
X121474873Y-85522200D02*
X121379635Y-85569819D01*
X121379635Y-85569819D02*
X121189159Y-85569819D01*
X121189159Y-85569819D02*
X121093921Y-85522200D01*
X121093921Y-85522200D02*
X120998683Y-85426961D01*
X120998683Y-85426961D02*
X120951064Y-85236485D01*
X120951064Y-85236485D02*
X120951064Y-84903152D01*
X120951064Y-84903152D02*
X120998683Y-84712676D01*
X120998683Y-84712676D02*
X121093921Y-84617438D01*
X121093921Y-84617438D02*
X121189159Y-84569819D01*
X122570111Y-85569819D02*
X121998683Y-85569819D01*
X122284397Y-85569819D02*
X122284397Y-84569819D01*
X122284397Y-84569819D02*
X122189159Y-84712676D01*
X122189159Y-84712676D02*
X122093921Y-84807914D01*
X122093921Y-84807914D02*
X121998683Y-84855533D01*
X122903445Y-84569819D02*
X123522492Y-84569819D01*
X123522492Y-84569819D02*
X123189159Y-84950771D01*
X123189159Y-84950771D02*
X123332016Y-84950771D01*
X123332016Y-84950771D02*
X123427254Y-84998390D01*
X123427254Y-84998390D02*
X123474873Y-85046009D01*
X123474873Y-85046009D02*
X123522492Y-85141247D01*
X123522492Y-85141247D02*
X123522492Y-85379342D01*
X123522492Y-85379342D02*
X123474873Y-85474580D01*
X123474873Y-85474580D02*
X123427254Y-85522200D01*
X123427254Y-85522200D02*
X123332016Y-85569819D01*
X123332016Y-85569819D02*
X123046302Y-85569819D01*
X123046302Y-85569819D02*
X122951064Y-85522200D01*
X122951064Y-85522200D02*
X122903445Y-85474580D01*
X170945350Y-72863152D02*
X170945350Y-73529819D01*
X170516779Y-72863152D02*
X170516779Y-73386961D01*
X170516779Y-73386961D02*
X170564398Y-73482200D01*
X170564398Y-73482200D02*
X170659636Y-73529819D01*
X170659636Y-73529819D02*
X170802493Y-73529819D01*
X170802493Y-73529819D02*
X170897731Y-73482200D01*
X170897731Y-73482200D02*
X170945350Y-73434580D01*
X171421541Y-72863152D02*
X171421541Y-73863152D01*
X171421541Y-72910771D02*
X171516779Y-72863152D01*
X171516779Y-72863152D02*
X171707255Y-72863152D01*
X171707255Y-72863152D02*
X171802493Y-72910771D01*
X171802493Y-72910771D02*
X171850112Y-72958390D01*
X171850112Y-72958390D02*
X171897731Y-73053628D01*
X171897731Y-73053628D02*
X171897731Y-73339342D01*
X171897731Y-73339342D02*
X171850112Y-73434580D01*
X171850112Y-73434580D02*
X171802493Y-73482200D01*
X171802493Y-73482200D02*
X171707255Y-73529819D01*
X171707255Y-73529819D02*
X171516779Y-73529819D01*
X171516779Y-73529819D02*
X171421541Y-73482200D01*
G36*
X137531402Y-113310704D02*
G01*
X137754152Y-113329267D01*
X137773691Y-113094549D01*
X137538485Y-113215450D01*
X137531402Y-113310704D01*
G37*
G36*
X138263642Y-113313635D02*
G01*
X138482240Y-113326336D01*
X138426064Y-113225464D01*
X138276343Y-113097236D01*
X138263642Y-113313635D01*
G37*
G36*
X138027215Y-112918206D02*
G01*
X138027215Y-112919427D01*
X138028436Y-112919427D01*
X138027215Y-112918206D01*
G37*
G36*
X137527250Y-113043258D02*
G01*
X137750000Y-112945073D01*
X137746958Y-112892783D01*
X137741977Y-112836140D01*
X137736502Y-112785824D01*
X137730208Y-112735365D01*
X137723377Y-112686175D01*
X137517480Y-112536943D01*
X137527250Y-113043258D01*
G37*
G36*
X138514480Y-113322184D02*
G01*
X138522784Y-113320718D01*
X138519853Y-113277976D01*
X138444382Y-113228150D01*
X138514480Y-113322184D01*
G37*
G36*
X137492323Y-113228150D02*
G01*
X137730216Y-113114333D01*
X137745603Y-112989281D01*
X137747069Y-112973649D01*
X137513328Y-113040572D01*
X137492323Y-113228150D01*
G37*
G36*
X138034054Y-112919427D02*
G01*
X138034054Y-112920893D01*
X138032833Y-112920893D01*
X137908025Y-113014926D01*
X137870411Y-112918206D01*
X137962735Y-112872533D01*
X137814235Y-112775812D01*
X137625191Y-112302226D01*
X137485240Y-112313461D01*
X137506245Y-112580907D01*
X137720446Y-112717438D01*
X137710398Y-112666958D01*
X137702372Y-112626580D01*
X137707990Y-112626580D01*
X137756838Y-112738932D01*
X137814235Y-112775812D01*
X137870411Y-112918206D01*
X137840858Y-112935303D01*
X137884333Y-113032023D01*
X137908025Y-113014926D01*
X137999127Y-113245247D01*
X138119539Y-113235233D01*
X138181088Y-113011995D01*
X138035519Y-112918206D01*
X138034054Y-112919427D01*
G37*
G36*
X138085833Y-112694724D02*
G01*
X138077529Y-112731849D01*
X138069103Y-112780545D01*
X138060676Y-112831256D01*
X138154466Y-112777278D01*
X138085833Y-112694724D01*
G37*
G36*
X138498848Y-112615101D02*
G01*
X138388450Y-112666392D01*
X138276343Y-112697655D01*
X138270725Y-112721835D01*
X138388450Y-112666392D01*
X138496161Y-112637815D01*
X138498848Y-112615101D01*
G37*
G36*
X137850628Y-112902575D02*
G01*
X137803000Y-112757250D01*
X137947348Y-112859832D01*
X137985205Y-112844200D01*
X137969645Y-112794091D01*
X137953593Y-112745160D01*
X137945882Y-112723300D01*
X137768073Y-112270963D01*
X137637892Y-112275115D01*
X137803000Y-112757250D01*
X137747069Y-112718904D01*
X137794696Y-112854214D01*
X137821318Y-112918206D01*
X137850628Y-112902575D01*
X137884333Y-113000516D01*
X137860397Y-113016147D01*
X137947348Y-113236699D01*
X137964200Y-113235233D01*
X137884333Y-113000516D01*
X138014515Y-112913810D01*
X138008897Y-112913810D01*
X138004745Y-112902575D01*
X137947348Y-112859832D01*
X137850628Y-112902575D01*
G37*
G36*
X137993510Y-112929441D02*
G01*
X137976986Y-112882272D01*
X137972505Y-112869846D01*
X137934647Y-112886699D01*
X137993510Y-112929441D01*
G37*
G36*
X138164235Y-112814159D02*
G01*
X138209176Y-112866915D01*
X138214794Y-112838339D01*
X138231646Y-112758715D01*
X138164235Y-112814159D01*
X138133461Y-112780209D01*
X138041137Y-112834187D01*
X138033498Y-112885327D01*
X138025750Y-112929441D01*
X138027215Y-112929441D01*
X138164235Y-112814159D01*
G37*
G36*
X138186706Y-112901109D02*
G01*
X138153244Y-112839804D01*
X138231646Y-112801458D01*
X138248255Y-112763112D01*
X138130774Y-112799993D01*
X138153244Y-112839804D01*
X137994975Y-112922358D01*
X138123691Y-113037641D01*
X138186706Y-112901109D01*
G37*
G36*
X138274877Y-112996364D02*
G01*
X138277808Y-113121416D01*
X138435833Y-113236699D01*
X138274877Y-112996364D01*
G37*
G36*
X138510083Y-112666392D02*
G01*
X138402372Y-112694724D01*
X138513014Y-112644898D01*
X138557711Y-112307843D01*
X138289043Y-112270963D01*
X138087299Y-112669078D01*
X138132240Y-112767264D01*
X138251186Y-112736001D01*
X138314200Y-112606552D01*
X138321039Y-112608018D01*
X138308702Y-112655865D01*
X138295520Y-112706087D01*
X138290265Y-112725987D01*
X138402372Y-112694724D01*
X138284647Y-112748946D01*
X138272858Y-112798886D01*
X138261644Y-112848899D01*
X138251648Y-112897374D01*
X138242542Y-112948824D01*
X138239951Y-112966566D01*
X138237020Y-112987815D01*
X138360362Y-113250865D01*
X138423377Y-113313635D01*
X138510083Y-112666392D01*
G37*
G36*
X138827110Y-113016147D02*
G01*
X138817341Y-113003447D01*
X138863503Y-112413112D01*
X138956071Y-112505680D01*
X138943370Y-112894026D01*
X139006385Y-112825638D01*
X139034473Y-112580907D01*
X138956071Y-112505680D01*
X138965840Y-112262414D01*
X138876203Y-112250935D01*
X138863503Y-112413112D01*
X138807571Y-112356203D01*
X138744556Y-112920893D01*
X138817341Y-113003447D01*
X138814654Y-113029092D01*
X138722086Y-113127278D01*
X138702547Y-113298004D01*
X138792184Y-113307773D01*
X138814654Y-113029092D01*
X138827110Y-113016147D01*
G37*
G36*
X138961688Y-113324870D02*
G01*
X138983914Y-113326336D01*
X138999302Y-113178325D01*
X138965840Y-113141444D01*
X138961688Y-113324870D01*
G37*
G36*
X138962909Y-113158541D02*
G01*
X138920900Y-112913810D01*
X138831263Y-113058890D01*
X138962909Y-113158541D01*
G37*
G36*
X138995150Y-113160006D02*
G01*
X139034473Y-113189804D01*
X138996615Y-112837117D01*
X138948988Y-112916741D01*
X138995150Y-113160006D01*
G37*
G36*
X138981228Y-113354912D02*
G01*
X138971458Y-113172707D01*
X138851046Y-113057424D01*
X138839811Y-113071835D01*
X138841277Y-113046189D01*
X138851046Y-113057424D01*
X138956071Y-112923824D01*
X138935066Y-112536943D01*
X139019085Y-112605087D01*
X139025924Y-112295143D01*
X138922365Y-112293677D01*
X138935066Y-112536943D01*
X138835659Y-112452923D01*
X138832728Y-112290746D01*
X138775331Y-112289281D01*
X138772644Y-112401632D01*
X138835659Y-112452923D01*
X138841277Y-113046189D01*
X138761409Y-112969253D01*
X138757257Y-113177103D01*
X138839811Y-113071835D01*
X138842498Y-113351981D01*
X138981228Y-113354912D01*
G37*
G36*
X139470690Y-113024696D02*
G01*
X139466538Y-112973649D01*
X139461016Y-112922803D01*
X139455303Y-112876929D01*
X139217166Y-112858367D01*
X139238171Y-113097236D01*
X139457990Y-113032023D01*
X139243789Y-113172707D01*
X139259176Y-113344898D01*
X139497313Y-113323649D01*
X139470690Y-113029092D01*
X139457990Y-113032023D01*
X139470690Y-113024696D01*
G37*
G36*
X139858548Y-112952156D02*
G01*
X139868928Y-113000103D01*
X139869783Y-113004912D01*
X139862700Y-113004912D01*
X139837543Y-112959483D01*
X139652651Y-113014926D01*
X139850000Y-113324870D01*
X140103524Y-113299469D01*
X140069818Y-112952156D01*
X139899092Y-112939455D01*
X139858548Y-112952156D01*
G37*
G36*
X139280181Y-112852749D02*
G01*
X139488764Y-112746015D01*
X139476910Y-112695512D01*
X139464413Y-112646581D01*
X139456524Y-112615101D01*
X139463607Y-112613635D01*
X139532240Y-112724766D01*
X139702965Y-112640746D01*
X139576936Y-112457320D01*
X139231332Y-112472951D01*
X139280181Y-112852749D01*
G37*
G36*
X139822156Y-112609483D02*
G01*
X140061514Y-112531081D01*
X140061514Y-112506901D01*
X139823377Y-112482721D01*
X139822156Y-112609483D01*
G37*
G36*
X139497313Y-112855436D02*
G01*
X139486403Y-112807183D01*
X139474947Y-112758554D01*
X139463259Y-112710176D01*
X139460921Y-112700586D01*
X139253558Y-112805854D01*
X139259176Y-112848353D01*
X139497313Y-112855436D01*
G37*
G36*
X139840230Y-112953621D02*
G01*
X139810921Y-112875464D01*
X139707362Y-112925289D01*
X139840230Y-112953621D01*
G37*
G36*
X140060048Y-112984884D02*
G01*
X140065666Y-112923824D01*
X139893475Y-112942386D01*
X140060048Y-112984884D01*
G37*
G36*
X139586950Y-112884012D02*
G01*
X139605024Y-112937990D01*
X139676343Y-112912344D01*
X139586950Y-112884012D01*
G37*
G36*
X139768911Y-112774347D02*
G01*
X139698813Y-112643677D01*
X139519539Y-112708890D01*
X139571563Y-112821486D01*
X139614794Y-112902575D01*
X139708583Y-112915275D01*
X139807990Y-112859832D01*
X139768911Y-112774347D01*
G37*
G36*
X140036357Y-112519846D02*
G01*
X139801151Y-112610949D01*
X139802372Y-112636350D01*
X139805345Y-112687942D01*
X139809852Y-112741527D01*
X139815870Y-112795890D01*
X139823377Y-112849818D01*
X140043196Y-112721835D01*
X140036357Y-112519846D01*
G37*
G36*
X139486078Y-113037641D02*
G01*
X139474842Y-113044724D01*
X139252337Y-113101632D01*
X139256489Y-113177103D01*
X139474842Y-113044724D01*
X139487543Y-113041793D01*
X139486078Y-113037641D01*
G37*
G36*
X139824842Y-112939455D02*
G01*
X139689043Y-112933838D01*
X139626029Y-112977801D01*
X139655338Y-113023475D01*
X139838764Y-112962170D01*
X139824842Y-112939455D01*
G37*
G36*
X139834612Y-112956552D02*
G01*
X139836078Y-112972184D01*
X139878087Y-112965101D01*
X139834612Y-112956552D01*
G37*
G36*
X140089602Y-112741618D02*
G01*
X139865387Y-112858367D01*
X139868628Y-112907831D01*
X139873991Y-112958157D01*
X139875157Y-112967787D01*
X139918632Y-112976336D01*
X140088136Y-112945073D01*
X140089602Y-112741618D01*
G37*
G36*
X139490230Y-112296364D02*
G01*
X139235484Y-112287815D01*
X139231332Y-112434361D01*
X139575715Y-112475638D01*
X139490230Y-112296364D01*
G37*
G36*
X140054431Y-112283663D02*
G01*
X139817759Y-112262414D01*
X139801151Y-112461472D01*
X140036357Y-112501284D01*
X140054431Y-112283663D01*
G37*
G36*
X140620586Y-113376161D02*
G01*
X140575889Y-113157076D01*
X140540963Y-113152923D01*
X140550732Y-113057424D01*
X140469399Y-113006378D01*
X140291591Y-113340502D01*
X140620586Y-113376161D01*
G37*
G36*
X140557571Y-113020544D02*
G01*
X140556350Y-113003447D01*
X140498953Y-112876929D01*
X140467934Y-112987815D01*
X140557571Y-113020544D01*
G37*
G36*
X140994521Y-113120195D02*
G01*
X140762002Y-113114333D01*
X140993056Y-113236699D01*
X140994521Y-113120195D01*
G37*
G36*
X140547801Y-113007843D02*
G01*
X140545115Y-112895247D01*
X140630355Y-112892561D01*
X140608129Y-112680558D01*
X140577355Y-112680558D01*
X140501639Y-112876929D01*
X140547801Y-113007843D01*
G37*
G36*
X140591277Y-113105785D02*
G01*
X140648674Y-113320718D01*
X140668213Y-113322184D01*
X140659909Y-113107250D01*
X140591277Y-113105785D01*
G37*
G36*
X140955198Y-112484187D02*
G01*
X140952512Y-112448771D01*
X140813782Y-112495666D01*
X140955198Y-112484187D01*
G37*
G36*
X140878262Y-112896713D02*
G01*
X140903419Y-112684710D01*
X140626203Y-112651981D01*
X140616434Y-112865450D01*
X140878262Y-112896713D01*
G37*
G36*
X140980600Y-113339281D02*
G01*
X140983286Y-113242561D01*
X140755163Y-113117264D01*
X140666748Y-113113112D01*
X140675296Y-113327801D01*
X140980600Y-113339281D01*
G37*
G36*
X140333600Y-112265101D02*
G01*
X140311130Y-112262414D01*
X140270586Y-112603621D01*
X140392463Y-112587990D01*
X140333600Y-112265101D01*
G37*
G36*
X140528262Y-112499818D02*
G01*
X140582972Y-112504214D01*
X140582972Y-112292212D01*
X140318213Y-112269497D01*
X140389532Y-112589455D01*
X140522644Y-112568206D01*
X140528262Y-112499818D01*
G37*
G36*
X140827948Y-112491270D02*
G01*
X140972051Y-112470020D01*
X140988904Y-112293677D01*
X140785938Y-112273649D01*
X140679448Y-112475638D01*
X140827948Y-112491270D01*
G37*
G36*
X140333600Y-112884012D02*
G01*
X140279134Y-113315101D01*
X140300139Y-113317787D01*
X140486252Y-112987815D01*
X140333600Y-112884012D01*
G37*
G36*
X140425924Y-112596538D02*
G01*
X140311130Y-112639281D01*
X140342149Y-112920893D01*
X140515561Y-112984884D01*
X140546336Y-112873998D01*
X140425924Y-112596538D01*
G37*
G36*
X140542184Y-112673475D02*
G01*
X140529727Y-112546957D01*
X140402233Y-112592386D01*
X140518492Y-112871067D01*
X140580041Y-112670544D01*
X140542184Y-112673475D01*
G37*
G36*
X140584193Y-112252400D02*
G01*
X140584193Y-112465868D01*
X140648674Y-112470020D01*
X140750767Y-112265101D01*
X140584193Y-112252400D01*
G37*
G36*
X142036461Y-112713286D02*
G01*
X141931437Y-112761646D01*
X141925819Y-112780209D01*
X142001535Y-112757250D01*
X141882588Y-112908192D01*
X141874040Y-112936524D01*
X141928750Y-112962170D01*
X141692079Y-113341967D01*
X141937055Y-113363461D01*
X142066015Y-113027627D01*
X141928750Y-112962170D01*
X142070167Y-112737466D01*
X142001535Y-112757250D01*
X142036461Y-112713286D01*
G37*
G36*
X141596824Y-112958018D02*
G01*
X141749476Y-112862519D01*
X141811025Y-112884012D01*
X141796675Y-112835927D01*
X141795638Y-112832721D01*
X141749476Y-112862519D01*
X141721632Y-112854214D01*
X141581437Y-112913810D01*
X141596824Y-112958018D01*
G37*
G36*
X141934368Y-112952156D02*
G01*
X141875505Y-112935303D01*
X141868386Y-112986861D01*
X141860825Y-113038647D01*
X141852497Y-113090890D01*
X141847418Y-113120195D01*
X141840579Y-113121416D01*
X141823877Y-113074109D01*
X141811025Y-113033244D01*
X141674005Y-113285059D01*
X141707466Y-113372009D01*
X141763642Y-113366147D01*
X141934368Y-112952156D01*
X142081402Y-112993433D01*
X142150034Y-112649295D01*
X142035240Y-112706203D01*
X141934368Y-112952156D01*
G37*
G36*
X142112177Y-112669078D02*
G01*
X142229658Y-112376231D01*
X142051849Y-112711821D01*
X142112177Y-112669078D01*
G37*
G36*
X142087020Y-112619497D02*
G01*
X142201814Y-112559658D01*
X142302686Y-112260949D01*
X142242358Y-112344724D01*
X142087020Y-112619497D01*
G37*
G36*
X141710397Y-112841270D02*
G01*
X141566050Y-112950935D01*
X141695010Y-113238164D01*
X141819574Y-112982198D01*
X141802263Y-112934190D01*
X141784952Y-112886645D01*
X141773412Y-112855436D01*
X141710397Y-112841270D01*
X141753628Y-112807076D01*
X141749476Y-112797306D01*
X141680844Y-112835652D01*
X141710397Y-112841270D01*
G37*
G36*
X142309525Y-112287815D02*
G01*
X142070167Y-112258018D01*
X141904815Y-112703272D01*
X142012770Y-112657843D01*
X142256280Y-112367683D01*
X142309525Y-112287815D01*
G37*
G36*
X142270446Y-112273649D02*
G01*
X142229658Y-112363286D01*
X142282903Y-112273649D01*
X142270446Y-112273649D01*
G37*
G36*
X141501814Y-112780209D02*
G01*
X141536741Y-112903796D01*
X141678157Y-112851284D01*
X141501814Y-112780209D01*
G37*
G36*
X141753628Y-112805854D02*
G01*
X141743607Y-112756276D01*
X141741172Y-112747480D01*
X141631995Y-112262414D01*
X141367236Y-112255331D01*
X141504501Y-112760181D01*
X141679623Y-112831256D01*
X141753628Y-112805854D01*
G37*
G36*
X142103872Y-112666392D02*
G01*
X142035240Y-112694724D01*
X141998848Y-112737466D01*
X141921667Y-112756029D01*
X141920446Y-112760181D01*
X141902414Y-112806540D01*
X141885413Y-112852436D01*
X141874040Y-112882547D01*
X141998848Y-112737466D01*
X142067236Y-112720369D01*
X142103872Y-112666392D01*
G37*
G36*
X142196196Y-112598004D02*
G01*
X142088241Y-112670544D01*
X142063084Y-112730383D01*
X142179344Y-112674940D01*
X142196196Y-112598004D01*
G37*
G36*
X142722051Y-113376161D02*
G01*
X142677355Y-113157076D01*
X142642428Y-113152923D01*
X142652198Y-113057424D01*
X142570865Y-113006378D01*
X142393056Y-113340502D01*
X142722051Y-113376161D01*
G37*
G36*
X142659036Y-113020544D02*
G01*
X142657815Y-113003447D01*
X142600418Y-112876929D01*
X142569399Y-112987815D01*
X142659036Y-113020544D01*
G37*
G36*
X143095987Y-113120195D02*
G01*
X142863468Y-113114333D01*
X143094521Y-113236699D01*
X143095987Y-113120195D01*
G37*
G36*
X142649267Y-113007843D02*
G01*
X142646580Y-112895247D01*
X142731821Y-112892561D01*
X142709595Y-112680558D01*
X142678820Y-112680558D01*
X142603105Y-112876929D01*
X142649267Y-113007843D01*
G37*
G36*
X142692742Y-113105785D02*
G01*
X142750139Y-113320718D01*
X142769678Y-113322184D01*
X142761374Y-113107250D01*
X142692742Y-113105785D01*
G37*
G36*
X143056664Y-112484187D02*
G01*
X143053977Y-112448771D01*
X142915247Y-112495666D01*
X143056664Y-112484187D01*
G37*
G36*
X142979727Y-112896713D02*
G01*
X143004884Y-112684710D01*
X142727669Y-112651981D01*
X142717899Y-112865450D01*
X142979727Y-112896713D01*
G37*
G36*
X143082065Y-113339281D02*
G01*
X143084752Y-113242561D01*
X142856629Y-113117264D01*
X142768213Y-113113112D01*
X142776762Y-113327801D01*
X143082065Y-113339281D01*
G37*
G36*
X142435066Y-112265101D02*
G01*
X142412595Y-112262414D01*
X142372051Y-112603621D01*
X142493928Y-112587990D01*
X142435066Y-112265101D01*
G37*
G36*
X142629727Y-112499818D02*
G01*
X142684438Y-112504214D01*
X142684438Y-112292212D01*
X142419678Y-112269497D01*
X142490997Y-112589455D01*
X142624110Y-112568206D01*
X142629727Y-112499818D01*
G37*
G36*
X142929413Y-112491270D02*
G01*
X143073517Y-112470020D01*
X143090369Y-112293677D01*
X142887404Y-112273649D01*
X142780914Y-112475638D01*
X142929413Y-112491270D01*
G37*
G36*
X142435066Y-112884012D02*
G01*
X142380600Y-113315101D01*
X142401605Y-113317787D01*
X142587718Y-112987815D01*
X142435066Y-112884012D01*
G37*
G36*
X142527390Y-112596538D02*
G01*
X142412595Y-112639281D01*
X142443614Y-112920893D01*
X142617027Y-112984884D01*
X142647801Y-112873998D01*
X142527390Y-112596538D01*
G37*
G36*
X142643649Y-112673475D02*
G01*
X142631193Y-112546957D01*
X142503698Y-112592386D01*
X142619958Y-112871067D01*
X142681507Y-112670544D01*
X142643649Y-112673475D01*
G37*
G36*
X142685659Y-112252400D02*
G01*
X142685659Y-112465868D01*
X142750139Y-112470020D01*
X142852233Y-112265101D01*
X142685659Y-112252400D01*
G37*
G36*
X143730774Y-113339281D02*
G01*
X143781118Y-113322417D01*
X143826572Y-113300974D01*
X143879399Y-113266024D01*
X143923121Y-113224770D01*
X143957504Y-113178263D01*
X143982312Y-113127553D01*
X143997312Y-113073689D01*
X144002268Y-113017724D01*
X144000907Y-112989281D01*
X143991902Y-112933457D01*
X143975636Y-112884536D01*
X143946990Y-112834339D01*
X143908916Y-112792720D01*
X143861974Y-112758935D01*
X143826029Y-112740397D01*
X143730774Y-113339281D01*
G37*
G36*
X143984298Y-112413112D02*
G01*
X143958897Y-112393084D01*
X143946441Y-112468555D01*
X143984298Y-112413112D01*
G37*
G36*
X143292602Y-112428743D02*
G01*
X143272028Y-112473193D01*
X143259830Y-112520970D01*
X143256210Y-112566741D01*
X143260014Y-112617116D01*
X143271990Y-112666706D01*
X143285519Y-112700586D01*
X143330216Y-112703272D01*
X143292602Y-112428743D01*
G37*
G36*
X143369539Y-113034710D02*
G01*
X143348534Y-113020544D01*
X143223970Y-113209832D01*
X143267488Y-113239963D01*
X143313437Y-113265333D01*
X143361371Y-113286017D01*
X143410845Y-113302092D01*
X143439637Y-113309239D01*
X143369539Y-113034710D01*
G37*
G36*
X143649441Y-113144375D02*
G01*
X143600331Y-113153605D01*
X143592044Y-113154145D01*
X143542063Y-113153063D01*
X143501186Y-113145596D01*
X143544661Y-113374696D01*
X143594120Y-113373816D01*
X143603279Y-113373230D01*
X143625750Y-113372009D01*
X143649441Y-113144375D01*
G37*
G36*
X143809176Y-112506901D02*
G01*
X143854316Y-112530506D01*
X143874877Y-112544026D01*
X143950593Y-112431674D01*
X143965980Y-112357669D01*
X143924082Y-112328340D01*
X143879652Y-112304358D01*
X143837264Y-112286594D01*
X143809176Y-112506901D01*
G37*
G36*
X143299441Y-112743084D02*
G01*
X143330397Y-112782025D01*
X143362456Y-112811472D01*
X143342916Y-112740397D01*
X143299441Y-112743084D01*
G37*
G36*
X143478715Y-112696189D02*
G01*
X143480181Y-112854214D01*
X143581053Y-112909658D01*
X143625180Y-112933876D01*
X143666782Y-112959663D01*
X143676064Y-112966566D01*
X143742009Y-112734535D01*
X143802093Y-112743084D01*
X143795254Y-112738932D01*
X143748848Y-112714752D01*
X143742009Y-112734535D01*
X143478715Y-112696189D01*
X143471632Y-112275115D01*
X143424784Y-112297463D01*
X143383155Y-112325673D01*
X143347298Y-112359195D01*
X143317759Y-112397480D01*
X143331681Y-112674940D01*
X143478715Y-112696189D01*
G37*
G36*
X143358304Y-112773126D02*
G01*
X143395018Y-112810100D01*
X143436603Y-112841695D01*
X143476029Y-112865450D01*
X143502651Y-112878394D01*
X143499720Y-112720369D01*
X143764480Y-112756029D01*
X143698534Y-112989281D01*
X143732933Y-113025669D01*
X143740544Y-113065973D01*
X143721247Y-113113427D01*
X143678179Y-113140242D01*
X143655059Y-113145596D01*
X143594975Y-113364682D01*
X143645150Y-113365329D01*
X143669225Y-113363461D01*
X143869260Y-112791444D01*
X143826225Y-112766194D01*
X143823098Y-112764577D01*
X143764480Y-112756029D01*
X143769853Y-112737466D01*
X143691451Y-112697655D01*
X143644794Y-112673470D01*
X143599362Y-112647301D01*
X143559396Y-112612169D01*
X143545882Y-112563810D01*
X143565401Y-112516982D01*
X143612615Y-112491725D01*
X143661969Y-112487651D01*
X143676064Y-112488583D01*
X143726351Y-112497590D01*
X143776789Y-112515884D01*
X143823098Y-112542561D01*
X143884891Y-112329092D01*
X143838146Y-112307217D01*
X143790827Y-112290563D01*
X143743280Y-112278946D01*
X143695847Y-112272184D01*
X143647012Y-112270124D01*
X143593529Y-112273705D01*
X143542925Y-112282958D01*
X143495613Y-112297198D01*
X143489951Y-112299295D01*
X143499720Y-112720369D01*
X143352686Y-112699120D01*
X143358304Y-112773126D01*
G37*
G36*
X143411549Y-113319253D02*
G01*
X143460960Y-113334975D01*
X143512366Y-113346759D01*
X143536113Y-113350516D01*
X143518039Y-113118729D01*
X143471947Y-113100129D01*
X143426884Y-113074739D01*
X143384594Y-113044216D01*
X143376622Y-113037641D01*
X143411549Y-113319253D01*
G37*
G36*
X144446894Y-113322184D02*
G01*
X144443963Y-113023475D01*
X144367027Y-113033244D01*
X144232693Y-113323649D01*
X144446894Y-113322184D01*
G37*
G36*
X144630321Y-112754563D02*
G01*
X144590997Y-112771660D01*
X144578541Y-112830034D01*
X144409036Y-112901109D01*
X144344556Y-113050341D01*
X144420272Y-113039106D01*
X144418806Y-112986350D01*
X144540683Y-112982198D01*
X144546301Y-112982198D01*
X144578541Y-112830034D01*
X144673796Y-112789979D01*
X144630321Y-112754563D01*
G37*
G36*
X144179448Y-113084535D02*
G01*
X144154291Y-113351981D01*
X144190683Y-113354912D01*
X144354570Y-113078918D01*
X144179448Y-113084535D01*
G37*
G36*
X144204605Y-112958018D02*
G01*
X144196301Y-113032023D01*
X144372644Y-113033244D01*
X144458129Y-112896713D01*
X144204605Y-112958018D01*
G37*
G36*
X144193370Y-112987815D02*
G01*
X144425889Y-112866915D01*
X144469364Y-112747480D01*
X144421737Y-112751632D01*
X144397801Y-112535478D01*
X144124738Y-112343503D01*
X144193370Y-112987815D01*
G37*
G36*
X144584159Y-112848353D02*
G01*
X144600767Y-112789979D01*
X144551221Y-112797425D01*
X144529448Y-112797306D01*
X144469364Y-112797306D01*
X144410502Y-112911123D01*
X144584159Y-112848353D01*
X144543370Y-112999295D01*
X144598615Y-112997002D01*
X144652099Y-112990021D01*
X144703193Y-112978197D01*
X144751270Y-112961376D01*
X144795703Y-112939403D01*
X144809595Y-112930907D01*
X144682100Y-112812937D01*
X144584159Y-112848353D01*
G37*
G36*
X144756350Y-112322009D02*
G01*
X144738032Y-112317857D01*
X144637404Y-112505680D01*
X144683295Y-112526081D01*
X144693335Y-112534012D01*
X144756350Y-112322009D01*
G37*
G36*
X144417585Y-112461472D02*
G01*
X144519678Y-112472951D01*
X144568727Y-112481029D01*
X144605163Y-112491270D01*
X144718492Y-112312240D01*
X144670923Y-112296490D01*
X144620385Y-112284078D01*
X144567056Y-112275046D01*
X144556071Y-112273649D01*
X144192149Y-112231151D01*
X144183600Y-112299295D01*
X144407571Y-112548178D01*
X144417585Y-112461472D01*
G37*
G36*
X144924389Y-112697655D02*
G01*
X144934143Y-112649204D01*
X144936845Y-112626580D01*
X144938491Y-112576283D01*
X144932693Y-112515640D01*
X144918394Y-112462043D01*
X144896282Y-112415175D01*
X144867049Y-112374717D01*
X144831384Y-112340352D01*
X144789977Y-112311763D01*
X144743516Y-112288631D01*
X144731193Y-112283663D01*
X144658408Y-112492735D01*
X144687406Y-112536230D01*
X144695571Y-112586024D01*
X144694801Y-112603621D01*
X144684761Y-112654053D01*
X144661336Y-112698322D01*
X144620961Y-112731732D01*
X144612002Y-112736001D01*
X144651325Y-112775812D01*
X144924389Y-112697655D01*
G37*
G36*
X144838904Y-112894026D02*
G01*
X144880796Y-112858037D01*
X144915859Y-112815341D01*
X144943296Y-112765757D01*
X144960139Y-112717632D01*
X144969085Y-112673475D01*
X144705792Y-112781430D01*
X144838904Y-112894026D01*
G37*
G36*
X145458548Y-113376161D02*
G01*
X145413852Y-113157076D01*
X145378925Y-113152923D01*
X145388695Y-113057424D01*
X145307362Y-113006378D01*
X145129553Y-113340502D01*
X145458548Y-113376161D01*
G37*
G36*
X145395533Y-113020544D02*
G01*
X145394312Y-113003447D01*
X145336915Y-112876929D01*
X145305896Y-112987815D01*
X145395533Y-113020544D01*
G37*
G36*
X145832484Y-113120195D02*
G01*
X145599965Y-113114333D01*
X145831018Y-113236699D01*
X145832484Y-113120195D01*
G37*
G36*
X145385764Y-113007843D02*
G01*
X145383077Y-112895247D01*
X145468318Y-112892561D01*
X145446092Y-112680558D01*
X145415317Y-112680558D01*
X145339602Y-112876929D01*
X145385764Y-113007843D01*
G37*
G36*
X145429239Y-113105785D02*
G01*
X145486636Y-113320718D01*
X145506175Y-113322184D01*
X145497871Y-113107250D01*
X145429239Y-113105785D01*
G37*
G36*
X145793161Y-112484187D02*
G01*
X145790474Y-112448771D01*
X145651744Y-112495666D01*
X145793161Y-112484187D01*
G37*
G36*
X145716224Y-112896713D02*
G01*
X145741381Y-112684710D01*
X145464166Y-112651981D01*
X145454396Y-112865450D01*
X145716224Y-112896713D01*
G37*
G36*
X145818562Y-113339281D02*
G01*
X145821249Y-113242561D01*
X145593126Y-113117264D01*
X145504710Y-113113112D01*
X145513258Y-113327801D01*
X145818562Y-113339281D01*
G37*
G36*
X145171563Y-112265101D02*
G01*
X145149092Y-112262414D01*
X145108548Y-112603621D01*
X145230425Y-112587990D01*
X145171563Y-112265101D01*
G37*
G36*
X145366224Y-112499818D02*
G01*
X145420935Y-112504214D01*
X145420935Y-112292212D01*
X145156175Y-112269497D01*
X145227494Y-112589455D01*
X145360607Y-112568206D01*
X145366224Y-112499818D01*
G37*
G36*
X145665910Y-112491270D02*
G01*
X145810013Y-112470020D01*
X145826866Y-112293677D01*
X145623900Y-112273649D01*
X145517411Y-112475638D01*
X145665910Y-112491270D01*
G37*
G36*
X145171563Y-112884012D02*
G01*
X145117096Y-113315101D01*
X145138101Y-113317787D01*
X145324214Y-112987815D01*
X145171563Y-112884012D01*
G37*
G36*
X145263886Y-112596538D02*
G01*
X145149092Y-112639281D01*
X145180111Y-112920893D01*
X145353524Y-112984884D01*
X145384298Y-112873998D01*
X145263886Y-112596538D01*
G37*
G36*
X145380146Y-112673475D02*
G01*
X145367690Y-112546957D01*
X145240195Y-112592386D01*
X145356454Y-112871067D01*
X145418004Y-112670544D01*
X145380146Y-112673475D01*
G37*
G36*
X145422156Y-112252400D02*
G01*
X145422156Y-112465868D01*
X145486636Y-112470020D01*
X145588729Y-112265101D01*
X145422156Y-112252400D01*
G37*
G36*
X146002477Y-113337815D02*
G01*
X146253070Y-113330732D01*
X146251605Y-113242561D01*
X145999546Y-113238164D01*
X146002477Y-113337815D01*
G37*
G36*
X146569364Y-113249644D02*
G01*
X146853663Y-113246713D01*
X146637997Y-112901109D01*
X146684230Y-112870982D01*
X146723927Y-112833884D01*
X146756280Y-112789717D01*
X146780476Y-112738377D01*
X146795705Y-112679767D01*
X146800887Y-112627575D01*
X146800418Y-112585303D01*
X146794732Y-112533760D01*
X146782380Y-112482268D01*
X146761642Y-112432430D01*
X146748639Y-112410181D01*
X146716044Y-112369227D01*
X146676442Y-112336562D01*
X146635310Y-112313461D01*
X146549825Y-113216915D01*
X146569364Y-113249644D01*
G37*
G36*
X146569364Y-113340502D02*
G01*
X146849511Y-113349050D01*
X146815806Y-113285059D01*
X146531751Y-113263810D01*
X146569364Y-113340502D01*
G37*
G36*
X146086496Y-112282198D02*
G01*
X146051325Y-112279511D01*
X145954849Y-113161472D01*
X146233531Y-112943607D01*
X146244521Y-112991967D01*
X146268457Y-112994898D01*
X146251605Y-112927976D01*
X146233531Y-112943607D01*
X146086496Y-112282198D01*
G37*
G36*
X146103349Y-112255331D02*
G01*
X146089183Y-112253866D01*
X146265526Y-112906727D01*
X145996859Y-113137292D01*
X145991242Y-113209832D01*
X146241835Y-113236699D01*
X146260153Y-112953621D01*
X146278227Y-112955087D01*
X146265526Y-112906727D01*
X146282379Y-112891095D01*
X146103349Y-112255331D01*
G37*
G36*
X146692707Y-112333489D02*
G01*
X146645551Y-112309559D01*
X146592834Y-112291538D01*
X146543895Y-112280328D01*
X146492085Y-112272621D01*
X146437962Y-112268032D01*
X146107501Y-112252400D01*
X146296545Y-112885478D01*
X146447732Y-112751632D01*
X146397643Y-112753231D01*
X146395952Y-112753098D01*
X146283845Y-112747480D01*
X146297766Y-112464403D01*
X146409874Y-112470020D01*
X146460905Y-112474984D01*
X146511202Y-112487842D01*
X146554162Y-112514059D01*
X146581553Y-112561420D01*
X146586217Y-112610949D01*
X146577133Y-112660796D01*
X146551660Y-112704960D01*
X146510880Y-112735070D01*
X146463288Y-112749564D01*
X146447732Y-112751632D01*
X146296545Y-112885478D01*
X146316085Y-112950935D01*
X146394487Y-112953621D01*
X146516364Y-113223998D01*
X146692707Y-112333489D01*
G37*
D11*
X159006265Y-84279800D02*
X159101503Y-84327419D01*
X159101503Y-84327419D02*
X159291979Y-84327419D01*
X159291979Y-84327419D02*
X159387217Y-84279800D01*
X159387217Y-84279800D02*
X159434836Y-84184561D01*
X159434836Y-84184561D02*
X159434836Y-84136942D01*
X159434836Y-84136942D02*
X159387217Y-84041704D01*
X159387217Y-84041704D02*
X159291979Y-83994085D01*
X159291979Y-83994085D02*
X159149122Y-83994085D01*
X159149122Y-83994085D02*
X159053884Y-83946466D01*
X159053884Y-83946466D02*
X159006265Y-83851228D01*
X159006265Y-83851228D02*
X159006265Y-83803609D01*
X159006265Y-83803609D02*
X159053884Y-83708371D01*
X159053884Y-83708371D02*
X159149122Y-83660752D01*
X159149122Y-83660752D02*
X159291979Y-83660752D01*
X159291979Y-83660752D02*
X159387217Y-83708371D01*
X159720551Y-83660752D02*
X160101503Y-83660752D01*
X159863408Y-83327419D02*
X159863408Y-84184561D01*
X159863408Y-84184561D02*
X159911027Y-84279800D01*
X159911027Y-84279800D02*
X160006265Y-84327419D01*
X160006265Y-84327419D02*
X160101503Y-84327419D01*
X160863408Y-84327419D02*
X160863408Y-83803609D01*
X160863408Y-83803609D02*
X160815789Y-83708371D01*
X160815789Y-83708371D02*
X160720551Y-83660752D01*
X160720551Y-83660752D02*
X160530075Y-83660752D01*
X160530075Y-83660752D02*
X160434837Y-83708371D01*
X160863408Y-84279800D02*
X160768170Y-84327419D01*
X160768170Y-84327419D02*
X160530075Y-84327419D01*
X160530075Y-84327419D02*
X160434837Y-84279800D01*
X160434837Y-84279800D02*
X160387218Y-84184561D01*
X160387218Y-84184561D02*
X160387218Y-84089323D01*
X160387218Y-84089323D02*
X160434837Y-83994085D01*
X160434837Y-83994085D02*
X160530075Y-83946466D01*
X160530075Y-83946466D02*
X160768170Y-83946466D01*
X160768170Y-83946466D02*
X160863408Y-83898847D01*
X161339599Y-84327419D02*
X161339599Y-83660752D01*
X161339599Y-83851228D02*
X161387218Y-83755990D01*
X161387218Y-83755990D02*
X161434837Y-83708371D01*
X161434837Y-83708371D02*
X161530075Y-83660752D01*
X161530075Y-83660752D02*
X161625313Y-83660752D01*
X161815790Y-83660752D02*
X162196742Y-83660752D01*
X161958647Y-83327419D02*
X161958647Y-84184561D01*
X161958647Y-84184561D02*
X162006266Y-84279800D01*
X162006266Y-84279800D02*
X162101504Y-84327419D01*
X162101504Y-84327419D02*
X162196742Y-84327419D01*
D10*
X170310350Y-91309819D02*
X170310350Y-90309819D01*
X170310350Y-91262200D02*
X170215112Y-91309819D01*
X170215112Y-91309819D02*
X170024636Y-91309819D01*
X170024636Y-91309819D02*
X169929398Y-91262200D01*
X169929398Y-91262200D02*
X169881779Y-91214580D01*
X169881779Y-91214580D02*
X169834160Y-91119342D01*
X169834160Y-91119342D02*
X169834160Y-90833628D01*
X169834160Y-90833628D02*
X169881779Y-90738390D01*
X169881779Y-90738390D02*
X169929398Y-90690771D01*
X169929398Y-90690771D02*
X170024636Y-90643152D01*
X170024636Y-90643152D02*
X170215112Y-90643152D01*
X170215112Y-90643152D02*
X170310350Y-90690771D01*
X170929398Y-91309819D02*
X170834160Y-91262200D01*
X170834160Y-91262200D02*
X170786541Y-91214580D01*
X170786541Y-91214580D02*
X170738922Y-91119342D01*
X170738922Y-91119342D02*
X170738922Y-90833628D01*
X170738922Y-90833628D02*
X170786541Y-90738390D01*
X170786541Y-90738390D02*
X170834160Y-90690771D01*
X170834160Y-90690771D02*
X170929398Y-90643152D01*
X170929398Y-90643152D02*
X171072255Y-90643152D01*
X171072255Y-90643152D02*
X171167493Y-90690771D01*
X171167493Y-90690771D02*
X171215112Y-90738390D01*
X171215112Y-90738390D02*
X171262731Y-90833628D01*
X171262731Y-90833628D02*
X171262731Y-91119342D01*
X171262731Y-91119342D02*
X171215112Y-91214580D01*
X171215112Y-91214580D02*
X171167493Y-91262200D01*
X171167493Y-91262200D02*
X171072255Y-91309819D01*
X171072255Y-91309819D02*
X170929398Y-91309819D01*
X171596065Y-90643152D02*
X171786541Y-91309819D01*
X171786541Y-91309819D02*
X171977017Y-90833628D01*
X171977017Y-90833628D02*
X172167493Y-91309819D01*
X172167493Y-91309819D02*
X172357969Y-90643152D01*
X172738922Y-90643152D02*
X172738922Y-91309819D01*
X172738922Y-90738390D02*
X172786541Y-90690771D01*
X172786541Y-90690771D02*
X172881779Y-90643152D01*
X172881779Y-90643152D02*
X173024636Y-90643152D01*
X173024636Y-90643152D02*
X173119874Y-90690771D01*
X173119874Y-90690771D02*
X173167493Y-90786009D01*
X173167493Y-90786009D02*
X173167493Y-91309819D01*
D11*
X178691265Y-84279800D02*
X178786503Y-84327419D01*
X178786503Y-84327419D02*
X178976979Y-84327419D01*
X178976979Y-84327419D02*
X179072217Y-84279800D01*
X179072217Y-84279800D02*
X179119836Y-84184561D01*
X179119836Y-84184561D02*
X179119836Y-84136942D01*
X179119836Y-84136942D02*
X179072217Y-84041704D01*
X179072217Y-84041704D02*
X178976979Y-83994085D01*
X178976979Y-83994085D02*
X178834122Y-83994085D01*
X178834122Y-83994085D02*
X178738884Y-83946466D01*
X178738884Y-83946466D02*
X178691265Y-83851228D01*
X178691265Y-83851228D02*
X178691265Y-83803609D01*
X178691265Y-83803609D02*
X178738884Y-83708371D01*
X178738884Y-83708371D02*
X178834122Y-83660752D01*
X178834122Y-83660752D02*
X178976979Y-83660752D01*
X178976979Y-83660752D02*
X179072217Y-83708371D01*
X179929360Y-84279800D02*
X179834122Y-84327419D01*
X179834122Y-84327419D02*
X179643646Y-84327419D01*
X179643646Y-84327419D02*
X179548408Y-84279800D01*
X179548408Y-84279800D02*
X179500789Y-84184561D01*
X179500789Y-84184561D02*
X179500789Y-83803609D01*
X179500789Y-83803609D02*
X179548408Y-83708371D01*
X179548408Y-83708371D02*
X179643646Y-83660752D01*
X179643646Y-83660752D02*
X179834122Y-83660752D01*
X179834122Y-83660752D02*
X179929360Y-83708371D01*
X179929360Y-83708371D02*
X179976979Y-83803609D01*
X179976979Y-83803609D02*
X179976979Y-83898847D01*
X179976979Y-83898847D02*
X179500789Y-83994085D01*
X180548408Y-84327419D02*
X180453170Y-84279800D01*
X180453170Y-84279800D02*
X180405551Y-84184561D01*
X180405551Y-84184561D02*
X180405551Y-83327419D01*
X181310313Y-84279800D02*
X181215075Y-84327419D01*
X181215075Y-84327419D02*
X181024599Y-84327419D01*
X181024599Y-84327419D02*
X180929361Y-84279800D01*
X180929361Y-84279800D02*
X180881742Y-84184561D01*
X180881742Y-84184561D02*
X180881742Y-83803609D01*
X180881742Y-83803609D02*
X180929361Y-83708371D01*
X180929361Y-83708371D02*
X181024599Y-83660752D01*
X181024599Y-83660752D02*
X181215075Y-83660752D01*
X181215075Y-83660752D02*
X181310313Y-83708371D01*
X181310313Y-83708371D02*
X181357932Y-83803609D01*
X181357932Y-83803609D02*
X181357932Y-83898847D01*
X181357932Y-83898847D02*
X180881742Y-83994085D01*
X182215075Y-84279800D02*
X182119837Y-84327419D01*
X182119837Y-84327419D02*
X181929361Y-84327419D01*
X181929361Y-84327419D02*
X181834123Y-84279800D01*
X181834123Y-84279800D02*
X181786504Y-84232180D01*
X181786504Y-84232180D02*
X181738885Y-84136942D01*
X181738885Y-84136942D02*
X181738885Y-83851228D01*
X181738885Y-83851228D02*
X181786504Y-83755990D01*
X181786504Y-83755990D02*
X181834123Y-83708371D01*
X181834123Y-83708371D02*
X181929361Y-83660752D01*
X181929361Y-83660752D02*
X182119837Y-83660752D01*
X182119837Y-83660752D02*
X182215075Y-83708371D01*
X182500790Y-83660752D02*
X182881742Y-83660752D01*
X182643647Y-83327419D02*
X182643647Y-84184561D01*
X182643647Y-84184561D02*
X182691266Y-84279800D01*
X182691266Y-84279800D02*
X182786504Y-84327419D01*
X182786504Y-84327419D02*
X182881742Y-84327419D01*
D10*
X99396779Y-93468866D02*
X100158684Y-93468866D01*
D11*
X169642455Y-83009800D02*
X169547217Y-83057419D01*
X169547217Y-83057419D02*
X169356741Y-83057419D01*
X169356741Y-83057419D02*
X169261503Y-83009800D01*
X169261503Y-83009800D02*
X169213884Y-82962180D01*
X169213884Y-82962180D02*
X169166265Y-82866942D01*
X169166265Y-82866942D02*
X169166265Y-82581228D01*
X169166265Y-82581228D02*
X169213884Y-82485990D01*
X169213884Y-82485990D02*
X169261503Y-82438371D01*
X169261503Y-82438371D02*
X169356741Y-82390752D01*
X169356741Y-82390752D02*
X169547217Y-82390752D01*
X169547217Y-82390752D02*
X169642455Y-82438371D01*
X170451979Y-83009800D02*
X170356741Y-83057419D01*
X170356741Y-83057419D02*
X170166265Y-83057419D01*
X170166265Y-83057419D02*
X170071027Y-83009800D01*
X170071027Y-83009800D02*
X170023408Y-82914561D01*
X170023408Y-82914561D02*
X170023408Y-82533609D01*
X170023408Y-82533609D02*
X170071027Y-82438371D01*
X170071027Y-82438371D02*
X170166265Y-82390752D01*
X170166265Y-82390752D02*
X170356741Y-82390752D01*
X170356741Y-82390752D02*
X170451979Y-82438371D01*
X170451979Y-82438371D02*
X170499598Y-82533609D01*
X170499598Y-82533609D02*
X170499598Y-82628847D01*
X170499598Y-82628847D02*
X170023408Y-82724085D01*
X170928170Y-82390752D02*
X170928170Y-83057419D01*
X170928170Y-82485990D02*
X170975789Y-82438371D01*
X170975789Y-82438371D02*
X171071027Y-82390752D01*
X171071027Y-82390752D02*
X171213884Y-82390752D01*
X171213884Y-82390752D02*
X171309122Y-82438371D01*
X171309122Y-82438371D02*
X171356741Y-82533609D01*
X171356741Y-82533609D02*
X171356741Y-83057419D01*
X171690075Y-82390752D02*
X172071027Y-82390752D01*
X171832932Y-82057419D02*
X171832932Y-82914561D01*
X171832932Y-82914561D02*
X171880551Y-83009800D01*
X171880551Y-83009800D02*
X171975789Y-83057419D01*
X171975789Y-83057419D02*
X172071027Y-83057419D01*
X172785313Y-83009800D02*
X172690075Y-83057419D01*
X172690075Y-83057419D02*
X172499599Y-83057419D01*
X172499599Y-83057419D02*
X172404361Y-83009800D01*
X172404361Y-83009800D02*
X172356742Y-82914561D01*
X172356742Y-82914561D02*
X172356742Y-82533609D01*
X172356742Y-82533609D02*
X172404361Y-82438371D01*
X172404361Y-82438371D02*
X172499599Y-82390752D01*
X172499599Y-82390752D02*
X172690075Y-82390752D01*
X172690075Y-82390752D02*
X172785313Y-82438371D01*
X172785313Y-82438371D02*
X172832932Y-82533609D01*
X172832932Y-82533609D02*
X172832932Y-82628847D01*
X172832932Y-82628847D02*
X172356742Y-82724085D01*
X173261504Y-83057419D02*
X173261504Y-82390752D01*
X173261504Y-82581228D02*
X173309123Y-82485990D01*
X173309123Y-82485990D02*
X173356742Y-82438371D01*
X173356742Y-82438371D02*
X173451980Y-82390752D01*
X173451980Y-82390752D02*
X173547218Y-82390752D01*
D10*
X139803333Y-84005009D02*
X139946190Y-84052628D01*
X139946190Y-84052628D02*
X139993809Y-84100247D01*
X139993809Y-84100247D02*
X140041428Y-84195485D01*
X140041428Y-84195485D02*
X140041428Y-84338342D01*
X140041428Y-84338342D02*
X139993809Y-84433580D01*
X139993809Y-84433580D02*
X139946190Y-84481200D01*
X139946190Y-84481200D02*
X139850952Y-84528819D01*
X139850952Y-84528819D02*
X139470000Y-84528819D01*
X139470000Y-84528819D02*
X139470000Y-83528819D01*
X139470000Y-83528819D02*
X139803333Y-83528819D01*
X139803333Y-83528819D02*
X139898571Y-83576438D01*
X139898571Y-83576438D02*
X139946190Y-83624057D01*
X139946190Y-83624057D02*
X139993809Y-83719295D01*
X139993809Y-83719295D02*
X139993809Y-83814533D01*
X139993809Y-83814533D02*
X139946190Y-83909771D01*
X139946190Y-83909771D02*
X139898571Y-83957390D01*
X139898571Y-83957390D02*
X139803333Y-84005009D01*
X139803333Y-84005009D02*
X139470000Y-84005009D01*
X140470000Y-84528819D02*
X140470000Y-83862152D01*
X140470000Y-84052628D02*
X140517619Y-83957390D01*
X140517619Y-83957390D02*
X140565238Y-83909771D01*
X140565238Y-83909771D02*
X140660476Y-83862152D01*
X140660476Y-83862152D02*
X140755714Y-83862152D01*
X141517619Y-84528819D02*
X141517619Y-83528819D01*
X141517619Y-84481200D02*
X141422381Y-84528819D01*
X141422381Y-84528819D02*
X141231905Y-84528819D01*
X141231905Y-84528819D02*
X141136667Y-84481200D01*
X141136667Y-84481200D02*
X141089048Y-84433580D01*
X141089048Y-84433580D02*
X141041429Y-84338342D01*
X141041429Y-84338342D02*
X141041429Y-84052628D01*
X141041429Y-84052628D02*
X141089048Y-83957390D01*
X141089048Y-83957390D02*
X141136667Y-83909771D01*
X141136667Y-83909771D02*
X141231905Y-83862152D01*
X141231905Y-83862152D02*
X141422381Y-83862152D01*
X141422381Y-83862152D02*
X141517619Y-83909771D01*
X142517619Y-84528819D02*
X141946191Y-84528819D01*
X142231905Y-84528819D02*
X142231905Y-83528819D01*
X142231905Y-83528819D02*
X142136667Y-83671676D01*
X142136667Y-83671676D02*
X142041429Y-83766914D01*
X142041429Y-83766914D02*
X141946191Y-83814533D01*
D12*
X115448842Y-103838119D02*
X115509318Y-103656690D01*
X115509318Y-103656690D02*
X115509318Y-103354309D01*
X115509318Y-103354309D02*
X115448842Y-103233357D01*
X115448842Y-103233357D02*
X115388365Y-103172881D01*
X115388365Y-103172881D02*
X115267413Y-103112404D01*
X115267413Y-103112404D02*
X115146461Y-103112404D01*
X115146461Y-103112404D02*
X115025508Y-103172881D01*
X115025508Y-103172881D02*
X114965032Y-103233357D01*
X114965032Y-103233357D02*
X114904556Y-103354309D01*
X114904556Y-103354309D02*
X114844080Y-103596214D01*
X114844080Y-103596214D02*
X114783603Y-103717166D01*
X114783603Y-103717166D02*
X114723127Y-103777643D01*
X114723127Y-103777643D02*
X114602175Y-103838119D01*
X114602175Y-103838119D02*
X114481222Y-103838119D01*
X114481222Y-103838119D02*
X114360270Y-103777643D01*
X114360270Y-103777643D02*
X114299794Y-103717166D01*
X114299794Y-103717166D02*
X114239318Y-103596214D01*
X114239318Y-103596214D02*
X114239318Y-103293833D01*
X114239318Y-103293833D02*
X114299794Y-103112404D01*
X115509318Y-101902880D02*
X115509318Y-102628595D01*
X115509318Y-102265738D02*
X114239318Y-102265738D01*
X114239318Y-102265738D02*
X114420746Y-102386690D01*
X114420746Y-102386690D02*
X114541699Y-102507642D01*
X114541699Y-102507642D02*
X114602175Y-102628595D01*
X170103842Y-104015619D02*
X170164318Y-103834190D01*
X170164318Y-103834190D02*
X170164318Y-103531809D01*
X170164318Y-103531809D02*
X170103842Y-103410857D01*
X170103842Y-103410857D02*
X170043365Y-103350381D01*
X170043365Y-103350381D02*
X169922413Y-103289904D01*
X169922413Y-103289904D02*
X169801461Y-103289904D01*
X169801461Y-103289904D02*
X169680508Y-103350381D01*
X169680508Y-103350381D02*
X169620032Y-103410857D01*
X169620032Y-103410857D02*
X169559556Y-103531809D01*
X169559556Y-103531809D02*
X169499080Y-103773714D01*
X169499080Y-103773714D02*
X169438603Y-103894666D01*
X169438603Y-103894666D02*
X169378127Y-103955143D01*
X169378127Y-103955143D02*
X169257175Y-104015619D01*
X169257175Y-104015619D02*
X169136222Y-104015619D01*
X169136222Y-104015619D02*
X169015270Y-103955143D01*
X169015270Y-103955143D02*
X168954794Y-103894666D01*
X168954794Y-103894666D02*
X168894318Y-103773714D01*
X168894318Y-103773714D02*
X168894318Y-103471333D01*
X168894318Y-103471333D02*
X168954794Y-103289904D01*
X169015270Y-102806095D02*
X168954794Y-102745619D01*
X168954794Y-102745619D02*
X168894318Y-102624666D01*
X168894318Y-102624666D02*
X168894318Y-102322285D01*
X168894318Y-102322285D02*
X168954794Y-102201333D01*
X168954794Y-102201333D02*
X169015270Y-102140857D01*
X169015270Y-102140857D02*
X169136222Y-102080380D01*
X169136222Y-102080380D02*
X169257175Y-102080380D01*
X169257175Y-102080380D02*
X169438603Y-102140857D01*
X169438603Y-102140857D02*
X170164318Y-102866571D01*
X170164318Y-102866571D02*
X170164318Y-102080380D01*
D13*
%TO.C,Brd1*%
X127570000Y-71520000D02*
X154970000Y-71520000D01*
X127570000Y-98820000D02*
X127570000Y-71520000D01*
X127992000Y-74815000D02*
X151092000Y-74815000D01*
X127992000Y-91415000D02*
X127992000Y-74815000D01*
X136271000Y-72009000D02*
X136271000Y-74422000D01*
X136271000Y-72009000D02*
X146050000Y-72009000D01*
X146050000Y-72009000D02*
X146050000Y-74422000D01*
X146050000Y-74422000D02*
X136271000Y-74422000D01*
X151092000Y-74815000D02*
X154178000Y-74815000D01*
X151092000Y-91415000D02*
X127992000Y-91415000D01*
X151092000Y-91415000D02*
X154432000Y-91440000D01*
X154432000Y-74803000D02*
X154178000Y-74815000D01*
X154432000Y-91440000D02*
X154432000Y-74803000D01*
X154970000Y-71520000D02*
X154970000Y-98820000D01*
X154970000Y-98820000D02*
X127570000Y-98820000D01*
D11*
%TO.C,S1*%
X108360000Y-94320500D02*
X121675000Y-94320500D01*
X111675000Y-112519500D02*
X121510000Y-112519500D01*
D14*
X116675000Y-93220500D02*
X116675000Y-93220500D01*
X116675000Y-93419500D02*
X116675000Y-93419500D01*
D11*
X121510000Y-112519500D02*
X121510000Y-99419500D01*
D14*
X116675000Y-93220500D02*
G75*
G02*
X116675000Y-93419500I0J-99500D01*
G01*
X116675000Y-93419500D02*
G75*
G02*
X116675000Y-93220500I0J99500D01*
G01*
D15*
%TO.C,G\u002A\u002A\u002A*%
G36*
X142057438Y-107481152D02*
G01*
X142075228Y-107506122D01*
X142073604Y-107534070D01*
X142048557Y-107582735D01*
X141993474Y-107601066D01*
X141941398Y-107600036D01*
X141923175Y-107570971D01*
X141921686Y-107542330D01*
X141929528Y-107494916D01*
X141963680Y-107477226D01*
X142001816Y-107475334D01*
X142057438Y-107481152D01*
G37*
G36*
X140544656Y-107741407D02*
G01*
X140615474Y-107750333D01*
X140649640Y-107770403D01*
X140662708Y-107812030D01*
X140663862Y-107821223D01*
X140665497Y-107865098D01*
X140648336Y-107886065D01*
X140599343Y-107892556D01*
X140552916Y-107893011D01*
X140480011Y-107890868D01*
X140445224Y-107878156D01*
X140434477Y-107845447D01*
X140433710Y-107813196D01*
X140436836Y-107763442D01*
X140455890Y-107741802D01*
X140505386Y-107738884D01*
X140544656Y-107741407D01*
G37*
G36*
X140605084Y-107086854D02*
G01*
X140634848Y-107103613D01*
X140642384Y-107145259D01*
X140642549Y-107162076D01*
X140638426Y-107212292D01*
X140616081Y-107234615D01*
X140560552Y-107240267D01*
X140538130Y-107240390D01*
X140471175Y-107237298D01*
X140441411Y-107220539D01*
X140433875Y-107178892D01*
X140433710Y-107162076D01*
X140437834Y-107111860D01*
X140460179Y-107089537D01*
X140515708Y-107083885D01*
X140538130Y-107083761D01*
X140605084Y-107086854D01*
G37*
G36*
X140617980Y-107425707D02*
G01*
X140651265Y-107440083D01*
X140661757Y-107476195D01*
X140662935Y-107501439D01*
X140660953Y-107549833D01*
X140642014Y-107572586D01*
X140592129Y-107579350D01*
X140549436Y-107579753D01*
X140477892Y-107577391D01*
X140444267Y-107563867D01*
X140434290Y-107529525D01*
X140433710Y-107501439D01*
X140437314Y-107452686D01*
X140457724Y-107430004D01*
X140509342Y-107423455D01*
X140547210Y-107423124D01*
X140617980Y-107425707D01*
G37*
G36*
X143400976Y-108054736D02*
G01*
X143475344Y-108062302D01*
X143511693Y-108078227D01*
X143524208Y-108111571D01*
X143525836Y-108134481D01*
X143524155Y-108177676D01*
X143505407Y-108198780D01*
X143456216Y-108205674D01*
X143403997Y-108206269D01*
X143328894Y-108204378D01*
X143292227Y-108192844D01*
X143280230Y-108162873D01*
X143279137Y-108126524D01*
X143281813Y-108078371D01*
X143299102Y-108056158D01*
X143344895Y-108051699D01*
X143400976Y-108054736D01*
G37*
G36*
X143403135Y-107088857D02*
G01*
X143478334Y-107096399D01*
X143514915Y-107111665D01*
X143526472Y-107142681D01*
X143527133Y-107162076D01*
X143521971Y-107201985D01*
X143497426Y-107222814D01*
X143439905Y-107232587D01*
X143403135Y-107235294D01*
X143328452Y-107238451D01*
X143292074Y-107229863D01*
X143280221Y-107201395D01*
X143279137Y-107162076D01*
X143281636Y-107113345D01*
X143298320Y-107090601D01*
X143342968Y-107085706D01*
X143403135Y-107088857D01*
G37*
G36*
X143464869Y-107747655D02*
G01*
X143501274Y-107758430D01*
X143513076Y-107787418D01*
X143514080Y-107818852D01*
X143510292Y-107864484D01*
X143489502Y-107886099D01*
X143437577Y-107892621D01*
X143396609Y-107893011D01*
X143317184Y-107887274D01*
X143280303Y-107868214D01*
X143275221Y-107853854D01*
X143269859Y-107796028D01*
X143268695Y-107782126D01*
X143291669Y-107759196D01*
X143364401Y-107748033D01*
X143390082Y-107747124D01*
X143464869Y-107747655D01*
G37*
G36*
X143468844Y-107425394D02*
G01*
X143503057Y-107438502D01*
X143513416Y-107471894D01*
X143514080Y-107501439D01*
X143510675Y-107549595D01*
X143491013Y-107572404D01*
X143440926Y-107579310D01*
X143396609Y-107579753D01*
X143324374Y-107577483D01*
X143290161Y-107564375D01*
X143279801Y-107530984D01*
X143279137Y-107501439D01*
X143282542Y-107453282D01*
X143302204Y-107430473D01*
X143352291Y-107423567D01*
X143396609Y-107423124D01*
X143468844Y-107425394D01*
G37*
G36*
X140603635Y-108053988D02*
G01*
X140640186Y-108064849D01*
X140642906Y-108069219D01*
X140649348Y-108107713D01*
X140659003Y-108147533D01*
X140664247Y-108183276D01*
X140646751Y-108200518D01*
X140594626Y-108205923D01*
X140554227Y-108206269D01*
X140480797Y-108204148D01*
X140445565Y-108191722D01*
X140434535Y-108159894D01*
X140433710Y-108127955D01*
X140437834Y-108077739D01*
X140460179Y-108055416D01*
X140515708Y-108049764D01*
X140538130Y-108049640D01*
X140603635Y-108053988D01*
G37*
G36*
X142090640Y-106353584D02*
G01*
X142176927Y-106356739D01*
X142228395Y-106363607D01*
X142253730Y-106375509D01*
X142261624Y-106393762D01*
X142261879Y-106398510D01*
X142285894Y-106474302D01*
X142351420Y-106522254D01*
X142432790Y-106537965D01*
X142541523Y-106545801D01*
X142607851Y-106560181D01*
X142641538Y-106585527D01*
X142652345Y-106626264D01*
X142652621Y-106637588D01*
X142666833Y-106711687D01*
X142714041Y-106754078D01*
X142801109Y-106770022D01*
X142825948Y-106770503D01*
X142895624Y-106773014D01*
X142928825Y-106789190D01*
X142941281Y-106831994D01*
X142944725Y-106868397D01*
X142953436Y-106932100D01*
X142974626Y-106957693D01*
X143022586Y-106959244D01*
X143035763Y-106957996D01*
X143064234Y-106955164D01*
X143086776Y-106956563D01*
X143104008Y-106967542D01*
X143116551Y-106993448D01*
X143125026Y-107039631D01*
X143130053Y-107111438D01*
X143132253Y-107214217D01*
X143132247Y-107353318D01*
X143130655Y-107534088D01*
X143128181Y-107754436D01*
X143120801Y-108412058D01*
X143023761Y-108420109D01*
X142959674Y-108429652D01*
X142930579Y-108455068D01*
X142919728Y-108513231D01*
X142918620Y-108526053D01*
X142910518Y-108623946D01*
X142748938Y-108626958D01*
X142636419Y-108629381D01*
X142565818Y-108634527D01*
X142526872Y-108646861D01*
X142509317Y-108670852D01*
X142502890Y-108710964D01*
X142500942Y-108734892D01*
X142491874Y-108799033D01*
X142468594Y-108826479D01*
X142415227Y-108832719D01*
X142400605Y-108832785D01*
X142332386Y-108840921D01*
X142299914Y-108870125D01*
X142294717Y-108884995D01*
X142268417Y-108923809D01*
X142208656Y-108936992D01*
X142195535Y-108937204D01*
X142131464Y-108947235D01*
X142096647Y-108972071D01*
X142096305Y-108972908D01*
X142057356Y-109010483D01*
X141992108Y-109022307D01*
X141920349Y-109007164D01*
X141884067Y-108985960D01*
X141815544Y-108949745D01*
X141754413Y-108937204D01*
X141699872Y-108923828D01*
X141686742Y-108897401D01*
X141662208Y-108857489D01*
X141594842Y-108823605D01*
X141494006Y-108800318D01*
X141485433Y-108799136D01*
X141428736Y-108779324D01*
X141405830Y-108729663D01*
X141404233Y-108718252D01*
X141387973Y-108662067D01*
X141365075Y-108636026D01*
X141324250Y-108628053D01*
X141249785Y-108618235D01*
X141160101Y-108608651D01*
X141073618Y-108601379D01*
X141040648Y-108599414D01*
X141012324Y-108585683D01*
X141011108Y-108578263D01*
X141008853Y-108536083D01*
X141008097Y-108532579D01*
X141000233Y-108483819D01*
X140998479Y-108467317D01*
X140971319Y-108435562D01*
X140910124Y-108419980D01*
X140825283Y-108411800D01*
X140825283Y-107840801D01*
X141089249Y-107840801D01*
X141245960Y-107840801D01*
X141335340Y-107836921D01*
X141382077Y-107825959D01*
X141386537Y-107814697D01*
X141351896Y-107797187D01*
X141288374Y-107788733D01*
X141278761Y-107788592D01*
X141217725Y-107784233D01*
X141194978Y-107764749D01*
X141195461Y-107729856D01*
X141215461Y-107685562D01*
X141268178Y-107665459D01*
X141288644Y-107662940D01*
X141354206Y-107648347D01*
X141370720Y-107628029D01*
X141339220Y-107611019D01*
X141282117Y-107605858D01*
X141220330Y-107600982D01*
X141195035Y-107579040D01*
X141190751Y-107540596D01*
X141192301Y-107527544D01*
X141464851Y-107527544D01*
X141464851Y-107645015D01*
X141569271Y-107658068D01*
X141638979Y-107672491D01*
X141669212Y-107697619D01*
X141673690Y-107723330D01*
X141662456Y-107759788D01*
X141620016Y-107778120D01*
X141575797Y-107783641D01*
X141503702Y-107795307D01*
X141479411Y-107811245D01*
X141499251Y-107827006D01*
X141559549Y-107838141D01*
X141622981Y-107840801D01*
X141768059Y-107840801D01*
X141760121Y-107731080D01*
X141818060Y-107731080D01*
X141819630Y-107795013D01*
X141828574Y-107827653D01*
X141847094Y-107839414D01*
X141867152Y-107840801D01*
X141904544Y-107831405D01*
X141919707Y-107793688D01*
X141921686Y-107749435D01*
X141925903Y-107688111D01*
X141948425Y-107662865D01*
X142004057Y-107657682D01*
X142006526Y-107657668D01*
X142093814Y-107648320D01*
X142139872Y-107615389D01*
X142153573Y-107549973D01*
X142151910Y-107511834D01*
X142147044Y-107452405D01*
X142209787Y-107452405D01*
X142232114Y-107468756D01*
X142298030Y-107475334D01*
X142361579Y-107480648D01*
X142387790Y-107502152D01*
X142391573Y-107529987D01*
X142369191Y-107582103D01*
X142339363Y-107598294D01*
X142297044Y-107618957D01*
X142287153Y-107635007D01*
X142309044Y-107653752D01*
X142339363Y-107658068D01*
X142383970Y-107673553D01*
X142394283Y-107708449D01*
X142373090Y-107745414D01*
X142323180Y-107767107D01*
X142321798Y-107767279D01*
X142266105Y-107784843D01*
X142240794Y-107809711D01*
X142247348Y-107830233D01*
X142290596Y-107837799D01*
X142356253Y-107835815D01*
X142482940Y-107827749D01*
X142490544Y-107610983D01*
X142496677Y-107436177D01*
X142548202Y-107436177D01*
X142568015Y-107465138D01*
X142631247Y-107475263D01*
X142639569Y-107475334D01*
X142702411Y-107481083D01*
X142727820Y-107503765D01*
X142730936Y-107528414D01*
X142713289Y-107577323D01*
X142668504Y-107641181D01*
X142639569Y-107672860D01*
X142572208Y-107748048D01*
X142549329Y-107798088D01*
X142572242Y-107827190D01*
X142642254Y-107839566D01*
X142691778Y-107840801D01*
X142770406Y-107836510D01*
X142822556Y-107825440D01*
X142835355Y-107814697D01*
X142813155Y-107794581D01*
X142774444Y-107788592D01*
X142720463Y-107782577D01*
X142697928Y-107772987D01*
X142690961Y-107735546D01*
X142719706Y-107691266D01*
X142773277Y-107656858D01*
X142773653Y-107656714D01*
X142812751Y-107633587D01*
X142830874Y-107592552D01*
X142835354Y-107516781D01*
X142835355Y-107515137D01*
X142835355Y-107397019D01*
X142691778Y-107397019D01*
X142605193Y-107400535D01*
X142560615Y-107412870D01*
X142548202Y-107436177D01*
X142496677Y-107436177D01*
X142498149Y-107394216D01*
X142362072Y-107402144D01*
X142279793Y-107413354D01*
X142227355Y-107432022D01*
X142209787Y-107452405D01*
X142147044Y-107452405D01*
X142143577Y-107410072D01*
X141987144Y-107410072D01*
X141830712Y-107410072D01*
X141821665Y-107625437D01*
X141818060Y-107731080D01*
X141760121Y-107731080D01*
X141760032Y-107729856D01*
X141752445Y-107660171D01*
X141732740Y-107626944D01*
X141685280Y-107614539D01*
X141641059Y-107610883D01*
X141570776Y-107602170D01*
X141538538Y-107583529D01*
X141530184Y-107545798D01*
X141530113Y-107539095D01*
X141536061Y-107497974D01*
X141563649Y-107479701D01*
X141627495Y-107475348D01*
X141634533Y-107475334D01*
X141706286Y-107469237D01*
X141736430Y-107448504D01*
X141738952Y-107434812D01*
X141728605Y-107411057D01*
X141690121Y-107400875D01*
X141612331Y-107401607D01*
X141601902Y-107402181D01*
X141464851Y-107410072D01*
X141464851Y-107527544D01*
X141192301Y-107527544D01*
X141195502Y-107500595D01*
X141219008Y-107481466D01*
X141275148Y-107475637D01*
X141310398Y-107475334D01*
X141388061Y-107470296D01*
X141419180Y-107454228D01*
X141419168Y-107442703D01*
X141385417Y-107421667D01*
X141303863Y-107411173D01*
X141253837Y-107410072D01*
X141099384Y-107410072D01*
X141094316Y-107625437D01*
X141089249Y-107840801D01*
X140825283Y-107840801D01*
X140825283Y-107682519D01*
X140825283Y-106953237D01*
X140916650Y-106953237D01*
X140977887Y-106949196D01*
X141003001Y-106926397D01*
X141008005Y-106868825D01*
X141008017Y-106861870D01*
X141011284Y-106803015D01*
X141031207Y-106777121D01*
X141082964Y-106770669D01*
X141110620Y-106770503D01*
X141179071Y-106765658D01*
X141211287Y-106745682D01*
X141221566Y-106712119D01*
X141240189Y-106669932D01*
X141289839Y-106645757D01*
X141331309Y-106637344D01*
X141402692Y-106616504D01*
X141451152Y-106585658D01*
X141456604Y-106578256D01*
X141502891Y-106545214D01*
X141570568Y-106535560D01*
X141630944Y-106531433D01*
X141655706Y-106508384D01*
X141660628Y-106450411D01*
X141660637Y-106444193D01*
X141660637Y-106352826D01*
X141960843Y-106352826D01*
X142090640Y-106353584D01*
G37*
G36*
X145863515Y-103115287D02*
G01*
X145863515Y-103220246D01*
X145641624Y-103220246D01*
X145419733Y-103220246D01*
X145419733Y-103324666D01*
X145419733Y-103429085D01*
X145315314Y-103429085D01*
X145210894Y-103429085D01*
X145210894Y-103535045D01*
X145205910Y-103597118D01*
X145193397Y-103626733D01*
X145187471Y-103626528D01*
X145147352Y-103620983D01*
X145084449Y-103627971D01*
X145029232Y-103646714D01*
X145004456Y-103685222D01*
X144996928Y-103736038D01*
X144985552Y-103799357D01*
X144956958Y-103827545D01*
X144914338Y-103836000D01*
X144855813Y-103845955D01*
X144826079Y-103857409D01*
X144817590Y-103888411D01*
X144808164Y-103957003D01*
X144799778Y-104048646D01*
X144799441Y-104053297D01*
X144786398Y-104235590D01*
X144691915Y-104243489D01*
X144597431Y-104251387D01*
X144590050Y-104545067D01*
X144582669Y-104838746D01*
X144315949Y-104839898D01*
X144163576Y-104845184D01*
X144025833Y-104858592D01*
X143911480Y-104878479D01*
X143829277Y-104903200D01*
X143787985Y-104931113D01*
X143784918Y-104939528D01*
X143780514Y-104989918D01*
X143778392Y-105019904D01*
X143762835Y-105056082D01*
X143713900Y-105074311D01*
X143677236Y-105078640D01*
X143612606Y-105088157D01*
X143583287Y-105113414D01*
X143572395Y-105171296D01*
X143571240Y-105184635D01*
X143561662Y-105249070D01*
X143538651Y-105276599D01*
X143488943Y-105282524D01*
X143486400Y-105282528D01*
X143440597Y-105285576D01*
X143415929Y-105303269D01*
X143404615Y-105348425D01*
X143399270Y-105426105D01*
X143385287Y-105462955D01*
X143339518Y-105481436D01*
X143298716Y-105486416D01*
X143234440Y-105488067D01*
X143206778Y-105473071D01*
X143200823Y-105433245D01*
X143200822Y-105432670D01*
X143192103Y-105368238D01*
X143160456Y-105323928D01*
X143097648Y-105294942D01*
X142995446Y-105276480D01*
X142920196Y-105269134D01*
X142704831Y-105251561D01*
X142704831Y-105355618D01*
X142714524Y-105436033D01*
X142742060Y-105473959D01*
X142742417Y-105474099D01*
X142769732Y-105509606D01*
X142786487Y-105583126D01*
X142788101Y-105600765D01*
X142796976Y-105672249D01*
X142817394Y-105707827D01*
X142860571Y-105723804D01*
X142874512Y-105726354D01*
X142915590Y-105735592D01*
X142939618Y-105753958D01*
X142952011Y-105793712D01*
X142958180Y-105867116D01*
X142960678Y-105921544D01*
X142969207Y-106030654D01*
X142987054Y-106097447D01*
X143019901Y-106131688D01*
X143073430Y-106143144D01*
X143089877Y-106143588D01*
X143119798Y-106147146D01*
X143137341Y-106164632D01*
X143145794Y-106207019D01*
X143148440Y-106285280D01*
X143148613Y-106339774D01*
X143147313Y-106440029D01*
X143141558Y-106498865D01*
X143128565Y-106527046D01*
X143105549Y-106535335D01*
X143097979Y-106535560D01*
X143062298Y-106547613D01*
X143044250Y-106592202D01*
X143039243Y-106633236D01*
X143023023Y-106706884D01*
X142992244Y-106738298D01*
X142991984Y-106738349D01*
X142975393Y-106734799D01*
X142964825Y-106711299D01*
X142959483Y-106659893D01*
X142958569Y-106572626D01*
X142961283Y-106441543D01*
X142961481Y-106434376D01*
X142970135Y-106122966D01*
X142889693Y-106105298D01*
X142836824Y-106088000D01*
X142814150Y-106055651D01*
X142809252Y-105990058D01*
X142809250Y-105987460D01*
X142802225Y-105920752D01*
X142784804Y-105880801D01*
X142779394Y-105877338D01*
X142755153Y-105846809D01*
X142741711Y-105793972D01*
X142730582Y-105730487D01*
X142705366Y-105704118D01*
X142651020Y-105704978D01*
X142615677Y-105711120D01*
X142551322Y-105730598D01*
X142519953Y-105769099D01*
X142506922Y-105819809D01*
X142485597Y-105883594D01*
X142459666Y-105898462D01*
X142436159Y-105866391D01*
X142422628Y-105796081D01*
X142411863Y-105731633D01*
X142387358Y-105704658D01*
X142352975Y-105700205D01*
X142266644Y-105710882D01*
X142221155Y-105746682D01*
X142208839Y-105807418D01*
X142205516Y-105852959D01*
X142186352Y-105875042D01*
X142137557Y-105882003D01*
X142084841Y-105882375D01*
X142001967Y-105876723D01*
X141945663Y-105853114D01*
X141890706Y-105800142D01*
X141882777Y-105791008D01*
X141807206Y-105722667D01*
X141734796Y-105700222D01*
X141732675Y-105700205D01*
X141686408Y-105704979D01*
X141665838Y-105729209D01*
X141660712Y-105787761D01*
X141660637Y-105804625D01*
X141655320Y-105870019D01*
X141642037Y-105906385D01*
X141636668Y-105909044D01*
X141568559Y-105891223D01*
X141534915Y-105835683D01*
X141530113Y-105787045D01*
X141526086Y-105726762D01*
X141505669Y-105704252D01*
X141458325Y-105704998D01*
X141403103Y-105723791D01*
X141368302Y-105773977D01*
X141357184Y-105804625D01*
X141312012Y-105885828D01*
X141262462Y-105919494D01*
X141221446Y-105942715D01*
X141197584Y-105985101D01*
X141182839Y-106062124D01*
X141181096Y-106076123D01*
X141172376Y-106176798D01*
X141166472Y-106298569D01*
X141164873Y-106385457D01*
X141164646Y-106561665D01*
X141073279Y-106561665D01*
X140981912Y-106561665D01*
X140981912Y-106352826D01*
X140984965Y-106249404D01*
X140993300Y-106176727D01*
X141005681Y-106144684D01*
X141008017Y-106143987D01*
X141024498Y-106120859D01*
X141033534Y-106063213D01*
X141034122Y-106041642D01*
X141038491Y-105973900D01*
X141059394Y-105940292D01*
X141108527Y-105922966D01*
X141112436Y-105922096D01*
X141172251Y-105895824D01*
X141194616Y-105861286D01*
X141201363Y-105797730D01*
X141203803Y-105778520D01*
X141208042Y-105728650D01*
X141212064Y-105652501D01*
X141212990Y-105628417D01*
X141219851Y-105556810D01*
X141237989Y-105524206D01*
X141266930Y-105517472D01*
X141343766Y-105507835D01*
X141384616Y-105471919D01*
X141399005Y-105399213D01*
X141399589Y-105371102D01*
X141399589Y-105256423D01*
X141204721Y-105256423D01*
X141087424Y-105261322D01*
X141012904Y-105279679D01*
X140972341Y-105316984D01*
X140956915Y-105378725D01*
X140955807Y-105411336D01*
X140949915Y-105442657D01*
X140923864Y-105458843D01*
X140865091Y-105464701D01*
X140814824Y-105465262D01*
X140673840Y-105465262D01*
X140650839Y-105367369D01*
X140629348Y-105301527D01*
X140595883Y-105271333D01*
X140545366Y-105261410D01*
X140486654Y-105248249D01*
X140461529Y-105212644D01*
X140454828Y-105170043D01*
X140443802Y-105114243D01*
X140414134Y-105088694D01*
X140350357Y-105078728D01*
X140286307Y-105069012D01*
X140257443Y-105043033D01*
X140246751Y-104983774D01*
X140245938Y-104974309D01*
X140237565Y-104913561D01*
X140215474Y-104884350D01*
X140163975Y-104872904D01*
X140126979Y-104869876D01*
X140072920Y-104861849D01*
X141477904Y-104861849D01*
X141588849Y-104869876D01*
X141658701Y-104877783D01*
X141692094Y-104897310D01*
X141704722Y-104942423D01*
X141707897Y-104975796D01*
X141716417Y-105038855D01*
X141738758Y-105066601D01*
X141791330Y-105073513D01*
X141818842Y-105073689D01*
X141884671Y-105071111D01*
X141913922Y-105053326D01*
X141921439Y-105005265D01*
X141921686Y-104969270D01*
X141921686Y-104901255D01*
X142184655Y-104901255D01*
X142186666Y-104961904D01*
X142199188Y-105014954D01*
X142227389Y-105060248D01*
X142287471Y-105073677D01*
X142290198Y-105073689D01*
X142338495Y-105069271D01*
X142359966Y-105046067D01*
X142365368Y-104989157D01*
X142365468Y-104969270D01*
X142362702Y-104902414D01*
X142345623Y-104872703D01*
X142301061Y-104865084D01*
X142274101Y-104864851D01*
X142212120Y-104872269D01*
X142184655Y-104901255D01*
X141921686Y-104901255D01*
X141921686Y-104864851D01*
X141817266Y-104864851D01*
X141712847Y-104864851D01*
X141712847Y-104760431D01*
X141712747Y-104758256D01*
X142365468Y-104758256D01*
X142371059Y-104827698D01*
X142395377Y-104865837D01*
X142449737Y-104880887D01*
X142535149Y-104881433D01*
X142639569Y-104877903D01*
X142647151Y-104662538D01*
X142650321Y-104557050D01*
X142648784Y-104493254D01*
X142639681Y-104460666D01*
X142620153Y-104448801D01*
X142588415Y-104447174D01*
X142545714Y-104452709D01*
X142526733Y-104479125D01*
X142522127Y-104541135D01*
X142522097Y-104551593D01*
X142519004Y-104618547D01*
X142502245Y-104648311D01*
X142460599Y-104655847D01*
X142443782Y-104656012D01*
X142393193Y-104660277D01*
X142370973Y-104683139D01*
X142365554Y-104739701D01*
X142365468Y-104758256D01*
X141712747Y-104758256D01*
X141709755Y-104693477D01*
X141692996Y-104663713D01*
X141651349Y-104656177D01*
X141634533Y-104656012D01*
X141584317Y-104651889D01*
X141561994Y-104629544D01*
X141556342Y-104574015D01*
X141556218Y-104551593D01*
X141549752Y-104478987D01*
X141528318Y-104449069D01*
X141517061Y-104447174D01*
X141496908Y-104457055D01*
X141484842Y-104492893D01*
X141479109Y-104563978D01*
X141477904Y-104654511D01*
X141477904Y-104861849D01*
X140072920Y-104861849D01*
X140059188Y-104859810D01*
X140019943Y-104843992D01*
X140016033Y-104837245D01*
X139992064Y-104825485D01*
X139928660Y-104816785D01*
X139838575Y-104812749D01*
X139820247Y-104812641D01*
X139707605Y-104809204D01*
X139642330Y-104798413D01*
X139620058Y-104780010D01*
X139617225Y-104736923D01*
X139614685Y-104661395D01*
X139614547Y-104654511D01*
X139613532Y-104603802D01*
X139611408Y-104460226D01*
X139514586Y-104452188D01*
X139417764Y-104444150D01*
X139410167Y-104243349D01*
X139402570Y-104042549D01*
X139304677Y-104034447D01*
X139240506Y-104025312D01*
X139213052Y-104002106D01*
X139206840Y-103949355D01*
X139206783Y-103936553D01*
X139202638Y-103876362D01*
X139179534Y-103851676D01*
X139121473Y-103846771D01*
X139115417Y-103846762D01*
X139056918Y-103843601D01*
X139030920Y-103824083D01*
X139024254Y-103773155D01*
X139024050Y-103742343D01*
X139021511Y-103675506D01*
X139003992Y-103645807D01*
X138956637Y-103638175D01*
X138921131Y-103637924D01*
X138856323Y-103635328D01*
X138825426Y-103617791D01*
X138813718Y-103570692D01*
X138810186Y-103527744D01*
X138805573Y-103485470D01*
X139599721Y-103485470D01*
X139603306Y-103526978D01*
X139611408Y-103624871D01*
X139813721Y-103632496D01*
X140016033Y-103640120D01*
X140016033Y-103742343D01*
X140016033Y-103844566D01*
X140218346Y-103852191D01*
X140420658Y-103859815D01*
X140420658Y-103951182D01*
X140425602Y-104013276D01*
X140451032Y-104042065D01*
X140512025Y-104055601D01*
X140571640Y-104068014D01*
X140595820Y-104093601D01*
X140598045Y-104149953D01*
X140597036Y-104166547D01*
X140590679Y-104264440D01*
X140707981Y-104264440D01*
X140780095Y-104266439D01*
X140814219Y-104279673D01*
X140824569Y-104314995D01*
X140825283Y-104353991D01*
X140829800Y-104406324D01*
X140850031Y-104439140D01*
X140895993Y-104457513D01*
X140977701Y-104466520D01*
X141053700Y-104469723D01*
X141164646Y-104473278D01*
X141164646Y-104368859D01*
X141164646Y-104264440D01*
X141049309Y-104264440D01*
X140947522Y-104260006D01*
X140887363Y-104242599D01*
X140858696Y-104206059D01*
X140851388Y-104144230D01*
X140851388Y-104144175D01*
X140841106Y-104075197D01*
X140812230Y-104052338D01*
X140759534Y-104045217D01*
X140746968Y-104042549D01*
X140698191Y-104034448D01*
X140681706Y-104032759D01*
X140658771Y-104017961D01*
X140646529Y-103971879D01*
X140642580Y-103884714D01*
X140642549Y-103872867D01*
X140642549Y-103716238D01*
X140538130Y-103716238D01*
X140463110Y-103708767D01*
X140434298Y-103685434D01*
X140433710Y-103679874D01*
X140419625Y-103645592D01*
X140372710Y-103624223D01*
X140285980Y-103613749D01*
X140198208Y-103611819D01*
X140045290Y-103611819D01*
X140037188Y-103517884D01*
X140029086Y-103423950D01*
X139859404Y-103424179D01*
X139739622Y-103424342D01*
X139662898Y-103426885D01*
X139620097Y-103435476D01*
X139602083Y-103453782D01*
X139599721Y-103485470D01*
X138805573Y-103485470D01*
X138802636Y-103458561D01*
X138784135Y-103426937D01*
X138740622Y-103418312D01*
X138704265Y-103418079D01*
X138640207Y-103415241D01*
X138612792Y-103395520D01*
X138606477Y-103343487D01*
X138606372Y-103320921D01*
X138603551Y-103259521D01*
X138585367Y-103230058D01*
X138537242Y-103218643D01*
X138495427Y-103215221D01*
X138425223Y-103206853D01*
X138391538Y-103187271D01*
X138378687Y-103144425D01*
X138376407Y-103123779D01*
X138366624Y-103070508D01*
X138340490Y-103044336D01*
X138282217Y-103032715D01*
X138258936Y-103030446D01*
X138250325Y-103027308D01*
X138288166Y-103024146D01*
X138366701Y-103021160D01*
X138480173Y-103018547D01*
X138622824Y-103016507D01*
X138678161Y-103015969D01*
X139206783Y-103011408D01*
X139206783Y-103115827D01*
X139206783Y-103220246D01*
X139702775Y-103220246D01*
X140198767Y-103220246D01*
X140198767Y-103324666D01*
X140206398Y-103394593D01*
X140236404Y-103429209D01*
X140299452Y-103435896D01*
X140351557Y-103430417D01*
X140405750Y-103435826D01*
X140429872Y-103443725D01*
X140487263Y-103458177D01*
X140551182Y-103465065D01*
X140606354Y-103474371D01*
X140630469Y-103507307D01*
X140637677Y-103553083D01*
X140647193Y-103607880D01*
X140672334Y-103631949D01*
X140729494Y-103637827D01*
X140748622Y-103637924D01*
X140851388Y-103637924D01*
X140851388Y-103846762D01*
X140852083Y-103950338D01*
X140856389Y-104012357D01*
X140867633Y-104043471D01*
X140889146Y-104054334D01*
X140916650Y-104055601D01*
X140983381Y-104057764D01*
X141019933Y-104070157D01*
X141048320Y-104101632D01*
X141055180Y-104111320D01*
X141101080Y-104146682D01*
X141163050Y-104161973D01*
X141222918Y-104157232D01*
X141262512Y-104132499D01*
X141269065Y-104110855D01*
X141291114Y-104064920D01*
X141321275Y-104048037D01*
X141343698Y-104038482D01*
X141358600Y-104017635D01*
X141367503Y-103976288D01*
X141371925Y-103905233D01*
X141373387Y-103795260D01*
X141373484Y-103731735D01*
X141373484Y-103429085D01*
X141438746Y-103429085D01*
X141478285Y-103433710D01*
X141497732Y-103456691D01*
X141504411Y-103511683D01*
X141505227Y-103553083D01*
X141511005Y-103648184D01*
X141524655Y-103764404D01*
X141537929Y-103846762D01*
X141556692Y-103938282D01*
X141574879Y-103990286D01*
X141599528Y-104014911D01*
X141637677Y-104024294D01*
X141641130Y-104024704D01*
X141694148Y-104022902D01*
X141712169Y-103994520D01*
X141712847Y-103981156D01*
X141715464Y-103925511D01*
X141728970Y-103887805D01*
X141761845Y-103864558D01*
X141822571Y-103852290D01*
X141919629Y-103847520D01*
X142040375Y-103846762D01*
X142336211Y-103846762D01*
X142344313Y-103944656D01*
X142353831Y-104009286D01*
X142379088Y-104038604D01*
X142436970Y-104049496D01*
X142450309Y-104050651D01*
X142548202Y-104058753D01*
X142548202Y-103848338D01*
X142550024Y-103740723D01*
X142556637Y-103675978D01*
X142569762Y-103644854D01*
X142587359Y-103637924D01*
X142614586Y-103620681D01*
X142625806Y-103563524D01*
X142626516Y-103533504D01*
X142630894Y-103465190D01*
X142648591Y-103434997D01*
X142678726Y-103429085D01*
X142703625Y-103433043D01*
X142719055Y-103451571D01*
X142727253Y-103494650D01*
X142730460Y-103572260D01*
X142730936Y-103661853D01*
X142733685Y-103769424D01*
X142741121Y-103851812D01*
X142752027Y-103897730D01*
X142756979Y-103903323D01*
X142773935Y-103932344D01*
X142785433Y-103994802D01*
X142787363Y-104022970D01*
X142791704Y-104133916D01*
X142902103Y-104133916D01*
X142988453Y-104124296D01*
X143027356Y-104095201D01*
X143027529Y-104094758D01*
X143062896Y-104062686D01*
X143096425Y-104055601D01*
X143145082Y-104033153D01*
X143178820Y-103980311D01*
X143185303Y-103918826D01*
X143181547Y-103905498D01*
X143191047Y-103877684D01*
X143211082Y-103872867D01*
X143238196Y-103860082D01*
X143250779Y-103814442D01*
X143253032Y-103755396D01*
X143253032Y-103637924D01*
X143357451Y-103637924D01*
X143424292Y-103635292D01*
X143453992Y-103617978D01*
X143461619Y-103571858D01*
X143461863Y-103540031D01*
X143461856Y-103442138D01*
X143729438Y-103445733D01*
X143839642Y-103448665D01*
X143926475Y-103453751D01*
X143979375Y-103460200D01*
X143990494Y-103465312D01*
X143985824Y-103500482D01*
X143983967Y-103559609D01*
X143983967Y-103637924D01*
X143814584Y-103637924D01*
X143685424Y-103648801D01*
X143594543Y-103680037D01*
X143546601Y-103729540D01*
X143540185Y-103761197D01*
X143519293Y-103791067D01*
X143502628Y-103794553D01*
X143472445Y-103819948D01*
X143450385Y-103894172D01*
X143447454Y-103912024D01*
X143434008Y-103984114D01*
X143413928Y-104018370D01*
X143374555Y-104028817D01*
X143341435Y-104029496D01*
X143280280Y-104035215D01*
X143254616Y-104059986D01*
X143249116Y-104094758D01*
X143245046Y-104158444D01*
X143242590Y-104192651D01*
X143217055Y-104215625D01*
X143154008Y-104233778D01*
X143122508Y-104238335D01*
X143048018Y-104250959D01*
X143013091Y-104271628D01*
X143005036Y-104303597D01*
X142993802Y-104340055D01*
X142951362Y-104358387D01*
X142907143Y-104363909D01*
X142840412Y-104375494D01*
X142812629Y-104400546D01*
X142809250Y-104423700D01*
X142813181Y-104448962D01*
X142831882Y-104463679D01*
X142875718Y-104469975D01*
X142955052Y-104469972D01*
X143024615Y-104467808D01*
X143239980Y-104460226D01*
X143248082Y-104362333D01*
X143256602Y-104299274D01*
X143278943Y-104271528D01*
X143331515Y-104264616D01*
X143359027Y-104264440D01*
X143424856Y-104261861D01*
X143454107Y-104244076D01*
X143461624Y-104196015D01*
X143461871Y-104160020D01*
X143464963Y-104093066D01*
X143481722Y-104063302D01*
X143523369Y-104055766D01*
X143540185Y-104055601D01*
X143590401Y-104051478D01*
X143612724Y-104029133D01*
X143618376Y-103973604D01*
X143618500Y-103951182D01*
X143618500Y-103846762D01*
X143814286Y-103846762D01*
X144010072Y-103846762D01*
X144010072Y-103742343D01*
X144010072Y-103637924D01*
X144205858Y-103637924D01*
X144306126Y-103636619D01*
X144364971Y-103630854D01*
X144393151Y-103617853D01*
X144401425Y-103594839D01*
X144401645Y-103587404D01*
X144426119Y-103539533D01*
X144493012Y-103503845D01*
X144552340Y-103477364D01*
X144583156Y-103453789D01*
X144584378Y-103449946D01*
X144560053Y-103441474D01*
X144494183Y-103434656D01*
X144397425Y-103430284D01*
X144303752Y-103429080D01*
X144023125Y-103429074D01*
X144023388Y-103331187D01*
X144023651Y-103233299D01*
X144408434Y-103226075D01*
X144557282Y-103223001D01*
X144661835Y-103219412D01*
X144730001Y-103213976D01*
X144769688Y-103205364D01*
X144788805Y-103192244D01*
X144795258Y-103173284D01*
X144796228Y-103160813D01*
X144800282Y-103095345D01*
X144802755Y-103063618D01*
X144810802Y-103050048D01*
X144836405Y-103039648D01*
X144885882Y-103031868D01*
X144965554Y-103026160D01*
X145081740Y-103021974D01*
X145240761Y-103018761D01*
X145334892Y-103017394D01*
X145863515Y-103010327D01*
X145863515Y-103115287D01*
G37*
G36*
X142106319Y-99219681D02*
G01*
X142108091Y-99336149D01*
X142110703Y-99454354D01*
X142112845Y-99526413D01*
X142117472Y-99656937D01*
X142735914Y-99663932D01*
X143354356Y-99670927D01*
X143362430Y-99768351D01*
X143370504Y-99865776D01*
X143677236Y-99873130D01*
X143983967Y-99880485D01*
X143983967Y-99984076D01*
X143983967Y-100087667D01*
X144179754Y-100087667D01*
X144375540Y-100087667D01*
X144375540Y-100192086D01*
X144375540Y-100296505D01*
X144584378Y-100296505D01*
X144793217Y-100296505D01*
X144793217Y-100400925D01*
X144793217Y-100505344D01*
X145002056Y-100505344D01*
X145210894Y-100505344D01*
X145210894Y-100609763D01*
X145210894Y-100714183D01*
X145315314Y-100714183D01*
X145381617Y-100720010D01*
X145419728Y-100734557D01*
X145422996Y-100740288D01*
X145432318Y-100790593D01*
X145432785Y-100792497D01*
X145439832Y-100839011D01*
X145442575Y-100870812D01*
X145454140Y-100905183D01*
X145492398Y-100920269D01*
X145550257Y-100923021D01*
X145654677Y-100923021D01*
X145654677Y-101027441D01*
X145654677Y-101131860D01*
X145759096Y-101131860D01*
X145863515Y-101131860D01*
X145863515Y-101236279D01*
X145863515Y-101340699D01*
X145967934Y-101340699D01*
X146072354Y-101340699D01*
X146072354Y-101445118D01*
X146072354Y-101549537D01*
X146176773Y-101549537D01*
X146281192Y-101549537D01*
X146281192Y-101653957D01*
X146283731Y-101720794D01*
X146301250Y-101750493D01*
X146348605Y-101758125D01*
X146384111Y-101758376D01*
X146448835Y-101760951D01*
X146479742Y-101778407D01*
X146491474Y-101825339D01*
X146495056Y-101868956D01*
X146505109Y-101941080D01*
X146526045Y-101974379D01*
X146555293Y-101981963D01*
X146627652Y-101986178D01*
X146670433Y-101997943D01*
X146691392Y-102028449D01*
X146698286Y-102088886D01*
X146698870Y-102189106D01*
X146698870Y-102384892D01*
X146803289Y-102384892D01*
X146907708Y-102384892D01*
X146907708Y-102593731D01*
X146907708Y-102802569D01*
X147012128Y-102802569D01*
X147116547Y-102802569D01*
X147116547Y-103011408D01*
X147116547Y-103220246D01*
X147220966Y-103220246D01*
X147325386Y-103220246D01*
X147325386Y-103429085D01*
X147325386Y-103637924D01*
X147413708Y-103637924D01*
X147456031Y-103640461D01*
X147487015Y-103652756D01*
X147508430Y-103681837D01*
X147522050Y-103734731D01*
X147529646Y-103818466D01*
X147532992Y-103940067D01*
X147533860Y-104106564D01*
X147533868Y-104114337D01*
X147534224Y-104473278D01*
X147625591Y-104473278D01*
X147716958Y-104473278D01*
X147716958Y-104864851D01*
X147716958Y-105256423D01*
X148017164Y-105256423D01*
X148317369Y-105256423D01*
X148317369Y-105373895D01*
X148317369Y-105491367D01*
X148030216Y-105491367D01*
X147743063Y-105491367D01*
X147743063Y-105630882D01*
X147741399Y-105718213D01*
X147736928Y-105838407D01*
X147730432Y-105972240D01*
X147726127Y-106047195D01*
X147709191Y-106323993D01*
X147628234Y-106331883D01*
X147547277Y-106339774D01*
X147540104Y-106763977D01*
X147532931Y-107188181D01*
X147429158Y-107188181D01*
X147325386Y-107188181D01*
X147325386Y-107397019D01*
X147325386Y-107605858D01*
X147220966Y-107605858D01*
X147116547Y-107605858D01*
X147116547Y-107800068D01*
X147116547Y-107994279D01*
X147018654Y-108002381D01*
X146920761Y-108010483D01*
X146913137Y-108212795D01*
X146905512Y-108415108D01*
X146802191Y-108415108D01*
X146736057Y-108417666D01*
X146706670Y-108435389D01*
X146699118Y-108483347D01*
X146698870Y-108519527D01*
X146698870Y-108623946D01*
X146594450Y-108623946D01*
X146490031Y-108623946D01*
X146490031Y-108832785D01*
X146490031Y-109041624D01*
X146385612Y-109041624D01*
X146281192Y-109041624D01*
X146281192Y-109146043D01*
X146281192Y-109250462D01*
X146176773Y-109250462D01*
X146072354Y-109250462D01*
X146072354Y-109354882D01*
X146072354Y-109459301D01*
X145967934Y-109459301D01*
X145901097Y-109461840D01*
X145871398Y-109479359D01*
X145863766Y-109526713D01*
X145863515Y-109562219D01*
X145860939Y-109626947D01*
X145843479Y-109657854D01*
X145796540Y-109669585D01*
X145752953Y-109673165D01*
X145642391Y-109681192D01*
X145650731Y-109794920D01*
X145659071Y-109908648D01*
X145441509Y-109899339D01*
X145223947Y-109890031D01*
X145215933Y-109986437D01*
X145206217Y-110050487D01*
X145180238Y-110079350D01*
X145120979Y-110090043D01*
X145111514Y-110090856D01*
X145047567Y-110100529D01*
X145018685Y-110126382D01*
X145007956Y-110185391D01*
X145007070Y-110195692D01*
X144999032Y-110292514D01*
X144798231Y-110300111D01*
X144597431Y-110307708D01*
X144589329Y-110405601D01*
X144581227Y-110503494D01*
X144387016Y-110503494D01*
X144192806Y-110503494D01*
X144192806Y-110607913D01*
X144192806Y-110712333D01*
X143905653Y-110712333D01*
X143618500Y-110712333D01*
X143618500Y-110816752D01*
X143618500Y-110921171D01*
X143161665Y-110921171D01*
X142704831Y-110921171D01*
X142704831Y-111025591D01*
X142704831Y-111130010D01*
X142404625Y-111130010D01*
X142104420Y-111130010D01*
X142104420Y-111427423D01*
X142103430Y-111563347D01*
X142097994Y-111655542D01*
X142084413Y-111712483D01*
X142058989Y-111742643D01*
X142018023Y-111754499D01*
X141960786Y-111756526D01*
X141926936Y-111751911D01*
X141906609Y-111730159D01*
X141894293Y-111679412D01*
X141884980Y-111593371D01*
X141877643Y-111471464D01*
X141875158Y-111339787D01*
X141876376Y-111273587D01*
X141882529Y-111116958D01*
X141458331Y-111116958D01*
X141034134Y-111116958D01*
X141034128Y-111019065D01*
X141034122Y-110921171D01*
X140658938Y-110921171D01*
X140283754Y-110921171D01*
X140267057Y-110816752D01*
X140250360Y-110712333D01*
X140028777Y-110712333D01*
X139807195Y-110712333D01*
X139807195Y-110607913D01*
X139807195Y-110503494D01*
X139505348Y-110503494D01*
X139375495Y-110502787D01*
X139289329Y-110499792D01*
X139238333Y-110493202D01*
X139213995Y-110481706D01*
X139207799Y-110463997D01*
X139208149Y-110457811D01*
X139214185Y-110379641D01*
X139206535Y-110331542D01*
X139175749Y-110306212D01*
X139112375Y-110296351D01*
X139006962Y-110294657D01*
X138996957Y-110294656D01*
X138893113Y-110293855D01*
X138831143Y-110289477D01*
X138800713Y-110278557D01*
X138791491Y-110258133D01*
X138792178Y-110235920D01*
X138795250Y-110151168D01*
X138780963Y-110105839D01*
X138742010Y-110088121D01*
X138699315Y-110085817D01*
X138640110Y-110081648D01*
X138613040Y-110058826D01*
X138602629Y-110001875D01*
X138601422Y-109987924D01*
X138591862Y-109923263D01*
X138566660Y-109893937D01*
X138509191Y-109883080D01*
X138497049Y-109882025D01*
X138429444Y-109869446D01*
X138398798Y-109840682D01*
X138392629Y-109816763D01*
X138375474Y-109776491D01*
X138329401Y-109756774D01*
X138286588Y-109751404D01*
X138222417Y-109742270D01*
X138194963Y-109719064D01*
X138188752Y-109666313D01*
X138188695Y-109653511D01*
X138185438Y-109596016D01*
X138165636Y-109570464D01*
X138114242Y-109563917D01*
X138084276Y-109563720D01*
X138015720Y-109559195D01*
X137985484Y-109541276D01*
X137979856Y-109513086D01*
X137967838Y-109477444D01*
X137923348Y-109459400D01*
X137881963Y-109454351D01*
X137817333Y-109444833D01*
X137788015Y-109419576D01*
X137777123Y-109361694D01*
X137775968Y-109348355D01*
X137767085Y-109284367D01*
X137743697Y-109256904D01*
X137688999Y-109250556D01*
X137669222Y-109250462D01*
X137604516Y-109246821D01*
X137575888Y-109227045D01*
X137567285Y-109177854D01*
X137566660Y-109165622D01*
X137560733Y-109085731D01*
X137550631Y-108988225D01*
X137546780Y-108956783D01*
X137530817Y-108832785D01*
X137422500Y-108832785D01*
X137354036Y-108830434D01*
X137322983Y-108814467D01*
X137314546Y-108771509D01*
X137314183Y-108734892D01*
X137311373Y-108673355D01*
X137293225Y-108643832D01*
X137245161Y-108632403D01*
X137203238Y-108628972D01*
X137092292Y-108620944D01*
X137092292Y-108413607D01*
X137092292Y-108206269D01*
X136987873Y-108206269D01*
X136883454Y-108206269D01*
X136883454Y-108012059D01*
X136883454Y-107817848D01*
X136785560Y-107809746D01*
X136687667Y-107801644D01*
X136680043Y-107599332D01*
X136672419Y-107397019D01*
X136582953Y-107397019D01*
X136493488Y-107397019D01*
X136486158Y-107077235D01*
X136478829Y-106757451D01*
X136374409Y-106744399D01*
X136269990Y-106731346D01*
X136269990Y-106117883D01*
X136269990Y-105504419D01*
X135963258Y-105497064D01*
X135725639Y-105491367D01*
X136673687Y-105491367D01*
X136680677Y-106124387D01*
X136683287Y-106325307D01*
X136686406Y-106479824D01*
X136690456Y-106593748D01*
X136695859Y-106672884D01*
X136703035Y-106723041D01*
X136712407Y-106750025D01*
X136724396Y-106759646D01*
X136726825Y-106759979D01*
X136804596Y-106764919D01*
X136851305Y-106774466D01*
X136874802Y-106799615D01*
X136882937Y-106851361D01*
X136883559Y-106940698D01*
X136883454Y-106979342D01*
X136883454Y-107188181D01*
X136987873Y-107188181D01*
X137092292Y-107188181D01*
X137092292Y-107501439D01*
X137092292Y-107814697D01*
X137196711Y-107814697D01*
X137301131Y-107814697D01*
X137301131Y-108010483D01*
X137301131Y-108206269D01*
X137404049Y-108206269D01*
X137468697Y-108208825D01*
X137499613Y-108226208D01*
X137511368Y-108272989D01*
X137514995Y-108317215D01*
X137523022Y-108428160D01*
X137634001Y-108428160D01*
X137744980Y-108428160D01*
X137744947Y-108561947D01*
X137748217Y-108658734D01*
X137756516Y-108748018D01*
X137761228Y-108777312D01*
X137779550Y-108833914D01*
X137815894Y-108855856D01*
X137864072Y-108858890D01*
X137921201Y-108863319D01*
X137947432Y-108886907D01*
X137957697Y-108945101D01*
X137958702Y-108956783D01*
X137967418Y-109020707D01*
X137990261Y-109047467D01*
X138044003Y-109052044D01*
X138064697Y-109051462D01*
X138128045Y-109052224D01*
X138155681Y-109070045D01*
X138162424Y-109119744D01*
X138162590Y-109149355D01*
X138165246Y-109214073D01*
X138183261Y-109242830D01*
X138231705Y-109250220D01*
X138267010Y-109250462D01*
X138371429Y-109250462D01*
X138371429Y-109354882D01*
X138371429Y-109459301D01*
X138487360Y-109459301D01*
X138561250Y-109464852D01*
X138611013Y-109478831D01*
X138619845Y-109486086D01*
X138655433Y-109503606D01*
X138706227Y-109505665D01*
X138752526Y-109506381D01*
X138774397Y-109530757D01*
X138783856Y-109592779D01*
X138784156Y-109596351D01*
X138792676Y-109659410D01*
X138815017Y-109687156D01*
X138867589Y-109694068D01*
X138895101Y-109694244D01*
X138960930Y-109696823D01*
X138990181Y-109714608D01*
X138997698Y-109762669D01*
X138997945Y-109798664D01*
X138997945Y-109903083D01*
X139102364Y-109903083D01*
X139169220Y-109905849D01*
X139198931Y-109922928D01*
X139206550Y-109967490D01*
X139206783Y-109994450D01*
X139207401Y-110038453D01*
X139215590Y-110066777D01*
X139240854Y-110083146D01*
X139292696Y-110091284D01*
X139380620Y-110094916D01*
X139467832Y-110096753D01*
X139611408Y-110099738D01*
X139619289Y-110193481D01*
X139627169Y-110287223D01*
X139825540Y-110303992D01*
X139937994Y-110312371D01*
X140044095Y-110318384D01*
X140121337Y-110320759D01*
X140122815Y-110320760D01*
X140187698Y-110324293D01*
X140217187Y-110345123D01*
X140228063Y-110398603D01*
X140229822Y-110418653D01*
X140237924Y-110516547D01*
X140649075Y-110523736D01*
X141060226Y-110530925D01*
X141060226Y-110621629D01*
X141060226Y-110712333D01*
X141477904Y-110712333D01*
X141895581Y-110712333D01*
X141895581Y-110520377D01*
X141895581Y-110516547D01*
X142104420Y-110516547D01*
X142104420Y-110712333D01*
X142509044Y-110712333D01*
X142913669Y-110712333D01*
X142913669Y-110620966D01*
X142913669Y-110529599D01*
X143102929Y-110524830D01*
X143227493Y-110521548D01*
X143360939Y-110517795D01*
X143491163Y-110513942D01*
X143606060Y-110510354D01*
X143693525Y-110507401D01*
X143741454Y-110505449D01*
X143742498Y-110505391D01*
X143765642Y-110480219D01*
X143775097Y-110416760D01*
X143775129Y-110412127D01*
X143775129Y-110320760D01*
X143983967Y-110320760D01*
X144192806Y-110320760D01*
X144192806Y-110217439D01*
X144192806Y-110114118D01*
X144395118Y-110106494D01*
X144597431Y-110098869D01*
X144605533Y-110000976D01*
X144613635Y-109903083D01*
X144807845Y-109903083D01*
X145002056Y-109903083D01*
X145002056Y-109798664D01*
X145004589Y-109731827D01*
X145022121Y-109702128D01*
X145069555Y-109694495D01*
X145105292Y-109694244D01*
X145172695Y-109690481D01*
X145205785Y-109670180D01*
X145222374Y-109619822D01*
X145225669Y-109602878D01*
X145241202Y-109543480D01*
X145269484Y-109517670D01*
X145328522Y-109511582D01*
X145344324Y-109511511D01*
X145411472Y-109506860D01*
X145440627Y-109488194D01*
X145445838Y-109459301D01*
X145454594Y-109425144D01*
X145489987Y-109410047D01*
X145550257Y-109407091D01*
X145617212Y-109403999D01*
X145646976Y-109387240D01*
X145654512Y-109345593D01*
X145654677Y-109328777D01*
X145662238Y-109273790D01*
X145680457Y-109250468D01*
X145680781Y-109250462D01*
X145698036Y-109227514D01*
X145706661Y-109171086D01*
X145706886Y-109159095D01*
X145711341Y-109097654D01*
X145733392Y-109072456D01*
X145782408Y-109067728D01*
X145846319Y-109053599D01*
X145880142Y-109006023D01*
X145889620Y-108922017D01*
X145897147Y-108878761D01*
X145929955Y-108861440D01*
X145978194Y-108858890D01*
X146048929Y-108847268D01*
X146086364Y-108806109D01*
X146098356Y-108725972D01*
X146098459Y-108714361D01*
X146108871Y-108669495D01*
X146149552Y-108644738D01*
X146189826Y-108635276D01*
X146251378Y-108618303D01*
X146276585Y-108587411D01*
X146281192Y-108531969D01*
X146285755Y-108475953D01*
X146309321Y-108447361D01*
X146366705Y-108431463D01*
X146385612Y-108428160D01*
X146490031Y-108410519D01*
X146490031Y-108217027D01*
X146490031Y-108023535D01*
X146593352Y-108023535D01*
X146696674Y-108023535D01*
X146704298Y-107821223D01*
X146711922Y-107618910D01*
X146808744Y-107610872D01*
X146905567Y-107602834D01*
X146913164Y-107402034D01*
X146920761Y-107201233D01*
X147018654Y-107193131D01*
X147116547Y-107185029D01*
X147120523Y-106905978D01*
X147122395Y-106787180D01*
X147124326Y-106685576D01*
X147126055Y-106613948D01*
X147127049Y-106587770D01*
X147154325Y-106556175D01*
X147227493Y-106540510D01*
X147325386Y-106532408D01*
X147325386Y-106011888D01*
X147325386Y-105491367D01*
X147133430Y-105491367D01*
X146941474Y-105491367D01*
X146924591Y-105691092D01*
X146918651Y-105788805D01*
X146913625Y-105923766D01*
X146909918Y-106081016D01*
X146907933Y-106245595D01*
X146907708Y-106317608D01*
X146907708Y-106744399D01*
X146803289Y-106744399D01*
X146698870Y-106744399D01*
X146698870Y-106992606D01*
X146698870Y-107240813D01*
X146594450Y-107282593D01*
X146532151Y-107310432D01*
X146501403Y-107340613D01*
X146491074Y-107391312D01*
X146490031Y-107453072D01*
X146485671Y-107532879D01*
X146466175Y-107591709D01*
X146421922Y-107651434D01*
X146385612Y-107690440D01*
X146320083Y-107767394D01*
X146288263Y-107832169D01*
X146280867Y-107891744D01*
X146270345Y-107961146D01*
X146233411Y-108028993D01*
X146176448Y-108096458D01*
X146113266Y-108171947D01*
X146081714Y-108234499D01*
X146072420Y-108303503D01*
X146072354Y-108311823D01*
X146069794Y-108377934D01*
X146052067Y-108407310D01*
X146004100Y-108414859D01*
X145967934Y-108415108D01*
X145901097Y-108417646D01*
X145871398Y-108435166D01*
X145863766Y-108482520D01*
X145863515Y-108518026D01*
X145860919Y-108582835D01*
X145843382Y-108613731D01*
X145796283Y-108625439D01*
X145753335Y-108628972D01*
X145684152Y-108636522D01*
X145652528Y-108655022D01*
X145643903Y-108698535D01*
X145643671Y-108734892D01*
X145639727Y-108799750D01*
X145620178Y-108828239D01*
X145577643Y-108835796D01*
X145495015Y-108841394D01*
X145451013Y-108854930D01*
X145432079Y-108885973D01*
X145424683Y-108943731D01*
X145416163Y-109006789D01*
X145393822Y-109034535D01*
X145341251Y-109041447D01*
X145313738Y-109041624D01*
X145247909Y-109044203D01*
X145218659Y-109061987D01*
X145211142Y-109110048D01*
X145210894Y-109146043D01*
X145210894Y-109250462D01*
X145106475Y-109250462D01*
X145002056Y-109250462D01*
X145002056Y-109354882D01*
X145002056Y-109459301D01*
X144897636Y-109459301D01*
X144830799Y-109461832D01*
X144801101Y-109479369D01*
X144793468Y-109526823D01*
X144793217Y-109562622D01*
X144793217Y-109665943D01*
X144590905Y-109673568D01*
X144388592Y-109681192D01*
X144380490Y-109779085D01*
X144372388Y-109876978D01*
X144178178Y-109876978D01*
X144078560Y-109878231D01*
X144020269Y-109883934D01*
X143992446Y-109897008D01*
X143984232Y-109920372D01*
X143983967Y-109929188D01*
X143975040Y-109963572D01*
X143939109Y-109978608D01*
X143881307Y-109981398D01*
X143808252Y-109988244D01*
X143771391Y-110013008D01*
X143762392Y-110032612D01*
X143748457Y-110057794D01*
X143718894Y-110073938D01*
X143662960Y-110083635D01*
X143569915Y-110089482D01*
X143519163Y-110091348D01*
X143292189Y-110098869D01*
X143284162Y-110209815D01*
X143276135Y-110320760D01*
X142690277Y-110320760D01*
X142104420Y-110320760D01*
X142104420Y-110516547D01*
X141895581Y-110516547D01*
X141895581Y-110328421D01*
X141804952Y-110320760D01*
X141695856Y-110311538D01*
X141598143Y-110305598D01*
X141463181Y-110300572D01*
X141305932Y-110296865D01*
X141141353Y-110294880D01*
X141069340Y-110294656D01*
X140642549Y-110294656D01*
X140642549Y-110190236D01*
X140642549Y-110085817D01*
X140433710Y-110085817D01*
X140224872Y-110085817D01*
X140224872Y-110007502D01*
X140219641Y-109954575D01*
X140193325Y-109933104D01*
X140135046Y-109929188D01*
X140070023Y-109922271D01*
X140030858Y-109905386D01*
X140029086Y-109903083D01*
X139996870Y-109890411D01*
X139926800Y-109881132D01*
X139833205Y-109877036D01*
X139820282Y-109876978D01*
X139627612Y-109876978D01*
X139619510Y-109779085D01*
X139611408Y-109681192D01*
X139415622Y-109668140D01*
X139219836Y-109655087D01*
X139211822Y-109558681D01*
X139202106Y-109494631D01*
X139176127Y-109465768D01*
X139116868Y-109455075D01*
X139107403Y-109454262D01*
X139043990Y-109444812D01*
X139015012Y-109419601D01*
X139004097Y-109361874D01*
X139002828Y-109347228D01*
X138994659Y-109248207D01*
X139198614Y-109255861D01*
X139402570Y-109263515D01*
X139410672Y-109361408D01*
X139418774Y-109459301D01*
X139611483Y-109459301D01*
X139804193Y-109459301D01*
X139812220Y-109570246D01*
X139820247Y-109681192D01*
X140021047Y-109688789D01*
X140221848Y-109696386D01*
X140229886Y-109793208D01*
X140237924Y-109890031D01*
X140530456Y-109890031D01*
X140822987Y-109890031D01*
X140830661Y-109994450D01*
X140838335Y-110098869D01*
X141177698Y-110100454D01*
X141327423Y-110100240D01*
X141478727Y-110098465D01*
X141613199Y-110095433D01*
X141706321Y-110091785D01*
X141895581Y-110081533D01*
X141895581Y-109665997D01*
X141895581Y-109250462D01*
X142000000Y-109250462D01*
X142104420Y-109250462D01*
X142104420Y-109668140D01*
X142104620Y-109824166D01*
X142105929Y-109935565D01*
X142109406Y-110009922D01*
X142116109Y-110054817D01*
X142127101Y-110077836D01*
X142143438Y-110086560D01*
X142163155Y-110088439D01*
X142210841Y-110089286D01*
X142298676Y-110089706D01*
X142414600Y-110089680D01*
X142546554Y-110089187D01*
X142561254Y-110089105D01*
X142900617Y-110087149D01*
X142913669Y-109988590D01*
X142926722Y-109890031D01*
X143266085Y-109890031D01*
X143605447Y-109890031D01*
X143613549Y-109792138D01*
X143621651Y-109694244D01*
X143905728Y-109694244D01*
X144189804Y-109694244D01*
X144197831Y-109583299D01*
X144205858Y-109472353D01*
X144375540Y-109469483D01*
X144486809Y-109467262D01*
X144555917Y-109462302D01*
X144592888Y-109450269D01*
X144607746Y-109426830D01*
X144610515Y-109387654D01*
X144610483Y-109367934D01*
X144614584Y-109306676D01*
X144637219Y-109281552D01*
X144693887Y-109276574D01*
X144699057Y-109276567D01*
X144769871Y-109264900D01*
X144807310Y-109223622D01*
X144819231Y-109143317D01*
X144819322Y-109132431D01*
X144827369Y-109090728D01*
X144861229Y-109070505D01*
X144917215Y-109062778D01*
X144981873Y-109053222D01*
X145011198Y-109028015D01*
X145022059Y-108970512D01*
X145023122Y-108958270D01*
X145032838Y-108894220D01*
X145058817Y-108865357D01*
X145118076Y-108854664D01*
X145127541Y-108853851D01*
X145191591Y-108844134D01*
X145220454Y-108818155D01*
X145231147Y-108758897D01*
X145231960Y-108749431D01*
X145241677Y-108685381D01*
X145267656Y-108656518D01*
X145326914Y-108645825D01*
X145336380Y-108645012D01*
X145400064Y-108635449D01*
X145428994Y-108609913D01*
X145439814Y-108551537D01*
X145440888Y-108539106D01*
X145449408Y-108476047D01*
X145471749Y-108448301D01*
X145524320Y-108441389D01*
X145551833Y-108441213D01*
X145617661Y-108438634D01*
X145646912Y-108420849D01*
X145654429Y-108372788D01*
X145654677Y-108336793D01*
X145658002Y-108269690D01*
X145674791Y-108239778D01*
X145715259Y-108232139D01*
X145726465Y-108231974D01*
X145796675Y-108225620D01*
X145839653Y-108201080D01*
X145861208Y-108148708D01*
X145867147Y-108058856D01*
X145866269Y-108006132D01*
X146107160Y-108006132D01*
X146110744Y-108021651D01*
X146124563Y-108023535D01*
X146146051Y-108013984D01*
X146141967Y-108006132D01*
X146110986Y-108003008D01*
X146107160Y-108006132D01*
X145866269Y-108006132D01*
X145866166Y-107999926D01*
X145860757Y-107814697D01*
X145979608Y-107814697D01*
X146098459Y-107814697D01*
X146098459Y-107710277D01*
X146101225Y-107643421D01*
X146118303Y-107613710D01*
X146162865Y-107606091D01*
X146189826Y-107605858D01*
X146281192Y-107605858D01*
X146281192Y-107397019D01*
X146281192Y-107188181D01*
X146385612Y-107188181D01*
X146490031Y-107188181D01*
X146490031Y-106770503D01*
X146490031Y-106352826D01*
X146594450Y-106352826D01*
X146698870Y-106352826D01*
X146698870Y-105922096D01*
X146698870Y-105491367D01*
X146253587Y-105491367D01*
X145808304Y-105491367D01*
X145816331Y-105380421D01*
X145824358Y-105269476D01*
X146268879Y-105262358D01*
X146713399Y-105255240D01*
X146706244Y-104792471D01*
X146703920Y-104640839D01*
X146701898Y-104506485D01*
X146700312Y-104398467D01*
X146699296Y-104325843D01*
X146698979Y-104298647D01*
X146675808Y-104276754D01*
X146618504Y-104261442D01*
X146600977Y-104259489D01*
X146503084Y-104251387D01*
X146495742Y-103946183D01*
X146488401Y-103640978D01*
X146391323Y-103632925D01*
X146294245Y-103624871D01*
X146294245Y-103429085D01*
X146294245Y-103233299D01*
X146196352Y-103225197D01*
X146098459Y-103217095D01*
X146098459Y-103009832D01*
X146098553Y-102906421D01*
X146093329Y-102844142D01*
X146074526Y-102812000D01*
X146033884Y-102799001D01*
X145963143Y-102794148D01*
X145935303Y-102792666D01*
X145896898Y-102782784D01*
X145879524Y-102749246D01*
X145875020Y-102684983D01*
X145870829Y-102617797D01*
X145851775Y-102586551D01*
X145804104Y-102574991D01*
X145780062Y-102572751D01*
X145686653Y-102564824D01*
X145668437Y-102370439D01*
X145658106Y-102269844D01*
X145644586Y-102210181D01*
X145619030Y-102180480D01*
X145572590Y-102169770D01*
X145504574Y-102167279D01*
X145465739Y-102158781D01*
X145449044Y-102125921D01*
X145445838Y-102066561D01*
X145445838Y-101967215D01*
X145326046Y-101967215D01*
X145206253Y-101967215D01*
X145220859Y-101862795D01*
X145235464Y-101758376D01*
X145131812Y-101758376D01*
X145065467Y-101755832D01*
X145035986Y-101738151D01*
X145028410Y-101690263D01*
X145028161Y-101653957D01*
X145028161Y-101549537D01*
X144910689Y-101549537D01*
X144838413Y-101547161D01*
X144804177Y-101534040D01*
X144793841Y-101501189D01*
X144793217Y-101474875D01*
X144789871Y-101432494D01*
X144771545Y-101407910D01*
X144725804Y-101393393D01*
X144643114Y-101381575D01*
X144552983Y-101371334D01*
X144479446Y-101364653D01*
X144448745Y-101363141D01*
X144417977Y-101348917D01*
X144401345Y-101298907D01*
X144396535Y-101254129D01*
X144388592Y-101144912D01*
X144186280Y-101137288D01*
X143983967Y-101129664D01*
X143983967Y-101026343D01*
X143983967Y-100923021D01*
X143775129Y-100923021D01*
X143671076Y-100921931D01*
X143608715Y-100916911D01*
X143577543Y-100905335D01*
X143567059Y-100884577D01*
X143566290Y-100870812D01*
X143562161Y-100845426D01*
X143542967Y-100829920D01*
X143498501Y-100821891D01*
X143418553Y-100818938D01*
X143344399Y-100818602D01*
X143122508Y-100818602D01*
X143122508Y-100714183D01*
X143122508Y-100609763D01*
X142815776Y-100607561D01*
X142669448Y-100606241D01*
X142518817Y-100604433D01*
X142384896Y-100602411D01*
X142313258Y-100601035D01*
X142117472Y-100596711D01*
X142113264Y-100818602D01*
X142110827Y-100959865D01*
X142108483Y-101116936D01*
X142106739Y-101255818D01*
X142106738Y-101255858D01*
X142104420Y-101471223D01*
X142000631Y-101471223D01*
X141896843Y-101471223D01*
X141889686Y-101033967D01*
X141882529Y-100596711D01*
X141432221Y-100596711D01*
X140981914Y-100596711D01*
X140981913Y-100706940D01*
X140981912Y-100817169D01*
X140609918Y-100824412D01*
X140463609Y-100827675D01*
X140361386Y-100831668D01*
X140295128Y-100837688D01*
X140256714Y-100847030D01*
X140238023Y-100860991D01*
X140230935Y-100880868D01*
X140230286Y-100885019D01*
X140216175Y-100920583D01*
X140177720Y-100931118D01*
X140132393Y-100927846D01*
X140075161Y-100923715D01*
X140049337Y-100938259D01*
X140042417Y-100984883D01*
X140042138Y-101024585D01*
X140042138Y-101131860D01*
X139833299Y-101131860D01*
X139624461Y-101131860D01*
X139624461Y-101238279D01*
X139621905Y-101305811D01*
X139606329Y-101335377D01*
X139565872Y-101341205D01*
X139539620Y-101340054D01*
X139459276Y-101337736D01*
X139361311Y-101337573D01*
X139330781Y-101338054D01*
X139206783Y-101340699D01*
X139206783Y-101445118D01*
X139206783Y-101549537D01*
X139102364Y-101549537D01*
X138997945Y-101549537D01*
X138997945Y-101653957D01*
X138997945Y-101758376D01*
X138893525Y-101758376D01*
X138789106Y-101758376D01*
X138789106Y-101862795D01*
X138789106Y-101967215D01*
X138684687Y-101967215D01*
X138617847Y-101969846D01*
X138588148Y-101987158D01*
X138580526Y-102033276D01*
X138580285Y-102065108D01*
X138577100Y-102129166D01*
X138557152Y-102156582D01*
X138504899Y-102162897D01*
X138482391Y-102163001D01*
X138417994Y-102166625D01*
X138388801Y-102187835D01*
X138378017Y-102242141D01*
X138376379Y-102260894D01*
X138367163Y-102325105D01*
X138344030Y-102352570D01*
X138291968Y-102358742D01*
X138281279Y-102358787D01*
X138225885Y-102364113D01*
X138190848Y-102386394D01*
X138171652Y-102435088D01*
X138163780Y-102519652D01*
X138162590Y-102607342D01*
X138162590Y-102773313D01*
X138064697Y-102781415D01*
X138000039Y-102790971D01*
X137970714Y-102816178D01*
X137959853Y-102873681D01*
X137958791Y-102885923D01*
X137949074Y-102949973D01*
X137923095Y-102978836D01*
X137863837Y-102989529D01*
X137854371Y-102990342D01*
X137757965Y-102998355D01*
X137750383Y-103213720D01*
X137742801Y-103429085D01*
X137638603Y-103429085D01*
X137543347Y-103429085D01*
X137526885Y-103566135D01*
X137519643Y-103653513D01*
X137513972Y-103773310D01*
X137510688Y-103905741D01*
X137510196Y-103970760D01*
X137509969Y-104238335D01*
X137405550Y-104238335D01*
X137301131Y-104238335D01*
X137301035Y-104375385D01*
X137299781Y-104452836D01*
X137296415Y-104568057D01*
X137291420Y-104706674D01*
X137285280Y-104854314D01*
X137283922Y-104884429D01*
X137266905Y-105256423D01*
X137714747Y-105256423D01*
X138162590Y-105256423D01*
X138162590Y-105373264D01*
X138162590Y-105490104D01*
X137725334Y-105497262D01*
X137288078Y-105504419D01*
X137296978Y-106117883D01*
X137300012Y-106291508D01*
X137303718Y-106447178D01*
X137307839Y-106577478D01*
X137312116Y-106674993D01*
X137316293Y-106732307D01*
X137318716Y-106744399D01*
X137351258Y-106753945D01*
X137412093Y-106758952D01*
X137414236Y-106758997D01*
X137496917Y-106760542D01*
X137504499Y-106974361D01*
X137512081Y-107188181D01*
X137602392Y-107188181D01*
X137662929Y-107192291D01*
X137687756Y-107215293D01*
X137692694Y-107273191D01*
X137692703Y-107279548D01*
X137699260Y-107339938D01*
X137715382Y-107370125D01*
X137718808Y-107370915D01*
X137731521Y-107395455D01*
X137740524Y-107462949D01*
X137744735Y-107564207D01*
X137744913Y-107592806D01*
X137744913Y-107814697D01*
X137846100Y-107814697D01*
X137947286Y-107814697D01*
X137958966Y-107955532D01*
X137978373Y-108068208D01*
X138018309Y-108141071D01*
X138085193Y-108184574D01*
X138103635Y-108191076D01*
X138142424Y-108216223D01*
X138162091Y-108269398D01*
X138167679Y-108318518D01*
X138175670Y-108387856D01*
X138195638Y-108420839D01*
X138241794Y-108433272D01*
X138273536Y-108436262D01*
X138337739Y-108445463D01*
X138365202Y-108468608D01*
X138371382Y-108520792D01*
X138371429Y-108531861D01*
X138375967Y-108588988D01*
X138399534Y-108617876D01*
X138457055Y-108633732D01*
X138474394Y-108636753D01*
X138541218Y-108652226D01*
X138572321Y-108679256D01*
X138583947Y-108734423D01*
X138585340Y-108749993D01*
X138601681Y-108822889D01*
X138632477Y-108849352D01*
X138690482Y-108853571D01*
X138730370Y-108855879D01*
X138770570Y-108866702D01*
X138786850Y-108903679D01*
X138789106Y-108950257D01*
X138793147Y-109011494D01*
X138815947Y-109036608D01*
X138873519Y-109041612D01*
X138880473Y-109041624D01*
X138938972Y-109044785D01*
X138964969Y-109064303D01*
X138971636Y-109115231D01*
X138971840Y-109146043D01*
X138971840Y-109250462D01*
X138789106Y-109250462D01*
X138606372Y-109250462D01*
X138606372Y-109146043D01*
X138606372Y-109041624D01*
X138501953Y-109041624D01*
X138397534Y-109041624D01*
X138397534Y-108937204D01*
X138397534Y-108832785D01*
X138293114Y-108832785D01*
X138188695Y-108832785D01*
X138188695Y-108728366D01*
X138186134Y-108661528D01*
X138168666Y-108631829D01*
X138121612Y-108624197D01*
X138086993Y-108623946D01*
X137985290Y-108623946D01*
X137966804Y-108415108D01*
X137948318Y-108206269D01*
X137846615Y-108206269D01*
X137781517Y-108203640D01*
X137752590Y-108185705D01*
X137745157Y-108137394D01*
X137744913Y-108101850D01*
X137742071Y-108034979D01*
X137725098Y-108005260D01*
X137681317Y-107997652D01*
X137656909Y-107997430D01*
X137621143Y-107996424D01*
X137594718Y-107988527D01*
X137575337Y-107966422D01*
X137560704Y-107922792D01*
X137548522Y-107850318D01*
X137536493Y-107741684D01*
X137522321Y-107589573D01*
X137519653Y-107560175D01*
X137502472Y-107370915D01*
X137401801Y-107370915D01*
X137301131Y-107370915D01*
X137301131Y-107162076D01*
X137301131Y-106953237D01*
X137200311Y-106953237D01*
X137099491Y-106953237D01*
X137082266Y-106568191D01*
X137074311Y-106391112D01*
X137065408Y-106194065D01*
X137056646Y-106001138D01*
X137049156Y-105837256D01*
X137033272Y-105491367D01*
X136853479Y-105491367D01*
X136673687Y-105491367D01*
X135725639Y-105491367D01*
X135656526Y-105489710D01*
X135656526Y-105373067D01*
X135656526Y-105256423D01*
X135956732Y-105256423D01*
X136256938Y-105256423D01*
X136261452Y-104871377D01*
X136261689Y-104851798D01*
X136674615Y-104851798D01*
X136674615Y-105256423D01*
X136857349Y-105256423D01*
X137040082Y-105256423D01*
X137040082Y-104969270D01*
X137042275Y-104844260D01*
X137048376Y-104749801D01*
X137057674Y-104693944D01*
X137065524Y-104682117D01*
X137075521Y-104657070D01*
X137084411Y-104586151D01*
X137091693Y-104475695D01*
X137096864Y-104332038D01*
X137098155Y-104270966D01*
X137105345Y-103859815D01*
X137209764Y-103846762D01*
X137314183Y-103833710D01*
X137321808Y-103631398D01*
X137329432Y-103429085D01*
X137436389Y-103429085D01*
X137534404Y-103429085D01*
X137538786Y-103115827D01*
X137543167Y-102802569D01*
X137657092Y-102802569D01*
X137771018Y-102802569D01*
X137771018Y-102698150D01*
X137773784Y-102631294D01*
X137790862Y-102601583D01*
X137835424Y-102593964D01*
X137862385Y-102593731D01*
X137906184Y-102593210D01*
X137934367Y-102585314D01*
X137950629Y-102560545D01*
X137958666Y-102509403D01*
X137962175Y-102422389D01*
X137963964Y-102332682D01*
X137966804Y-102189106D01*
X138077750Y-102181079D01*
X138147240Y-102173679D01*
X138179212Y-102155241D01*
X138188235Y-102111192D01*
X138188695Y-102070133D01*
X138191579Y-102003907D01*
X138209203Y-101974718D01*
X138255021Y-101967409D01*
X138280062Y-101967215D01*
X138338561Y-101964053D01*
X138364558Y-101944535D01*
X138371225Y-101893607D01*
X138371429Y-101862795D01*
X138373969Y-101795958D01*
X138391485Y-101766259D01*
X138438821Y-101758627D01*
X138474272Y-101758376D01*
X138540780Y-101755234D01*
X138571508Y-101736154D01*
X138582866Y-101686657D01*
X138585218Y-101660483D01*
X138594735Y-101595853D01*
X138619992Y-101566534D01*
X138677874Y-101555642D01*
X138691213Y-101554488D01*
X138754272Y-101545967D01*
X138782018Y-101523626D01*
X138788929Y-101471055D01*
X138789106Y-101443542D01*
X138791685Y-101377714D01*
X138809469Y-101348463D01*
X138857531Y-101340946D01*
X138893525Y-101340699D01*
X138955048Y-101338625D01*
X138987787Y-101323851D01*
X139001999Y-101283553D01*
X139007939Y-101204902D01*
X139008336Y-101197122D01*
X139014876Y-101170487D01*
X139038316Y-101153957D01*
X139089394Y-101144396D01*
X139178846Y-101138671D01*
X139213310Y-101137288D01*
X139415622Y-101129664D01*
X139415622Y-101026343D01*
X139415622Y-100923021D01*
X139624461Y-100923021D01*
X139833299Y-100923021D01*
X139833299Y-100819700D01*
X139833299Y-100716379D01*
X140035612Y-100708755D01*
X140237924Y-100701130D01*
X140246026Y-100603237D01*
X140254128Y-100505344D01*
X140631073Y-100505344D01*
X141008017Y-100505344D01*
X141007996Y-100407451D01*
X141007975Y-100309558D01*
X141445252Y-100309558D01*
X141882529Y-100309558D01*
X141882529Y-100192086D01*
X141882529Y-100159272D01*
X142119357Y-100159272D01*
X142122492Y-100201302D01*
X142126551Y-100250822D01*
X142130524Y-100322610D01*
X142626516Y-100322610D01*
X143122508Y-100322610D01*
X143122508Y-100413977D01*
X143122508Y-100505344D01*
X143448818Y-100505344D01*
X143775129Y-100505344D01*
X143775129Y-100609763D01*
X143775129Y-100714183D01*
X143983967Y-100714183D01*
X144192806Y-100714183D01*
X144192806Y-100818602D01*
X144192806Y-100923021D01*
X144388592Y-100923021D01*
X144584378Y-100923021D01*
X144584378Y-101027441D01*
X144584378Y-101131860D01*
X144734481Y-101134750D01*
X144828066Y-101135582D01*
X144907725Y-101134627D01*
X144941738Y-101133089D01*
X144978300Y-101137183D01*
X144997186Y-101165896D01*
X145006347Y-101232392D01*
X145007000Y-101241145D01*
X145014841Y-101311669D01*
X145033810Y-101345588D01*
X145077381Y-101358456D01*
X145111514Y-101361764D01*
X145175564Y-101371481D01*
X145204428Y-101397460D01*
X145215120Y-101456718D01*
X145215933Y-101466184D01*
X145225496Y-101529868D01*
X145251032Y-101558798D01*
X145309409Y-101569618D01*
X145321840Y-101570692D01*
X145386031Y-101579869D01*
X145413491Y-101603034D01*
X145419683Y-101655413D01*
X145419733Y-101667084D01*
X145423140Y-101722701D01*
X145443077Y-101749600D01*
X145494114Y-101760430D01*
X145530679Y-101763401D01*
X145600363Y-101770987D01*
X145633591Y-101790693D01*
X145645995Y-101838153D01*
X145649651Y-101882374D01*
X145657702Y-101952098D01*
X145675870Y-101984137D01*
X145715454Y-101993005D01*
X145736033Y-101993319D01*
X145788885Y-102000769D01*
X145797336Y-102020908D01*
X145789174Y-102062206D01*
X145797195Y-102113340D01*
X145815453Y-102153689D01*
X145838002Y-102162634D01*
X145838176Y-102162528D01*
X145857573Y-102171537D01*
X145863515Y-102205461D01*
X145883222Y-102270826D01*
X145931234Y-102334143D01*
X145990886Y-102376862D01*
X146024695Y-102384892D01*
X146065489Y-102406121D01*
X146075365Y-102443628D01*
X146079388Y-102509233D01*
X146081891Y-102541521D01*
X146109986Y-102572996D01*
X146183299Y-102588780D01*
X146281192Y-102596882D01*
X146281192Y-102804145D01*
X146281192Y-103011408D01*
X146384556Y-103011408D01*
X146487920Y-103011408D01*
X146495502Y-103226773D01*
X146501440Y-103337392D01*
X146510996Y-103404667D01*
X146526065Y-103437434D01*
X146542241Y-103444688D01*
X146609577Y-103448393D01*
X146654356Y-103455098D01*
X146681134Y-103473838D01*
X146694468Y-103513651D01*
X146698911Y-103583574D01*
X146699021Y-103692644D01*
X146698870Y-103755396D01*
X146698870Y-104055601D01*
X146799277Y-104055601D01*
X146899685Y-104055601D01*
X146916749Y-104372958D01*
X146923989Y-104534514D01*
X146929705Y-104713255D01*
X146933148Y-104882855D01*
X146933813Y-104973369D01*
X146933813Y-105256423D01*
X147129599Y-105256423D01*
X147325386Y-105256423D01*
X147325386Y-104851798D01*
X147325386Y-104447174D01*
X147219151Y-104447174D01*
X147112916Y-104447174D01*
X147117218Y-104088232D01*
X147119347Y-103924713D01*
X147120236Y-103806211D01*
X147118416Y-103725535D01*
X147112418Y-103675494D01*
X147100770Y-103648896D01*
X147082004Y-103638549D01*
X147054648Y-103637262D01*
X147025180Y-103637924D01*
X146933813Y-103637924D01*
X146933813Y-103429085D01*
X146933813Y-103220246D01*
X146848973Y-103217155D01*
X146784458Y-103215880D01*
X146745252Y-103217054D01*
X146744553Y-103217155D01*
X146735474Y-103194624D01*
X146728632Y-103132004D01*
X146725178Y-103041405D01*
X146724975Y-103011408D01*
X146724975Y-102802569D01*
X146620555Y-102802569D01*
X146566030Y-102800917D01*
X146532950Y-102789068D01*
X146516254Y-102756686D01*
X146510883Y-102693434D01*
X146511777Y-102588975D01*
X146511928Y-102580678D01*
X146508112Y-102495145D01*
X146499620Y-102430575D01*
X146483644Y-102382750D01*
X146449051Y-102362608D01*
X146388293Y-102358787D01*
X146324632Y-102355817D01*
X146298779Y-102337210D01*
X146296346Y-102288423D01*
X146297898Y-102267420D01*
X146299627Y-102208526D01*
X146282801Y-102182658D01*
X146233288Y-102176227D01*
X146202874Y-102176053D01*
X146100655Y-102176053D01*
X146093031Y-101973741D01*
X146085406Y-101771428D01*
X145974461Y-101763401D01*
X145904970Y-101756002D01*
X145872999Y-101737564D01*
X145863975Y-101693515D01*
X145863515Y-101652456D01*
X145860940Y-101586579D01*
X145843165Y-101557307D01*
X145795120Y-101549785D01*
X145759096Y-101549537D01*
X145654677Y-101549537D01*
X145654677Y-101445118D01*
X145652137Y-101378281D01*
X145634621Y-101348582D01*
X145587285Y-101340950D01*
X145551833Y-101340699D01*
X145485325Y-101337556D01*
X145454597Y-101318476D01*
X145443239Y-101268980D01*
X145440888Y-101242806D01*
X145432443Y-101180848D01*
X145410284Y-101151272D01*
X145358595Y-101139842D01*
X145323271Y-101136955D01*
X145254144Y-101129249D01*
X145221370Y-101109080D01*
X145209195Y-101060692D01*
X145205799Y-101019483D01*
X145197842Y-100909969D01*
X144995530Y-100902345D01*
X144793217Y-100894720D01*
X144793217Y-100791399D01*
X144793217Y-100688078D01*
X144599007Y-100688078D01*
X144404796Y-100688078D01*
X144396694Y-100590185D01*
X144388592Y-100492292D01*
X144186280Y-100484667D01*
X143983967Y-100477043D01*
X143983967Y-100373722D01*
X143983967Y-100270401D01*
X143749024Y-100270401D01*
X143514080Y-100270401D01*
X143514080Y-100165555D01*
X143514080Y-100060709D01*
X142816079Y-100067662D01*
X142605892Y-100069387D01*
X142442216Y-100070879D01*
X142319381Y-100073643D01*
X142231716Y-100079187D01*
X142173551Y-100089015D01*
X142139216Y-100104635D01*
X142123042Y-100127552D01*
X142119357Y-100159272D01*
X141882529Y-100159272D01*
X141882529Y-100074614D01*
X141340853Y-100067559D01*
X140799178Y-100060503D01*
X140799178Y-100164754D01*
X140799178Y-100269005D01*
X140414132Y-100276229D01*
X140029086Y-100283453D01*
X140021058Y-100394399D01*
X140013031Y-100505344D01*
X139805694Y-100505344D01*
X139598356Y-100505344D01*
X139598381Y-100603237D01*
X139598407Y-100701130D01*
X139409121Y-100701130D01*
X139219836Y-100701130D01*
X139206783Y-100805550D01*
X139193731Y-100909969D01*
X138991419Y-100917593D01*
X138789106Y-100925218D01*
X138789106Y-101028539D01*
X138786479Y-101094913D01*
X138768545Y-101124229D01*
X138720222Y-101131637D01*
X138686263Y-101131860D01*
X138619755Y-101135002D01*
X138589027Y-101154082D01*
X138577669Y-101203579D01*
X138575317Y-101229753D01*
X138565800Y-101294383D01*
X138540543Y-101323702D01*
X138482661Y-101334594D01*
X138469322Y-101335748D01*
X138406263Y-101344269D01*
X138378517Y-101366610D01*
X138371606Y-101419181D01*
X138371429Y-101446694D01*
X138368850Y-101512522D01*
X138351066Y-101541773D01*
X138303004Y-101549290D01*
X138267010Y-101549537D01*
X138162590Y-101549537D01*
X138162590Y-101653957D01*
X138162590Y-101758376D01*
X138058171Y-101758376D01*
X137953752Y-101758376D01*
X137953752Y-101862795D01*
X137950986Y-101929651D01*
X137933907Y-101959362D01*
X137889345Y-101966981D01*
X137862385Y-101967215D01*
X137771018Y-101967215D01*
X137771018Y-102163001D01*
X137771018Y-102358787D01*
X137653546Y-102358787D01*
X137536074Y-102358787D01*
X137536074Y-102461705D01*
X137533518Y-102526353D01*
X137516135Y-102557269D01*
X137469355Y-102569024D01*
X137425129Y-102572651D01*
X137314183Y-102580678D01*
X137306601Y-102796043D01*
X137299019Y-103011408D01*
X137195656Y-103011408D01*
X137092292Y-103011408D01*
X137092292Y-103311613D01*
X137092292Y-103611819D01*
X136987873Y-103611819D01*
X136883454Y-103611819D01*
X136883454Y-104029496D01*
X136883454Y-104447174D01*
X136779034Y-104447174D01*
X136674615Y-104447174D01*
X136674615Y-104851798D01*
X136261689Y-104851798D01*
X136263218Y-104725268D01*
X136264961Y-104589137D01*
X136266511Y-104475679D01*
X136266944Y-104447174D01*
X136267698Y-104397592D01*
X136267978Y-104381911D01*
X136271819Y-104316318D01*
X136289857Y-104284964D01*
X136336930Y-104273081D01*
X136380936Y-104269465D01*
X136491881Y-104261438D01*
X136491864Y-103864840D01*
X136491847Y-103468242D01*
X136589757Y-103468242D01*
X136687667Y-103468242D01*
X136695210Y-103239825D01*
X136702752Y-103011408D01*
X136808919Y-103011408D01*
X136915087Y-103011408D01*
X136905657Y-102803758D01*
X136896227Y-102596108D01*
X137000786Y-102588393D01*
X137067570Y-102580624D01*
X137096814Y-102560683D01*
X137103112Y-102513604D01*
X137102484Y-102484107D01*
X137103591Y-102422685D01*
X137121409Y-102393674D01*
X137170359Y-102382656D01*
X137206904Y-102379688D01*
X137314183Y-102371839D01*
X137321808Y-102169527D01*
X137329432Y-101967215D01*
X137445805Y-101967215D01*
X137562179Y-101967215D01*
X137562179Y-101758376D01*
X137562179Y-101549537D01*
X137666598Y-101549537D01*
X137771018Y-101549537D01*
X137771018Y-101445118D01*
X137771018Y-101340699D01*
X137875437Y-101340699D01*
X137979856Y-101340699D01*
X137979856Y-101236279D01*
X137979856Y-101131860D01*
X138084276Y-101131860D01*
X138151113Y-101129327D01*
X138180812Y-101111795D01*
X138188444Y-101064364D01*
X138188695Y-101028633D01*
X138188695Y-100925407D01*
X138364903Y-100917688D01*
X138541110Y-100909969D01*
X138541110Y-100812059D01*
X138541110Y-100714149D01*
X138678161Y-100714166D01*
X138815211Y-100714183D01*
X138815211Y-100609763D01*
X138815211Y-100505344D01*
X139010997Y-100505344D01*
X139206783Y-100505344D01*
X139206783Y-100402023D01*
X139206783Y-100298702D01*
X139409096Y-100291077D01*
X139611408Y-100283453D01*
X139619446Y-100186631D01*
X139627485Y-100089809D01*
X139828285Y-100082211D01*
X140029086Y-100074614D01*
X140037134Y-99977618D01*
X140045183Y-99880621D01*
X140311235Y-99873198D01*
X140577287Y-99865776D01*
X140585389Y-99767883D01*
X140593491Y-99669990D01*
X141244536Y-99669990D01*
X141895581Y-99669990D01*
X141895581Y-99356732D01*
X141895581Y-99043474D01*
X142000000Y-99043474D01*
X142104420Y-99043474D01*
X142106319Y-99219681D01*
G37*
D13*
%TO.C,SW4*%
X168025000Y-85805000D02*
X168025000Y-87305000D01*
X169275000Y-89805000D02*
X173775000Y-89805000D01*
X173775000Y-83305000D02*
X169275000Y-83305000D01*
X175025000Y-87305000D02*
X175025000Y-85805000D01*
%TO.C,SW1*%
X178070000Y-75630000D02*
X178070000Y-80130000D01*
X180570000Y-81380000D02*
X182070000Y-81380000D01*
X182070000Y-74380000D02*
X180570000Y-74380000D01*
X184570000Y-80130000D02*
X184570000Y-75630000D01*
%TO.C,SW2*%
X167950000Y-68465000D02*
X167950000Y-69965000D01*
X169200000Y-72465000D02*
X173700000Y-72465000D01*
X173700000Y-65965000D02*
X169200000Y-65965000D01*
X174950000Y-69965000D02*
X174950000Y-68465000D01*
%TO.C,SW5*%
X167910000Y-75780000D02*
X167910000Y-80280000D01*
X170410000Y-81530000D02*
X171910000Y-81530000D01*
X171910000Y-74530000D02*
X170410000Y-74530000D01*
X174410000Y-80280000D02*
X174410000Y-75780000D01*
%TO.C,SW3*%
X157750000Y-76070000D02*
X157750000Y-80570000D01*
X160250000Y-81820000D02*
X161750000Y-81820000D01*
X161750000Y-74820000D02*
X160250000Y-74820000D01*
X164250000Y-80570000D02*
X164250000Y-76070000D01*
D11*
%TO.C,S2*%
X163015000Y-94498000D02*
X176330000Y-94498000D01*
X166330000Y-112697000D02*
X176165000Y-112697000D01*
D14*
X171330000Y-93398000D02*
X171330000Y-93398000D01*
X171330000Y-93597000D02*
X171330000Y-93597000D01*
D11*
X176165000Y-112697000D02*
X176165000Y-99597000D01*
D14*
X171330000Y-93398000D02*
G75*
G02*
X171330000Y-93597000I0J-99500D01*
G01*
X171330000Y-93597000D02*
G75*
G02*
X171330000Y-93398000I0J99500D01*
G01*
%TD*%
M02*
