%TF.GenerationSoftware,KiCad,Pcbnew,8.0.6*%
%TF.CreationDate,2025-10-28T17:51:58+09:00*%
%TF.ProjectId,Drone_hacking_PCB,44726f6e-655f-4686-9163-6b696e675f50,rev?*%
%TF.SameCoordinates,Original*%
%TF.FileFunction,Copper,L1,Top*%
%TF.FilePolarity,Positive*%
%FSLAX46Y46*%
G04 Gerber Fmt 4.6, Leading zero omitted, Abs format (unit mm)*
G04 Created by KiCad (PCBNEW 8.0.6) date 2025-10-28 17:51:58*
%MOMM*%
%LPD*%
G01*
G04 APERTURE LIST*
%TA.AperFunction,ComponentPad*%
%ADD10O,1.600000X2.000000*%
%TD*%
%TA.AperFunction,ComponentPad*%
%ADD11C,1.524000*%
%TD*%
%TA.AperFunction,ComponentPad*%
%ADD12C,1.600000*%
%TD*%
%TA.AperFunction,ComponentPad*%
%ADD13O,1.600000X1.600000*%
%TD*%
%TA.AperFunction,ComponentPad*%
%ADD14C,1.950000*%
%TD*%
%TA.AperFunction,ComponentPad*%
%ADD15C,1.650000*%
%TD*%
%TA.AperFunction,ComponentPad*%
%ADD16C,2.400000*%
%TD*%
%TA.AperFunction,ComponentPad*%
%ADD17C,2.475000*%
%TD*%
%TA.AperFunction,ComponentPad*%
%ADD18C,2.000000*%
%TD*%
%TA.AperFunction,ViaPad*%
%ADD19C,0.600000*%
%TD*%
%TA.AperFunction,Conductor*%
%ADD20C,0.200000*%
%TD*%
%TA.AperFunction,Conductor*%
%ADD21C,0.500000*%
%TD*%
%TA.AperFunction,Conductor*%
%ADD22C,0.600000*%
%TD*%
G04 APERTURE END LIST*
D10*
%TO.P,Brd1,1,GND*%
%TO.N,GND*%
X137350000Y-73220000D03*
%TO.P,Brd1,2,VCC*%
%TO.N,3.3V*%
X139890000Y-73220000D03*
%TO.P,Brd1,3,SCL*%
%TO.N,SSD1306_SCL*%
X142430000Y-73220000D03*
%TO.P,Brd1,4,SDA*%
%TO.N,SSD1306_SDA*%
X144970000Y-73220000D03*
%TD*%
D11*
%TO.P,U1,1,5v*%
%TO.N,VIN*%
X117840000Y-90130000D03*
%TO.P,U1,2,GPIO11*%
%TO.N,unconnected-(U1-GPIO11-Pad2)*%
X120380000Y-90130000D03*
%TO.P,U1,3,GPIO10*%
%TO.N,unconnected-(U1-GPIO10-Pad3)*%
X122920000Y-90130000D03*
%TO.P,U1,4,GPIO9*%
%TO.N,unconnected-(U1-GPIO9-Pad4)*%
X125460000Y-90130000D03*
%TO.P,U1,5,GPIO13*%
%TO.N,SW_5*%
X128000000Y-90130000D03*
%TO.P,U1,6,GND*%
%TO.N,GND*%
X130540000Y-90130000D03*
%TO.P,U1,7,GPIO12*%
%TO.N,unconnected-(U1-GPIO12-Pad7)*%
X133080000Y-90130000D03*
%TO.P,U1,8,GPIO14*%
%TO.N,unconnected-(U1-GPIO14-Pad8)*%
X135620000Y-90130000D03*
%TO.P,U1,9,GPIO27*%
%TO.N,SW_4*%
X138160000Y-90130000D03*
%TO.P,U1,10,GPIO26*%
%TO.N,SSD1306_SCL*%
X140700000Y-90130000D03*
%TO.P,U1,11,GPIO25*%
%TO.N,SSD1306_SDA*%
X143240000Y-90130000D03*
%TO.P,U1,12,GPIO33*%
%TO.N,L_VR_out1*%
X145780000Y-90130000D03*
%TO.P,U1,13,GPIO32*%
%TO.N,L_VR_out2*%
X148320000Y-90130000D03*
%TO.P,U1,14,GPIO35*%
%TO.N,R_VR_out1*%
X150860000Y-90130000D03*
%TO.P,U1,15,GPIO34*%
%TO.N,R_VR_out2*%
X153400000Y-90130000D03*
%TO.P,U1,16,GPIO39*%
%TO.N,unconnected-(U1-GPIO39-Pad16)*%
X155940000Y-90130000D03*
%TO.P,U1,17,GPIO36*%
%TO.N,unconnected-(U1-GPIO36-Pad17)*%
X158480000Y-90130000D03*
%TO.P,U1,18,EN*%
%TO.N,unconnected-(U1-EN-Pad18)*%
X161020000Y-90130000D03*
%TO.P,U1,19,3.3v*%
%TO.N,3.3V*%
X163560000Y-90130000D03*
%TO.P,U1,20,GPIO6*%
%TO.N,unconnected-(U1-GPIO6-Pad20)*%
X117840000Y-64720000D03*
%TO.P,U1,21,GPIO7*%
%TO.N,unconnected-(U1-GPIO7-Pad21)*%
X120380000Y-64720000D03*
%TO.P,U1,22,GPIO8*%
%TO.N,unconnected-(U1-GPIO8-Pad22)*%
X122920000Y-64720000D03*
%TO.P,U1,23,GPIO15*%
%TO.N,unconnected-(U1-GPIO15-Pad23)*%
X125460000Y-64720000D03*
%TO.P,U1,24,GPIO2*%
%TO.N,unconnected-(U1-GPIO2-Pad24)*%
X128000000Y-64720000D03*
%TO.P,U1,25,GPIO0*%
%TO.N,unconnected-(U1-GPIO0-Pad25)*%
X130540000Y-64720000D03*
%TO.P,U1,26,GPIO4*%
%TO.N,unconnected-(U1-GPIO4-Pad26)*%
X133080000Y-64720000D03*
%TO.P,U1,27,GPIO16*%
%TO.N,unconnected-(U1-GPIO16-Pad27)*%
X135620000Y-64720000D03*
%TO.P,U1,28,GPIO17*%
%TO.N,unconnected-(U1-GPIO17-Pad28)*%
X138160000Y-64720000D03*
%TO.P,U1,29,GPIO5*%
%TO.N,unconnected-(U1-GPIO5-Pad29)*%
X140700000Y-64720000D03*
%TO.P,U1,30,GPIO18*%
%TO.N,unconnected-(U1-GPIO18-Pad30)*%
X143240000Y-64720000D03*
%TO.P,U1,31,GPIO19*%
%TO.N,SW_3*%
X145780000Y-64720000D03*
%TO.P,U1,32,GND*%
%TO.N,GND*%
X148320000Y-64720000D03*
%TO.P,U1,33,GPIO21*%
%TO.N,unconnected-(U1-GPIO21-Pad33)*%
X150860000Y-64720000D03*
%TO.P,U1,34,GPIO3*%
%TO.N,unconnected-(U1-GPIO3-Pad34)*%
X153400000Y-64720000D03*
%TO.P,U1,35,GPIO1*%
%TO.N,unconnected-(U1-GPIO1-Pad35)*%
X155940000Y-64720000D03*
%TO.P,U1,36,GPIO22*%
%TO.N,SW_2*%
X158480000Y-64720000D03*
%TO.P,U1,37,GPIO23*%
%TO.N,SW_1*%
X161020000Y-64720000D03*
%TO.P,U1,38,GND*%
%TO.N,GND*%
X163560000Y-64720000D03*
%TD*%
D12*
%TO.P,R1,1*%
%TO.N,SW_1*%
X109220000Y-67310000D03*
D13*
%TO.P,R1,2*%
%TO.N,3.3V*%
X99060000Y-67310000D03*
%TD*%
D12*
%TO.P,R4,1*%
%TO.N,SW_4*%
X109220000Y-77470000D03*
D13*
%TO.P,R4,2*%
%TO.N,3.3V*%
X99060000Y-77470000D03*
%TD*%
D12*
%TO.P,R3,1*%
%TO.N,SW_3*%
X109220000Y-87630000D03*
D13*
%TO.P,R3,2*%
%TO.N,3.3V*%
X99060000Y-87630000D03*
%TD*%
D12*
%TO.P,R2,1*%
%TO.N,SW_2*%
X109220000Y-72390000D03*
D13*
%TO.P,R2,2*%
%TO.N,3.3V*%
X99060000Y-72390000D03*
%TD*%
D12*
%TO.P,R5,1*%
%TO.N,SW_5*%
X109220000Y-82550000D03*
D13*
%TO.P,R5,2*%
%TO.N,3.3V*%
X99060000Y-82550000D03*
%TD*%
D14*
%TO.P,S1,A1,A1*%
%TO.N,unconnected-(S1-PadA1)*%
X119925000Y-107872500D03*
D15*
%TO.P,S1,A11,A11*%
%TO.N,3.3V*%
X116675000Y-95892500D03*
%TO.P,S1,A12,A12*%
%TO.N,R_VR_out2*%
X114175000Y-95892500D03*
%TO.P,S1,A13,A13*%
%TO.N,GND*%
X111675000Y-95892500D03*
D14*
%TO.P,S1,B1,B1*%
%TO.N,unconnected-(S1-PadB1)*%
X124425000Y-107872500D03*
D15*
%TO.P,S1,B11,B11*%
%TO.N,3.3V*%
X105445000Y-102122500D03*
%TO.P,S1,B12,B12*%
%TO.N,R_VR_out1*%
X105445000Y-104622500D03*
%TO.P,S1,B13,B13*%
%TO.N,GND*%
X105445000Y-107122500D03*
D14*
%TO.P,S1,C1,C1*%
%TO.N,unconnected-(S1-PadC1)*%
X119925000Y-101372500D03*
%TO.P,S1,D1,D1*%
%TO.N,unconnected-(S1-PadD1)*%
X124425000Y-101372500D03*
D16*
%TO.P,S1,MH1,MH1*%
%TO.N,unconnected-(S1-PadMH1)*%
X119175000Y-110947500D03*
%TO.P,S1,MH2,MH2*%
%TO.N,unconnected-(S1-PadMH2)*%
X109175000Y-110947500D03*
%TO.P,S1,MH3,MH3*%
%TO.N,unconnected-(S1-PadMH3)*%
X119175000Y-98297500D03*
%TO.P,S1,MH4,MH4*%
%TO.N,unconnected-(S1-PadMH4)*%
X109175000Y-98297500D03*
D17*
%TO.P,S1,MH5,MH5*%
%TO.N,unconnected-(S1-PadMH5)*%
X114175000Y-108922500D03*
%TO.P,S1,MH6,MH6*%
%TO.N,unconnected-(S1-PadMH6)*%
X114175000Y-100322500D03*
%TD*%
D18*
%TO.P,SW4,1,1*%
%TO.N,SW_4*%
X168275000Y-84305000D03*
X174775000Y-84305000D03*
%TO.P,SW4,2,2*%
%TO.N,GND*%
X168275000Y-88805000D03*
X174775000Y-88805000D03*
%TD*%
%TO.P,SW1,1,1*%
%TO.N,SW_1*%
X179070000Y-81130000D03*
X179070000Y-74630000D03*
%TO.P,SW1,2,2*%
%TO.N,GND*%
X183570000Y-81130000D03*
X183570000Y-74630000D03*
%TD*%
%TO.P,SW2,1,1*%
%TO.N,SW_2*%
X174700000Y-71465000D03*
X168200000Y-71465000D03*
%TO.P,SW2,2,2*%
%TO.N,GND*%
X174700000Y-66965000D03*
X168200000Y-66965000D03*
%TD*%
%TO.P,SW5,1,1*%
%TO.N,SW_5*%
X168910000Y-81280000D03*
X168910000Y-74780000D03*
%TO.P,SW5,2,2*%
%TO.N,GND*%
X173410000Y-81280000D03*
X173410000Y-74780000D03*
%TD*%
%TO.P,SW3,1,1*%
%TO.N,SW_3*%
X158750000Y-81570000D03*
X158750000Y-75070000D03*
%TO.P,SW3,2,2*%
%TO.N,GND*%
X163250000Y-81570000D03*
X163250000Y-75070000D03*
%TD*%
D14*
%TO.P,S2,A1,A1*%
%TO.N,unconnected-(S2-PadA1)*%
X174580000Y-108050000D03*
D15*
%TO.P,S2,A11,A11*%
%TO.N,3.3V*%
X171330000Y-96070000D03*
%TO.P,S2,A12,A12*%
%TO.N,L_VR_out2*%
X168830000Y-96070000D03*
%TO.P,S2,A13,A13*%
%TO.N,GND*%
X166330000Y-96070000D03*
D14*
%TO.P,S2,B1,B1*%
%TO.N,unconnected-(S2-PadB1)*%
X179080000Y-108050000D03*
D15*
%TO.P,S2,B11,B11*%
%TO.N,3.3V*%
X160100000Y-102300000D03*
%TO.P,S2,B12,B12*%
%TO.N,L_VR_out1*%
X160100000Y-104800000D03*
%TO.P,S2,B13,B13*%
%TO.N,GND*%
X160100000Y-107300000D03*
D14*
%TO.P,S2,C1,C1*%
%TO.N,unconnected-(S2-PadC1)*%
X174580000Y-101550000D03*
%TO.P,S2,D1,D1*%
%TO.N,unconnected-(S2-PadD1)*%
X179080000Y-101550000D03*
D16*
%TO.P,S2,MH1,MH1*%
%TO.N,unconnected-(S2-PadMH1)*%
X173830000Y-111125000D03*
%TO.P,S2,MH2,MH2*%
%TO.N,unconnected-(S2-PadMH2)*%
X163830000Y-111125000D03*
%TO.P,S2,MH3,MH3*%
%TO.N,unconnected-(S2-PadMH3)*%
X173830000Y-98475000D03*
%TO.P,S2,MH4,MH4*%
%TO.N,unconnected-(S2-PadMH4)*%
X163830000Y-98475000D03*
D17*
%TO.P,S2,MH5,MH5*%
%TO.N,unconnected-(S2-PadMH5)*%
X168830000Y-109100000D03*
%TO.P,S2,MH6,MH6*%
%TO.N,unconnected-(S2-PadMH6)*%
X168830000Y-100500000D03*
%TD*%
D11*
%TO.P,J1,1,Pin_1*%
%TO.N,GND*%
X98425000Y-92710000D03*
%TO.P,J1,2,Pin_2*%
%TO.N,VIN*%
X98425000Y-105660000D03*
%TD*%
D19*
%TO.N,SW_4*%
X138160000Y-77470000D03*
%TO.N,SW_3*%
X115746700Y-75329500D03*
%TO.N,VIN*%
X100053900Y-90462900D03*
%TO.N,GND*%
X160920400Y-68013600D03*
%TO.N,R_VR_out1*%
X150860000Y-94662000D03*
%TD*%
D20*
%TO.N,SW_5*%
X128000000Y-84395900D02*
X128000000Y-90130000D01*
X165794100Y-84395900D02*
X128000000Y-84395900D01*
X168910000Y-81280000D02*
X165794100Y-84395900D01*
X111065900Y-84395900D02*
X109220000Y-82550000D01*
X128000000Y-84395900D02*
X111065900Y-84395900D01*
%TO.N,SW_4*%
X174775000Y-84305000D02*
X168275000Y-84305000D01*
X109220000Y-77470000D02*
X138160000Y-77470000D01*
X140310900Y-87979100D02*
X138160000Y-90130000D01*
X164600900Y-87979100D02*
X140310900Y-87979100D01*
X168275000Y-84305000D02*
X164600900Y-87979100D01*
%TO.N,SW_3*%
X158490500Y-75329500D02*
X115746700Y-75329500D01*
X158750000Y-75070000D02*
X158490500Y-75329500D01*
%TO.N,SW_2*%
X168200000Y-71465000D02*
X174700000Y-71465000D01*
X158588200Y-64800000D02*
X158460000Y-64800000D01*
X161562600Y-67774400D02*
X158588200Y-64800000D01*
X161562600Y-71465000D02*
X161562600Y-67774400D01*
X161562600Y-71465000D02*
X168200000Y-71465000D01*
X158317800Y-71465000D02*
X161562600Y-71465000D01*
X154855000Y-74927800D02*
X158317800Y-71465000D01*
X136283500Y-74927800D02*
X154855000Y-74927800D01*
X133745700Y-72390000D02*
X136283500Y-74927800D01*
X109220000Y-72390000D02*
X133745700Y-72390000D01*
%TO.N,SW_1*%
X165861900Y-69661900D02*
X161000000Y-64800000D01*
X174744100Y-69661900D02*
X165861900Y-69661900D01*
X179070000Y-73987800D02*
X174744100Y-69661900D01*
X179070000Y-74630000D02*
X179070000Y-73987800D01*
X159931000Y-63731000D02*
X161000000Y-64800000D01*
X112799000Y-63731000D02*
X159931000Y-63731000D01*
X109220000Y-67310000D02*
X112799000Y-63731000D01*
D21*
%TO.N,VIN*%
X100386800Y-90130000D02*
X100053900Y-90462900D01*
X117840000Y-90130000D02*
X100386800Y-90130000D01*
D20*
%TO.N,L_VR_out2*%
X165414800Y-92654800D02*
X168830000Y-96070000D01*
X150844800Y-92654800D02*
X165414800Y-92654800D01*
X148320000Y-90130000D02*
X150844800Y-92654800D01*
%TO.N,R_VR_out2*%
X152317100Y-89047100D02*
X153400000Y-90130000D01*
X145357000Y-89047100D02*
X152317100Y-89047100D01*
X144510000Y-89894100D02*
X145357000Y-89047100D01*
X144510000Y-90406700D02*
X144510000Y-89894100D01*
X141303300Y-93613400D02*
X144510000Y-90406700D01*
X116454100Y-93613400D02*
X141303300Y-93613400D01*
X114175000Y-95892500D02*
X116454100Y-93613400D01*
%TO.N,3.3V*%
X109150900Y-102122500D02*
X105445000Y-102122500D01*
X113457600Y-97815800D02*
X109150900Y-102122500D01*
X114751700Y-97815800D02*
X113457600Y-97815800D01*
X116675000Y-95892500D02*
X114751700Y-97815800D01*
X169956700Y-96070000D02*
X171330000Y-96070000D01*
X163560000Y-90130100D02*
X163560000Y-90130000D01*
X164483600Y-90130100D02*
X163560000Y-90130100D01*
X169956700Y-95603200D02*
X164483600Y-90130100D01*
X169956700Y-96070000D02*
X169956700Y-95603200D01*
X101280500Y-71271200D02*
X100161700Y-72390000D01*
X133395100Y-71271200D02*
X101280500Y-71271200D01*
X136650000Y-74526100D02*
X133395100Y-71271200D01*
X137895300Y-74526100D02*
X136650000Y-74526100D01*
X138788300Y-73633100D02*
X137895300Y-74526100D01*
X138788300Y-73220000D02*
X138788300Y-73633100D01*
X139890000Y-73220000D02*
X138788300Y-73220000D01*
X99060000Y-72390000D02*
X100161700Y-72390000D01*
X169956700Y-96536800D02*
X169956700Y-96070000D01*
X169296800Y-97196700D02*
X169956700Y-96536800D01*
X165863300Y-97196700D02*
X169296800Y-97196700D01*
X162700500Y-94033900D02*
X165863300Y-97196700D01*
X118533600Y-94033900D02*
X162700500Y-94033900D01*
X116675000Y-95892500D02*
X118533600Y-94033900D01*
D22*
%TO.N,GND*%
X174700000Y-66965000D02*
X168200000Y-66965000D01*
X166035000Y-64800000D02*
X163540000Y-64800000D01*
X168200000Y-66965000D02*
X166035000Y-64800000D01*
X174839500Y-82709500D02*
X173410000Y-81280000D01*
X181990500Y-82709500D02*
X174839500Y-82709500D01*
X183570000Y-81130000D02*
X181990500Y-82709500D01*
X174775000Y-88805000D02*
X168275000Y-88805000D01*
X111675000Y-92710000D02*
X111675000Y-95892500D01*
X98425000Y-92710000D02*
X111675000Y-92710000D01*
X127960000Y-92710000D02*
X130540000Y-90130000D01*
X111675000Y-92710000D02*
X127960000Y-92710000D01*
X148300000Y-68013600D02*
X148300000Y-64800000D01*
X160920400Y-68013600D02*
X148300000Y-68013600D01*
X142556400Y-68013600D02*
X137350000Y-73220000D01*
X148300000Y-68013600D02*
X142556400Y-68013600D01*
D20*
%TO.N,R_VR_out1*%
X140899500Y-104622500D02*
X150860000Y-94662000D01*
X105445000Y-104622500D02*
X140899500Y-104622500D01*
%TD*%
M02*
