M48
; DRILL file {KiCad 8.0.6} date 2025-10-28T17:52:00+0900
; FORMAT={-:-/ absolute / inch / decimal}
; #@! TF.CreationDate,2025-10-28T17:52:00+09:00
; #@! TF.GenerationSoftware,Kicad,Pcbnew,8.0.6
; #@! TF.FileFunction,Plated,1,2,PTH
FMAT,2
INCH
; #@! TA.AperFunction,Plated,PTH,ViaDrill
T1C0.0118
; #@! TA.AperFunction,Plated,PTH,ComponentDrill
T2C0.0300
; #@! TA.AperFunction,Plated,PTH,ComponentDrill
T3C0.0315
; #@! TA.AperFunction,Plated,PTH,ComponentDrill
T4C0.0394
; #@! TA.AperFunction,Plated,PTH,ComponentDrill
T5C0.0433
; #@! TA.AperFunction,Plated,PTH,ComponentDrill
T6C0.0512
; #@! TA.AperFunction,Plated,PTH,ComponentDrill
T7C0.0630
; #@! TA.AperFunction,Plated,PTH,ComponentDrill
T8C0.0650
%
G90
G05
T1
X3.9391Y-3.5615
X4.557Y-2.9657
X5.4394Y-3.05
X5.9394Y-3.7269
X6.3354Y-2.6777
T2
X3.875Y-3.65
X3.875Y-4.1598
X4.6394Y-2.548
X4.6394Y-3.5484
X4.7394Y-2.548
X4.7394Y-3.5484
X4.8394Y-2.548
X4.8394Y-3.5484
X4.9394Y-2.548
X4.9394Y-3.5484
X5.0394Y-2.548
X5.0394Y-3.5484
X5.1394Y-2.548
X5.1394Y-3.5484
X5.2394Y-2.548
X5.2394Y-3.5484
X5.3394Y-2.548
X5.3394Y-3.5484
X5.4394Y-2.548
X5.4394Y-3.5484
X5.5394Y-2.548
X5.5394Y-3.5484
X5.6394Y-2.548
X5.6394Y-3.5484
X5.7394Y-2.548
X5.7394Y-3.5484
X5.8394Y-2.548
X5.8394Y-3.5484
X5.9394Y-2.548
X5.9394Y-3.5484
X6.0394Y-2.548
X6.0394Y-3.5484
X6.1394Y-2.548
X6.1394Y-3.5484
X6.2394Y-2.548
X6.2394Y-3.5484
X6.3394Y-2.548
X6.3394Y-3.5484
X6.4394Y-2.548
X6.4394Y-3.5484
T3
X3.9Y-2.65
X3.9Y-2.85
X3.9Y-3.05
X3.9Y-3.25
X3.9Y-3.45
X4.3Y-2.65
X4.3Y-2.85
X4.3Y-3.05
X4.3Y-3.25
X4.3Y-3.45
T4
X5.4075Y-2.8827
X5.5075Y-2.8827
X5.6075Y-2.8827
X5.7075Y-2.8827
T5
X4.1514Y-4.0206
X4.1514Y-4.119
X4.1514Y-4.2174
X4.3967Y-3.7753
X4.4951Y-3.7753
X4.5935Y-3.7753
X6.25Y-2.9555
X6.25Y-3.2114
X6.3031Y-4.0276
X6.3031Y-4.126
X6.3031Y-4.2244
X6.4272Y-2.9555
X6.4272Y-3.2114
X6.5484Y-3.7823
X6.622Y-2.6364
X6.622Y-2.8136
X6.625Y-3.3191
X6.625Y-3.4963
X6.6469Y-3.7823
X6.65Y-2.9441
X6.65Y-3.2
X6.7453Y-3.7823
X6.8272Y-2.9441
X6.8272Y-3.2
X6.878Y-2.6364
X6.878Y-2.8136
X6.8809Y-3.3191
X6.8809Y-3.4963
X7.05Y-2.9382
X7.05Y-3.1941
X7.2272Y-2.9382
X7.2272Y-3.1941
T6
X4.7215Y-3.991
X4.7215Y-4.2469
X4.8986Y-3.991
X4.8986Y-4.2469
X6.8732Y-3.998
X6.8732Y-4.2539
X7.0504Y-3.998
X7.0504Y-4.2539
T7
X4.2982Y-3.87
X4.2982Y-4.368
X4.6919Y-3.87
X4.6919Y-4.368
X6.45Y-3.877
X6.45Y-4.375
X6.8437Y-3.877
X6.8437Y-4.375
T8
X4.4951Y-3.9497
X4.4951Y-4.2883
X6.6469Y-3.9567
X6.6469Y-4.2953
M30
